<svg xmlns="http://www.w3.org/2000/svg" width="313.379" height="105.53" viewBox="0 0 313.379 105.53">
  <path id="パス_12166" data-name="パス 12166" d="M57.373-82.153,37.6-17.273q-1.831,6.165-1.831,8.118a2.688,2.688,0,0,0,1.19,2.35A6.992,6.992,0,0,0,40.1-5.737q1.953.244,5.371.366L43.884,0H7.385l1.77-5.371h3.967A13.133,13.133,0,0,0,17.4-5.89,4.876,4.876,0,0,0,19.836-8.3,42.134,42.134,0,0,0,22.4-15.015l13.367-43.64q1.221-4.15,1.221-4.089a16.986,16.986,0,0,0,.732-3.784A3.212,3.212,0,0,0,35.1-69.885a22.809,22.809,0,0,0-6.1-.732H24.353L26-75.867q8.728-.793,13.123-1.526a38.18,38.18,0,0,0,7.05-1.74A32.8,32.8,0,0,0,52-82.153Zm62.383,13.794q0,5.554-4.761,10.223a44.631,44.631,0,0,1-10.254,7.6q-5.493,2.93-10.864,5.31a19.4,19.4,0,0,1,10.529,3.51q4.852,3.326,4.852,13.214a26.966,26.966,0,0,1-2.869,12.451,29.84,29.84,0,0,1-7.751,9.613A36.264,36.264,0,0,1,87.59-.275,38.015,38.015,0,0,1,74.9,1.892,24.961,24.961,0,0,1,65.435.183a16.011,16.011,0,0,1-6.5-4.486,8.912,8.912,0,0,1-2.289-5.707,6.5,6.5,0,0,1,1.648-4.517,5.552,5.552,0,0,1,4.333-1.831,6,6,0,0,1,4.791,1.8,14.562,14.562,0,0,1,2.594,4.791,14.564,14.564,0,0,0,2.5,4.486,5.514,5.514,0,0,0,4.456,1.8,11.211,11.211,0,0,0,8.118-3.6,30,30,0,0,0,6.042-9.033,62.231,62.231,0,0,0,3.723-10.651,36.559,36.559,0,0,0,1.282-8.087,9.818,9.818,0,0,0-1.251-4.486,4.293,4.293,0,0,0-4.12-2.411q-2.136,0-6.042,2.747-.916.732-1.892,1.5a2.951,2.951,0,0,1-1.709.763,2.539,2.539,0,0,1-1.526-.7,2.8,2.8,0,0,1-.854-2.289,2.993,2.993,0,0,1,1.312-2.289,44.026,44.026,0,0,1,5.341-3.326Q97.478-52.368,102.6-57.037a14.505,14.505,0,0,0,5.127-11.078,8.654,8.654,0,0,0-2.441-5.89,8.643,8.643,0,0,0-6.775-2.716,10.019,10.019,0,0,0-7.172,2.686,8.79,8.79,0,0,0-2.838,6.653,8.643,8.643,0,0,0,.305,2.2,7.646,7.646,0,0,1,.305,1.587q0,.61-3.174,2.777T82.28-58.655q-.854,0-2.2-2.594a11.6,11.6,0,0,1-1.343-5.4q0-6.226,5.31-10.864t15.564-4.639q9.4,0,14.771,3.967T119.756-68.359ZM136.851-1.892A22.116,22.116,0,0,1,133.8,8.82a27.648,27.648,0,0,1-9.247,9.613,32.554,32.554,0,0,1-15.045,4.944l1.77-5.615q9.521-1.892,13.885-6.531T129.526,3.6a1.527,1.527,0,0,0-.519-1.373,3.67,3.67,0,0,0-1.862-.336,7.658,7.658,0,0,1-5.188-2.2,7.426,7.426,0,0,1-2.441-5.8,7.616,7.616,0,0,1,2.319-5.8,7.793,7.793,0,0,1,5.554-2.2,7.929,7.929,0,0,1,6.989,3.693A14.947,14.947,0,0,1,136.851-1.892Zm68.914-60a90.376,90.376,0,0,1-2.2,17.3,109.885,109.885,0,0,1-6.744,21.3A53.681,53.681,0,0,1,184.646-5.4a24.906,24.906,0,0,1-17.761,7.294q-10.742,0-14.252-6.775a30.754,30.754,0,0,1-3.51-14.343q0-8.057,3.418-21.484a96.546,96.546,0,0,1,10.193-25.024,44.19,44.19,0,0,1,5.768-7.66,29.956,29.956,0,0,1,8.423-6.2,24.87,24.87,0,0,1,11.444-2.563,16.657,16.657,0,0,1,9.308,2.35,15.316,15.316,0,0,1,5.371,5.89,21.911,21.911,0,0,1,2.258,6.561A36.784,36.784,0,0,1,205.764-61.89Zm-11.414-8.362a7.4,7.4,0,0,0-1.587-4.822,5.487,5.487,0,0,0-4.517-1.953,9.075,9.075,0,0,0-6.958,3.357,24.586,24.586,0,0,0-4.272,6.287A177.907,177.907,0,0,0,170-48.92q-4.15,12.421-7.08,23.438t-2.93,14.5a12.083,12.083,0,0,0,1.282,4.974q1.282,2.777,5.493,2.777,6.775,0,11.23-10.864,1.648-4.028,4.578-12.97t5.585-17.822q2.655-8.881,4.425-15.991T194.351-70.251Zm68.914,8.362a90.376,90.376,0,0,1-2.2,17.3,109.886,109.886,0,0,1-6.744,21.3A53.681,53.681,0,0,1,242.146-5.4a24.906,24.906,0,0,1-17.761,7.294q-10.742,0-14.252-6.775a30.754,30.754,0,0,1-3.51-14.343q0-8.057,3.418-21.484a96.546,96.546,0,0,1,10.193-25.024A44.19,44.19,0,0,1,226-73.395a29.956,29.956,0,0,1,8.423-6.2,24.87,24.87,0,0,1,11.444-2.563,16.657,16.657,0,0,1,9.308,2.35,15.316,15.316,0,0,1,5.371,5.89,21.911,21.911,0,0,1,2.258,6.561A36.784,36.784,0,0,1,263.264-61.89Zm-11.414-8.362a7.4,7.4,0,0,0-1.587-4.822,5.487,5.487,0,0,0-4.517-1.953,9.075,9.075,0,0,0-6.958,3.357,24.586,24.586,0,0,0-4.272,6.287A177.907,177.907,0,0,0,227.5-48.92q-4.15,12.421-7.08,23.438t-2.93,14.5a12.083,12.083,0,0,0,1.282,4.974q1.282,2.777,5.493,2.777,6.775,0,11.23-10.864,1.648-4.028,4.578-12.97t5.585-17.822q2.655-8.881,4.425-15.991T251.851-70.251Zm68.914,8.362a90.376,90.376,0,0,1-2.2,17.3,109.886,109.886,0,0,1-6.744,21.3A53.681,53.681,0,0,1,299.646-5.4a24.906,24.906,0,0,1-17.761,7.294q-10.742,0-14.252-6.775a30.754,30.754,0,0,1-3.51-14.343q0-8.057,3.418-21.484a96.546,96.546,0,0,1,10.193-25.024,44.19,44.19,0,0,1,5.768-7.66,29.956,29.956,0,0,1,8.423-6.2,24.87,24.87,0,0,1,11.444-2.563,16.657,16.657,0,0,1,9.308,2.35,15.316,15.316,0,0,1,5.371,5.89,21.911,21.911,0,0,1,2.258,6.561A36.784,36.784,0,0,1,320.764-61.89Zm-11.414-8.362a7.4,7.4,0,0,0-1.587-4.822,5.487,5.487,0,0,0-4.517-1.953,9.075,9.075,0,0,0-6.958,3.357,24.586,24.586,0,0,0-4.272,6.287A177.907,177.907,0,0,0,285-48.92q-4.15,12.421-7.08,23.438t-2.93,14.5a12.083,12.083,0,0,0,1.282,4.974q1.282,2.777,5.493,2.777,6.775,0,11.23-10.864,1.648-4.028,4.578-12.97t5.585-17.822q2.655-8.881,4.425-15.991T309.351-70.251Z" transform="translate(-7.385 82.153)" fill="#7f4b53"/>
</svg>
