<svg xmlns="http://www.w3.org/2000/svg" width="155.161" height="73.876" viewBox="0 0 155.161 73.876">
  <path id="パス_12165" data-name="パス 12165" d="M21.578-37.774q-7.785-1.62-11.7-5.721A14.756,14.756,0,0,1,5.956-54.127q0-8.777,6.5-13.506t16.327-4.728q10.606,0,17.006,4.781t6.4,13.4a14.741,14.741,0,0,1-3.736,10.319q-3.736,4.1-11.207,6.087,8.464,1.358,12.67,5.982t4.206,12.513Q54.127-9.4,47-3.945A27.486,27.486,0,0,1,29.78,1.515q-11.337,0-18.5-5.277T4.127-19.07A19.292,19.292,0,0,1,7.994-31.165Q11.86-36.207,21.578-37.774Zm.94-16.98q0,9.248,1.541,11.86a5.447,5.447,0,0,0,5.094,2.612,5.079,5.079,0,0,0,4.99-3.03q1.437-3.03,1.437-11.6,0-7-1.75-9.3A5.737,5.737,0,0,0,29-66.509a5.512,5.512,0,0,0-4.937,2.3Q22.518-61.912,22.518-54.754Zm-.993,34.117q0,9.718,1.567,13.035t6.113,3.318A6.589,6.589,0,0,0,34.8-6.923q1.985-2.638,1.985-11.99,0-10.606-1.959-13.114a7.06,7.06,0,0,0-5.93-2.508q-4.389,0-5.878,2.978T21.525-20.637ZM67.293-35.684l1.2-35.371h35.371a68.6,68.6,0,0,1-3.84,8.438q-1.437,2.429-2.194,2.456t-4.676.026H73.876l-.47,16.719A19.144,19.144,0,0,1,85.945-47.7a24.113,24.113,0,0,1,16.17,6.139q7.132,6.139,7.132,17.058,0,12.173-8.673,19.1A31.993,31.993,0,0,1,79.989,1.515Q71.734,1.515,66.3-1.7T60.867-9.613a5.692,5.692,0,0,1,1.933-4.31,6.323,6.323,0,0,1,4.441-1.8q3.971,0,6.688,5.434Q76.8-4.6,81.765-4.6A7.89,7.89,0,0,0,89-8.7q2.429-4.1,2.429-15.8,0-9.143-2.247-12.879t-7.21-3.736q-5.277,0-8.1,5.434ZM119.608-23.6a8.885,8.885,0,0,1,2.074-6.258,7.377,7.377,0,0,1,5.707-2.25q4.055,0,6.035,2.461a9.126,9.126,0,0,1,1.98,5.906,8.461,8.461,0,0,1-2.145,6.035,7.23,7.23,0,0,1-5.52,2.285q-4.078,0-6.105-2.4A8.663,8.663,0,0,1,119.608-23.6Zm5.953-.3a21.727,21.727,0,0,0,.445,5.613q.445,1.3,1.523,1.3.914,0,1.371-1.465a15.773,15.773,0,0,0,.457-4.395,29.4,29.4,0,0,0-.41-6q-.41-1.687-1.605-1.687a1.442,1.442,0,0,0-1.418,1.23A24.374,24.374,0,0,0,125.562-23.906ZM129.921,0l16.336-31.875h3.375L133.3,0Zm13.57-7.523a8.885,8.885,0,0,1,2.074-6.258,7.348,7.348,0,0,1,5.684-2.25q4.078,0,6.059,2.461a9.126,9.126,0,0,1,1.98,5.906,8.461,8.461,0,0,1-2.145,6.035A7.258,7.258,0,0,1,151.6.656a7.674,7.674,0,0,1-6.035-2.32A8.463,8.463,0,0,1,143.491-7.523Zm5.953-.3a20.223,20.223,0,0,0,.48,5.73,1.6,1.6,0,0,0,1.488,1.207q.914,0,1.371-1.477a15.906,15.906,0,0,0,.457-4.406,28.6,28.6,0,0,0-.422-6q-.422-1.687-1.594-1.687a1.442,1.442,0,0,0-1.418,1.23A24.374,24.374,0,0,0,149.444-7.828Z" transform="translate(-4.127 72.361)" fill="#fff"/>
</svg>
