<svg xmlns="http://www.w3.org/2000/svg" xmlns:xlink="http://www.w3.org/1999/xlink" width="44" height="44" viewBox="0 0 44 44">
  <defs>
    <clipPath id="clip-path">
      <rect id="長方形_23902" data-name="長方形 23902" width="44" height="44" transform="translate(373 4487)" fill="#fff" stroke="#707070" stroke-width="1"/>
    </clipPath>
  </defs>
  <g id="マスクグループ_2" data-name="マスクグループ 2" transform="translate(-373 -4487)" clip-path="url(#clip-path)">
    <g id="長方形_23885" data-name="長方形 23885" transform="translate(300 4283)" fill="none" stroke="#e4e5e5" stroke-width="1">
      <rect width="692" height="258" stroke="none"/>
      <rect x="0.5" y="0.5" width="691" height="257" fill="none"/>
    </g>
    <g id="ドレスの無料アイコン2" transform="translate(326.83 4492.224)">
      <path id="パス_12156" data-name="パス 12156" d="M80.151,30.181A23.229,23.229,0,0,0,76.4,17.507c-.877-1.313-1.741-2.314-2.373-3.117a8.993,8.993,0,0,1-.743-1.051,1.767,1.767,0,0,1-.266-.739q-.012-.176-.011-.345a6.3,6.3,0,0,1,.7-2.713,24.962,24.962,0,0,0,1.034-2.43l1.915.986,2.556-3.83-.39-.313c-.006,0-3.08-2.477-4.886-3.722L73.6,0l-.318.259,0,0a9.171,9.171,0,0,1-1.577.963,8.2,8.2,0,0,1-3.531.884,8.253,8.253,0,0,1-3.62-.927,10.158,10.158,0,0,1-1.1-.642c-.129-.087-.229-.159-.294-.208L63.078.274,63.062.261l0,0L62.741,0,62.4.233c-1.806,1.246-4.88,3.718-4.886,3.722l-.39.314L59.684,8.1,61.6,7.112a24.915,24.915,0,0,0,1.035,2.43,6.3,6.3,0,0,1,.7,2.712c0,.112,0,.227-.012.346a1.768,1.768,0,0,1-.265.739,18.905,18.905,0,0,1-1.541,2.044,23.074,23.074,0,0,0-3.333,5.323,25.3,25.3,0,0,0-1.991,9.474l-.019.565h24Zm-22.84-.529a21.871,21.871,0,0,1,3.537-11.538c.835-1.252,1.666-2.215,2.322-3.047A9.957,9.957,0,0,0,64,13.881a2.833,2.833,0,0,0,.407-1.21q.014-.212.014-.416a7.379,7.379,0,0,0-.8-3.163,17.451,17.451,0,0,1-1.174-2.9l-.173-.66-2.23,1.149L58.594,4.5,58.71,4.4c.873-.693,2.7-2.123,4-3.047a10.89,10.89,0,0,0,1.353.8A9.323,9.323,0,0,0,68.17,3.2a9.323,9.323,0,0,0,4.109-1.043,10.9,10.9,0,0,0,1.354-.8c.831.589,1.876,1.387,2.748,2.066.494.384.933.731,1.248.981l.115.092L76.289,6.678,74.058,5.529l-.173.66a17.459,17.459,0,0,1-1.174,2.9,7.38,7.38,0,0,0-.8,3.164q0,.2.014.416a2.833,2.833,0,0,0,.407,1.21,19.388,19.388,0,0,0,1.638,2.187,21.985,21.985,0,0,1,3.185,5.079,23.894,23.894,0,0,1,1.868,8.505H57.311Z" fill="#101010"/>
    </g>
  </g>
</svg>
