<svg xmlns="http://www.w3.org/2000/svg" width="120.266" height="199" viewBox="0 0 120.266 199">
  <g id="go056_4" transform="translate(-264.91 -136.996)">
    <g id="レイヤー_5" data-name="レイヤー 5" transform="translate(266.72 138.718)">
      <path id="パス_9242" data-name="パス 9242" d="M434.8,146.093l-.139-.126.018.018c-.35-.489-1.447-.768-1.4-1.371C433.465,144.214,436.049,146.432,434.8,146.093Z" transform="translate(-390.79 -144.296)" fill="#7f4b53"/>
      <path id="パス_9243" data-name="パス 9243" d="M434.91,146.673c-.263-.526-3.8-2.975-2.707-3.133C432.427,143.924,436.292,146.873,434.91,146.673Z" transform="translate(-389.847 -143.54)" fill="#7f4b53"/>
      <path id="パス_9244" data-name="パス 9244" d="M436.755,148.54l-.247-.284h0a14.577,14.577,0,0,0-2.039-1.928c-.189.047-.31-.176-.234-.334C434.5,145.273,438.173,149.061,436.755,148.54Z" transform="translate(-391.481 -145.281)" fill="#7f4b53"/>
      <path id="パス_9245" data-name="パス 9245" d="M436.2,147.709c-.666-.979-1.9-1.634-2.449-2.594-.229-.279-.587-.505-.716-.837,0-.263.35-.247.453-.042h0l.018.018-.013-.013c.205.226.418.442.631.658.395,0,5.788.7,4.109,1.129h-.011a29.7,29.7,0,0,0-3.657-.671C434.784,145.676,437.449,147.875,436.2,147.709Z" transform="translate(-390.618 -143.939)" fill="#7f4b53"/>
      <path id="パス_9246" data-name="パス 9246" d="M455.61,194.825a2.631,2.631,0,0,1-.263-1.444h0a.221.221,0,0,1,.113-.1h0c.35-.082.237.331.284.545,0,.355.482.866.145,1.121h0a.208.208,0,0,1-.279-.121Z" transform="translate(-407.026 -180.187)" fill="#7f4b53"/>
      <path id="パス_9247" data-name="パス 9247" d="M450.389,405.8c-.029-.15-.058-.3-.089-.453v.026c-.171-.292.263-.558.374-.213.013.25.295.718-.058.818A.213.213,0,0,1,450.389,405.8Z" transform="translate(-403.307 -336.215)" fill="#7f4b53"/>
      <path id="パス_9248" data-name="パス 9248" d="M451.869,415.2c-.021-.179-.074-.353-.079-.526a.208.208,0,0,1,.413,0c.013.16.058.318.076.476a.208.208,0,0,1-.41.05Z" transform="translate(-404.435 -343.207)" fill="#7f4b53"/>
      <path id="パス_9249" data-name="パス 9249" d="M272.2,559.737a.508.508,0,0,1-.376-.118c-.074-.129,0-.263.029-.408.06-.263.108-.545.168-.813.218-.847.4-1.7.674-2.536a27.58,27.58,0,0,1,1.257-2.912,28.307,28.307,0,0,0,1.247-3.125c.384-1.242.671-2.515.931-3.786.16-.723.334-1.444.558-2.149.281-.821.587-1.634.9-2.441a16.228,16.228,0,0,1,.7-1.7,5.239,5.239,0,0,1,.566-.816,14.021,14.021,0,0,1,1.034-.984c.526-.452,1.052-.937,1.55-1.423.584-.526,1.131-1.092,1.689-1.644q.766-.71,1.46-1.492c.484-.495.968-.987,1.423-1.508.7-.773,1.376-1.578,2.126-2.31.71-.663,1.5-1.237,2.16-1.955.358-.368.687-.763,1.052-1.121.458-.445.958-.844,1.452-1.25a21.5,21.5,0,0,1,1.713-1.421,14.093,14.093,0,0,0,2.415-1.594c.716-.737,1.5-1.4,2.276-2.076.671-.629,1.315-1.286,2.023-1.884.731-.639,1.436-1.315,2.147-1.971.395-.345.826-.644,1.221-.989a16.816,16.816,0,0,1,3.215-2.631,3.362,3.362,0,0,1,.366-.608c.147-.216.289-.447.458-.652h.042v-.042a.137.137,0,0,1,.221.013,2.388,2.388,0,0,1,.25,1.134c.061.652-.024,1.315.034,1.97a25.272,25.272,0,0,1,.339,2.784,4.665,4.665,0,0,0,.113.913c.047.363.076.737.124,1.1.2,1.668.495,3.325.7,5,.11,1.01.145,2.026.292,3.031.226,1.886.663,3.746.808,5.643.068.855.2,1.7.263,2.56.026.318.076.637.095.958a7.391,7.391,0,0,1-.024.834,3.807,3.807,0,0,1-.158.989,3.948,3.948,0,0,1-1.144,1.434c-.229.195-.434.416-.642.631-.339.321-.671.647-.979,1s-.626.729-.968,1.071c-.366.421-.726.844-1.115,1.242-.7.739-1.544,1.316-2.3,1.986-.355.295-.789.471-1.126.789a4.177,4.177,0,0,0-.705.692,1.467,1.467,0,0,0-.339.574.76.76,0,0,0-.024.568l.016.026a4.213,4.213,0,0,0,1.029.863,9.546,9.546,0,0,1,1.294,1c.355.331.681.7,1.013,1.052.2.211.426.4.626.616a4.962,4.962,0,0,0,1.413,1.15,5.915,5.915,0,0,0,1.692.658c.4.111.789.263,1.189.363a2.655,2.655,0,0,0,.976.092c.224-.018.447-.055.674-.076a.951.951,0,0,1,.3,0c.082,0,.155.158.116.213a3.339,3.339,0,0,1,.018.431c0,.226.029.458.034.687a3.84,3.84,0,0,0,.016.426.692.692,0,0,1-.053.379c-.042.071-.113.189-.21.147h0a15.009,15.009,0,0,1-1.878-1.168,4.237,4.237,0,0,0-1.681-.918,2.4,2.4,0,0,0-1.092.108c-.263.087-.5.216-.768.279a2.477,2.477,0,0,1-.881,0,7.1,7.1,0,0,1-3.462-1.518c-.721-.526-1.429-1.092-2.136-1.647a11.371,11.371,0,0,1-.966-.881c-.1-.09-.218-.208-.363-.195a2.631,2.631,0,0,0-.842.31,2.243,2.243,0,0,0-.789.6,15.909,15.909,0,0,0-1.578,2.157,4.819,4.819,0,0,1-1.507,1.273,2.309,2.309,0,0,0-.708.826c-.158.263-.305.526-.468.789a17.416,17.416,0,0,1-2.928.876,12.548,12.548,0,0,1-1.25.471,5.356,5.356,0,0,1-1.121.287,11.38,11.38,0,0,1-1.794-.047,12.314,12.314,0,0,0-2.015.131c-.368.047-.742.045-1.113.071-.745.063-1.468.263-2.2.387-.831.118-1.679.108-2.51.213-.613.092-1.215.263-1.842.324-.505.055-1.015.074-1.518.147s-1,.171-1.5.281A9.97,9.97,0,0,1,272.2,559.737Z" transform="translate(-271.789 -414.571)" fill="#7f4b53"/>
    </g>
    <g id="レイヤー_4" data-name="レイヤー 4" transform="translate(265.533 234.01)">
      <path id="パス_9250" data-name="パス 9250" d="M267.7,555.25a.553.553,0,0,1-.374-.713v.024c.021-.061.039-.124.061-.187-.355-.689.263-1.815.71-2.368a7.587,7.587,0,0,1,.729-1.763c.608-1.234.526-6.4,1.955-6.333a34.441,34.441,0,0,1,.666-3.536h0c.1-.5.171-1.01.279-1.513v.021a.6.6,0,0,1,.721-.526c.276-1.016.608-2.015.931-3.015h0c.079-.36,3.536-5.493,4.2-4.628,2.57-2.439,4.941-5.443,7.858-7.366.7-.552,1.242-1.41,2.068-1.75l.5-.442h0c.526-.455,1.052-.889,1.578-1.339l-.053.047.7-.618h0c.463-.416.923-.831,1.379-1.255.626-1.776,3.033-3.3,4.593-4.288,2.5-2.22,4.914-4.53,7.343-6.824.652-.755,3.215-1.744,2.423-.613-1.607,2.4-5.164,5.122-7.387,6.861-1.008,1.515-2.741,2.368-4.007,3.644a65.28,65.28,0,0,1-6.932,6.282,18.055,18.055,0,0,1-3.452,2.941c-.46.321-.721,1.052-1.315,1.1-2.6,3.049-6.067,5.341-7.953,8.984-.742,1.052-.526,2.939-1.655,3.586-.642,1.742-.405,4.107-1.652,5.5A35.4,35.4,0,0,0,269.8,551h0c-.216.571,0,1.492-.621,1.81a2.644,2.644,0,0,1-.442,1.065c-.087.247-.171.495-.263.745h0c-.026.068-.05.14-.074.208h0a.552.552,0,0,1-.708.418Z" transform="translate(-267.279 -505.754)" fill="#7f4b53"/>
      <path id="パス_9251" data-name="パス 9251" d="M268.231,679.54c-.295-.958.581-2.128.626-3.173a.559.559,0,1,1,1.016.455c.387.542-.263,1.171-.4,1.718C269.38,679.138,268.933,680.238,268.231,679.54Z" transform="translate(-267.936 -631.192)" fill="#7f4b53"/>
      <path id="パス_9252" data-name="パス 9252" d="M342.566,628.408c-.592-.416,1.192-1.578,1.552-1.728.213-.263.6,0,.763.2.237.623-.737.681-1.079.968h0l-.032.018h0C343.421,628.059,343.031,628.58,342.566,628.408Z" transform="translate(-322.671 -594.785)" fill="#7f4b53"/>
      <path id="パス_9253" data-name="パス 9253" d="M347.7,632.636a.276.276,0,1,1,.276.276A.276.276,0,0,1,347.7,632.636Z" transform="translate(-326.542 -599.052)" fill="#7f4b53"/>
    </g>
    <g id="レイヤー_3" data-name="レイヤー 3" transform="translate(264.91 136.996)">
      <path id="パス_9254" data-name="パス 9254" d="M286.53,621.6Z" transform="translate(-280.842 -494.109)" fill="#7f4b53"/>
      <path id="パス_9255" data-name="パス 9255" d="M331.93,580.534l.032-.024h0Z" transform="translate(-314.298 -463.829)" fill="#7f4b53"/>
      <path id="パス_9256" data-name="パス 9256" d="M340.941,578.47h0l-.021.018Z" transform="translate(-320.923 -462.325)" fill="#7f4b53"/>
      <path id="パス_9257" data-name="パス 9257" d="M346.452,632.738h.013a1.991,1.991,0,0,0,.837-.232.552.552,0,1,0-.429-1.018c-.087.042-.176.082-.263.116l-.1.029h-.06a.552.552,0,1,0,0,1.1Z" transform="translate(-324.593 -501.363)" fill="#7f4b53"/>
      <path id="パス_9258" data-name="パス 9258" d="M331.156,690.73h0Z" transform="translate(-313.672 -545.052)" fill="#7f4b53"/>
      <path id="パス_9259" data-name="パス 9259" d="M625.558,731.61h0l-.058.039Z" transform="translate(-530.635 -575.177)" fill="#7f4b53"/>
      <path id="パス_9260" data-name="パス 9260" d="M545.77,776.2h0Z" transform="translate(-471.88 -608.036)" fill="#7f4b53"/>
      <path id="パス_9261" data-name="パス 9261" d="M519.53,586.39Z" transform="translate(-452.544 -468.162)" fill="#7f4b53"/>
      <path id="パス_9262" data-name="パス 9262" d="M517.55,565.3a.1.1,0,0,1,0,.026v.047A.643.643,0,0,0,517.55,565.3Z" transform="translate(-451.085 -452.62)" fill="#7f4b53"/>
      <path id="パス_9263" data-name="パス 9263" d="M523.68,692.08Z" transform="translate(-455.602 -546.047)" fill="#7f4b53"/>
      <path id="パス_9264" data-name="パス 9264" d="M542.7,366.859c-.095-.082-.2-.155-.295-.234a6.365,6.365,0,0,0-.789-.595c-.121-.071-.25-.132-.371-.2a3.562,3.562,0,0,0-.452-.216c-.234-.087-.455-.195-.695-.263a.544.544,0,0,0-.263-.029.59.59,0,0,0,0-.226,2.261,2.261,0,0,0-.055-.3h0l-.031-.181a2.627,2.627,0,0,1-.037-.353v.074c0-.129-.018-.263-.026-.389l-.047-.65v.039c-.021-.313-.032-.626-.042-.939s-.034-.634-.058-.95v.018c-.029-.455-.045-.91-.074-1.365s-.066-.894-.1-1.342h0c-.066-.968-.095-1.936-.113-2.894,0-.5-.024-.992-.047-1.489s-.058-.913-.089-1.371v.076c-.016-.224-.026-.447-.029-.671,0-.492-.024-.987-.032-1.481s-.032-1.052-.05-1.578c-.034-.981-.082-1.96-.139-2.941s-.092-1.936-.166-2.894c-.039-.526-.09-1.026-.153-1.534s-.145-1.071-.184-1.61c-.029-.46-.047-.921-.063-1.381s-.021-.884-.05-1.315c-.042-.592-.108-1.179-.15-1.768-.037-.508-.113-1.01-.153-1.518h0c-.039-.589-.058-1.181-.1-1.771a.645.645,0,0,0,0,.074c-.042-.637-.084-1.273-.155-1.907-.06-.526-.116-1.052-.155-1.579-.026-.439-.029-.881-.034-1.315s-.016-.947-.034-1.421c0-.263-.029-.547-.055-.821-.016-.2-.026-.405-.053-.608-.058-.46-.116-.921-.163-1.381s-.087-.913-.14-1.371-.095-.879-.129-1.315c-.034-.568-.019-1.137-.053-1.7-.021-.387-.06-.771-.092-1.155-.018-.334-.013-.671-.013-1.008v-1.115c0-.334.068-1.8.068-1.8v-2.368c0-.526.013-1.052,0-1.592s-.084-1.129-.147-1.692q-.087-.789-.184-1.578c-.068-.526-.126-1.052-.163-1.579-.024-.408-.029-.816-.034-1.226s-.016-.789-.018-1.184v-2.5c0-1.113.032-2.228,0-3.341,0-.558-.066-1.115-.108-1.668s-.105-1.087-.142-1.631h0c-.032-.568-.066-1.139-.076-1.707s-.016-1.21-.018-1.815c0-.958,0-1.913.032-2.87.026-1.023.045-2.044.047-3.065,0-1.076,0-2.147-.063-3.22-.021-.46-.026-.921-.053-1.381,0-.224-.018-.447-.032-.671s-.034-.487-.053-.729c-.018-.342-.029-.684-.055-1.023s-.087-.742-.142-1.11c-.105-.721-.237-1.442-.292-2.168,0-.025,0-.051,0-.076a.379.379,0,0,1,0,.053c-.026-.434-.021-.868-.042-1.315q-.029-.595-.111-1.192c-.026-.2-.042-.4-.068-.6s-.042-.353-.058-.526a4.689,4.689,0,0,0-.108-.689c-.018-.089-.031-.179-.047-.263a.525.525,0,0,0-.084-.221c.047-.026.1-.05.145-.079.092-.06.179-.129.263-.189a3.765,3.765,0,0,0,.526-.41,5.649,5.649,0,0,0,.4-.431c.034-.037.071-.071.108-.105.237-.205.492-.379.713-.6a3.068,3.068,0,0,0,.363-.421c.1-.145.189-.295.287-.439s.19-.263.289-.392.179-.216.263-.331a.834.834,0,0,1,.142-.579.558.558,0,0,0-.292-.724,2.828,2.828,0,0,0-.526-.132c-.208-.042-.418-.071-.631-.1s-.471-.079-.708-.116l-.658-.092q-1.46-.2-2.91-.458c-1.065-.187-2.126-.4-3.189-.584-.526-.095-1.068-.16-1.6-.25s-1.084-.168-1.629-.245-1.052-.139-1.578-.192-1.084-.1-1.626-.153c-1.11-.118-2.213-.313-3.315-.481l-1.578-.25c-.542-.087-1.087-.163-1.634-.237-1.076-.147-2.16-.245-3.241-.363s-2.189-.281-3.275-.468c-.584-.1-1.165-.187-1.75-.289s-1.1-.205-1.657-.305-1.052-.195-1.579-.287-1.11-.179-1.665-.279c-1.1-.2-2.2-.429-3.307-.626-.545-.1-1.092-.195-1.639-.279s-1.139-.189-1.71-.279-1.113-.15-1.673-.229l-.858-.116a4.978,4.978,0,0,0-.71-.084c-.3,0-.305,1.386-.31,1.547,0,.342-.013.684-.013,1.026v1.926c0,.642,0,1.315.024,1.963s.053,1.25.06,1.876c.021,1.242.029,2.486.063,3.731.018.631.039,1.263.074,1.894s.087,1.271.132,1.9v-.074c.055.834.113,1.671.192,2.5s.16,1.649.216,2.476v-.074c.068,1.052.171,2.123.331,3.175.09.581.145,1.165.208,1.749s.105,1.108.145,1.663v-.076q.071,1.092.147,2.186v-.074c.018.3.034.6.055.9v-.026c.032.46.079.918.113,1.379h0c.05.726.092,1.45.139,2.176a.582.582,0,0,0,0,.15c.016.263.034.526.053.773v-.074c.042.595.063,1.192.108,1.786.047.642.1,1.286.142,1.928v-.074c.042.652.071,1.315.111,1.963s.037,1.26.066,1.889c.032.692.079,1.381.126,2.073.039.576.087,1.152.129,1.728s.1,1.092.142,1.642h0v.042l.016.245c.045.668.076,1.334.113,2,.032.592.071,1.186.1,1.778s.053,1.231.1,1.842.1,1.25.147,1.876c.082,1.163.184,2.328.287,3.491s.221,2.307.305,3.465v.013c.039.595.087,1.189.105,1.784s.029,1.123.042,1.684a9.7,9.7,0,0,0,.068,1.068c.018.176.387,1.992.408,2.27.024.366.053.731.076,1.094q0-.037,0-.074c.034.5.039.994.079,1.492.037.439.1.879.137,1.315s.074.939.108,1.41.095.95.132,1.426.06.984.082,1.476.055.976.087,1.463v-.074l.082.921v-.076c.032.495.074.984.108,1.476h0v.147c.016.263.032.5.063.755.037.31.084.621.116.934.071.739.147,1.481.205,2.223.018.3.016.595.047.892a8.128,8.128,0,0,0,.113.871.592.592,0,0,0,.029.132c.034.182.053.368.071.552.037.358.066.718.089,1.076v-.076c0,.111.013.218.021.326.039.639.071,1.281.081,1.921s.018,1.276.066,1.913c.071.929.2,1.842.263,2.781.018.305.039.608.068.913s.066.595.087.895l.055.763v.116c.024.5.058.995.076,1.494,0,.345.018.687.039,1.031s.053.626.09.939c.045.413.082.826.129,1.242.058.526.126,1.052.179,1.579s.126.987.189,1.478.137,1.052.189,1.579c.063.626.105,1.255.147,1.884v-.037c.1,1.681.166,3.365.279,5.046.039.526.1,1.052.142,1.6.024.41.039.823.068,1.234s.061.818.1,1.226c.042.466.1.931.15,1.4.037.329.063.658.1.989.024.234.042.471.063.708s.063.5.084.745c.016.295.026.592.053.887.039.434.1.866.15,1.3.063.56.1,1.123.139,1.686.021.263.055.526.074.789.034.542.09,1.084.134,1.626.071.863.2,1.721.263,2.586.029.468.018.939.032,1.407,0,.171,0,.339.016.508a2.4,2.4,0,0,0,.074.581.571.571,0,0,0,.526.405.562.562,0,0,0,.558-.716.214.214,0,0,1,0-.04c0-.058-.016-.116-.021-.176q-.021-.339-.024-.679c0-.429,0-.855-.026-1.284-.032-.51-.092-1.026-.153-1.534-.026-.221-.05-.442-.074-.663l.339-.134c.461-.184.916-.387,1.373-.579a13.752,13.752,0,0,0,1.363-.65c.421-.229.837-.476,1.25-.721.46-.263.926-.526,1.384-.81.205-.124.405-.247.616-.363s.408-.216.613-.321c.434-.226.866-.455,1.279-.723.2-.132.405-.263.605-.384s.447-.295.668-.447l-.021.016.029-.018.008-.013h0c.263-.174.526-.342.8-.5s.566-.305.85-.455l.747-.392c.247-.129.55-.3.829-.439.608-.305,1.21-.616,1.789-.971.487-.3.976-.595,1.45-.916.673-.445,1.4-.789,2.1-1.2.881-.5,1.779-.976,2.647-1.5s1.71-1.052,2.576-1.555c.41-.239.834-.458,1.252-.679s.873-.484,1.315-.729.881-.487,1.315-.745.839-.5,1.276-.716l-.063.032c.639-.321,1.286-.631,1.915-.973.453-.245.908-.484,1.36-.726s.923-.526,1.386-.771a11.926,11.926,0,0,0,1.273-.821c.239-.179.468-.368.713-.539a3.042,3.042,0,0,1,.318-.2h0a.708.708,0,0,0,.124-.089c.263,0,.508-.024.76-.042h.2c.1.039.192.084.287.121s.218.082.324.132.192.11.289.158a2.831,2.831,0,0,1,.289.163c.166.116.321.245.476.374s.242.187.358.284c.161.145.318.289.482.429a.5.5,0,0,0,.324.116.576.576,0,0,0,.45-.216.558.558,0,0,0-.1-.773L543,367.12C542.888,367.03,542.8,366.941,542.7,366.859Zm-5.525-29.113Zm-41.223-78.7c.439.061.876.132,1.315.2s.873.137,1.315.211c1.118.184,2.234.395,3.346.61.552.108,1.1.216,1.657.31s1.1.179,1.652.279c2.194.4,4.386.808,6.6,1.121,1.092.155,2.192.247,3.289.371s2.165.263,3.244.447,2.152.339,3.228.5c.552.082,1.1.153,1.655.205s1.1.095,1.649.163,1.052.132,1.579.205l.821.118c.263.042.526.092.789.132.526.079,1.052.158,1.579.263l1.56.287c1.068.2,2.141.395,3.22.552.5.074,1.008.139,1.513.216.263.037.5.087.755.121l.374.055-.129.166c-.166.224-.316.452-.468.684-.055.076-.11.15-.171.221a3.5,3.5,0,0,1-.263.263c-.179.15-.368.284-.542.437a3.262,3.262,0,0,0-.329.358c-.074.082-.155.16-.237.237a2.117,2.117,0,0,1-.239.187l.058-.039-.242.171a.526.526,0,0,0-.345-.195c-.318-.039-.637-.079-.95-.139h0c-.339-.071-.682-.121-1.026-.168-.289-.039-.579-.082-.868-.116-.652-.079-1.315-.155-1.957-.245-.526-.074-1.052-.121-1.579-.189s-1.021-.145-1.528-.218-1.034-.15-1.552-.187-.984-.05-1.476-.082h-.034c-1.4-.105-2.789-.284-4.178-.463-.526-.068-1.071-.124-1.6-.21s-1.052-.187-1.578-.263c-1.013-.15-2.031-.263-3.041-.447s-2.023-.339-3.041-.474c-.539-.071-1.079-.145-1.621-.213s-1.052-.116-1.592-.181-1.11-.113-1.665-.161-1.052-.108-1.579-.166-1.015-.089-1.521-.147-1-.132-1.5-.2c-1.052-.139-2.134-.263-3.2-.41-.539-.068-1.079-.142-1.618-.2-.426-.047-.852-.095-1.284-.105v-.089c0-.658-.026-1.315-.024-1.973s0-1.263.024-1.892v-.082a.4.4,0,0,0,.016-.06l.4.058Zm40.917,107.627c-.676.45-1.389.837-2.1,1.226-.363.2-.731.384-1.094.581s-.789.424-1.168.624h0c-.581.287-1.176.555-1.734.881-.5.292-.992.589-1.5.866-.452.25-.9.51-1.355.76s-.852.447-1.273.676-.85.492-1.268.744-.879.526-1.315.805-.842.508-1.271.747l-1.337.745c-.445.247-.886.495-1.336.737a14.509,14.509,0,0,0-1.384.831.441.441,0,0,1,.058-.04c-.218.145-.445.276-.666.416s-.466.292-.7.437c-.51.313-1.052.584-1.579.855l.047-.024c-.355.176-.7.366-1.052.552l-.876.458c-.318.171-.639.337-.95.526s-.642.413-.958.629c-.208.137-.421.263-.631.4s-.4.263-.613.392c-.413.237-.839.45-1.26.674s-.847.487-1.271.729c-.884.51-1.747,1.052-2.655,1.523-.426.205-.86.381-1.294.568-.239.1-.474.216-.718.31l-.218.087c-.021-.221-.042-.442-.058-.666-.045-.663-.11-1.315-.16-1.984-.037-.495-.089-.987-.15-1.479-.045-.353-.082-.705-.105-1.052a3.464,3.464,0,0,0-.032-.571c-.032-.189-.053-.408-.071-.616-.134-1.5-.318-3-.426-4.512a.137.137,0,0,1,0,.032c-.026-.434-.039-.871-.076-1.315s-.087-.9-.121-1.352v-.1a.273.273,0,0,0,0,.045v-.047h0c-.016-.281-.034-.56-.053-.839-.037-.61-.066-1.221-.092-1.842s-.068-1.142-.095-1.713q-.09-1.829-.316-3.638c-.063-.5-.131-1-.195-1.5s-.108-1.034-.176-1.55c-.058-.452-.1-.91-.15-1.365-.032-.305-.076-.608-.1-.913-.029-.447-.037-.9-.058-1.344-.031-.71-.074-1.421-.121-2.131q0,.037,0,.074c-.039-.616-.118-1.229-.16-1.842v.076c-.034-.526-.079-1.071-.139-1.6s-.118-1.037-.155-1.557c-.039-.629-.045-1.26-.058-1.892s-.047-1.25-.087-1.873a15.04,15.04,0,0,0-.237-2.2V344.1h0a3.712,3.712,0,0,1-.06-.481c0-.124-.026-.247-.034-.371-.016-.313-.024-.626-.055-.939-.039-.405-.074-.813-.113-1.215s-.068-.858-.132-1.284c-.039-.289-.076-.579-.1-.871a1.924,1.924,0,0,0-.021-.347c-.024-.358-.06-.716-.084-1.073v.076c-.016-.263-.029-.5-.047-.752v.076l-.095-1.379c-.047-.76-.068-1.523-.124-2.284-.029-.392-.082-.789-.11-1.179s-.071-.789-.1-1.168c-.024-.339-.042-.679-.084-1.018s-.071-.634-.095-.95-.024-.652-.042-.976-.045-.605-.066-.908c-.016-.234-.029-.466-.05-.7-.016-.179-.037-.358-.05-.526,0-.124-.355-1.665-.374-1.889-.06-.96-.042-1.926-.1-2.894-.071-1.152-.153-2.3-.263-3.454-.111-1.084-.195-2.168-.292-3.252-.058-.66-.1-1.315-.15-1.984-.047-.6-.1-1.2-.142-1.8h0c-.042-.629-.053-1.257-.089-1.886-.071-1.292-.129-2.583-.226-3.873-.042-.558-.1-1.11-.142-1.668s-.089-1.165-.132-1.75h0c-.042-.65-.087-1.315-.108-1.952s-.034-1.289-.076-1.936c-.045-.724-.071-1.447-.126-2.17q-.071-.892-.132-1.789l-.016-.239c-.037-.624-.074-1.247-.116-1.87v-.047c-.042-.618-.074-1.237-.113-1.855s-.092-1.165-.137-1.749v-.029c-.045-.676-.087-1.35-.134-2.026a.674.674,0,0,1,0,.074c-.04-.634-.076-1.268-.129-1.9s-.126-1.284-.2-1.923-.187-1.231-.25-1.842c-.058-.558-.11-1.118-.15-1.681-.1-1.479-.263-2.949-.374-4.428a.644.644,0,0,0,0,.074c-.045-.642-.092-1.284-.137-1.926-.06-.916-.1-1.828-.116-2.744s-.039-1.876-.047-2.812c0-.637-.018-1.276-.045-1.913,0-.229-.018-.458-.024-.687h.213c.879.063,1.757.192,2.631.308s1.689.218,2.536.324l1.579.208c.487.063.976.11,1.465.155s1.026.111,1.542.166c.566.058,1.134.095,1.7.153s1.089.124,1.634.184,1.023.124,1.531.195,1.076.139,1.61.218,1,.163,1.494.245c1.031.171,2.065.324,3.1.466.5.071.994.15,1.489.237.542.1,1.081.174,1.623.239,1.031.129,2.057.284,3.091.382.526.05,1.052.108,1.579.147.489.037.981.053,1.471.082.771.053,1.534.176,2.3.289,1.052.15,2.1.263,3.157.405.51.066,1.026.116,1.536.184s.987.126,1.473.224l-.071-.016c.239.053.481.089.726.124v.021c.04.139.263.918.284,1.071.074.368.092.747.137,1.121.055.458.11.916.147,1.376.026.41.024.826.04,1.239a11.759,11.759,0,0,0,.116,1.252c.063.434.132.871.195,1.315.029.195.063.392.092.589s.045.392.058.587v-.013c.032.479.053.958.09,1.436.052.789.063,1.579.1,2.384.045.936.053,1.876.05,2.815,0,1.018,0,2.036-.039,3.054-.029.963-.037,1.926-.037,2.894,0,1.081,0,2.16.068,3.241.016.3.031.6.055.9s.055.526.079.8c.045.505.079,1.01.116,1.515h0c0,.15.018.3.021.453.018.563,0,1.126,0,1.686v4.82c0,.513,0,1.023.029,1.536.021.555.084,1.108.142,1.66s.132,1.029.187,1.544.124,1.036.161,1.555c.05.81.026,1.626.026,2.436,0,.581-.137,2.165-.134,2.2a.987.987,0,0,0,.037.216v.037c.021.358.018.718.024,1.073v1.352c0,.408,0,.81.029,1.215.018.242.045.484.063.726.034.526.034,1.079.053,1.618.016.495.066.987.118,1.481.045.432.087.863.132,1.3.053.484.1.971.163,1.455.058.418.1.842.126,1.263V326.1c.013.205.021.413.026.621.016.492.021.987.029,1.481s.016.913.063,1.365c.039.387.063.776.11,1.163.053.434.095.868.129,1.315.024.353.042.705.066,1.052a.675.675,0,0,0,0-.074c.029.426.042.855.066,1.284s.079.818.124,1.226c.037.331.058.668.084,1,.034.405.076.813.105,1.218.061.994.05,1.994.134,2.989.047.526.132,1.071.192,1.608.053.474.1.947.137,1.421.045.681.066,1.365.11,2.049s.076,1.36.116,2.039c.026.479.042.96.058,1.442.018.526.042,1.052.05,1.579s.021.994.031,1.492.053,1,.087,1.5h0c.066,1.013.074,2.028.1,3.044s.105,2.034.179,3.049c.042.65.068,1.3.113,1.949v-.074c.024.347.032.695.047,1.052.018.387.045.789.071,1.163l.024.326v.037h0c.018.218.05.431.09.645v-.026a3.575,3.575,0,0,0,.079.429.568.568,0,0,0-.329.168H538.4A10.874,10.874,0,0,0,536.874,366.678Z" transform="translate(-433.038 -225.901)" fill="#7f4b53"/>
      <path id="パス_9265" data-name="パス 9265" d="M688.77,592.23v.076A.663.663,0,0,0,688.77,592.23Z" transform="translate(-577.26 -472.466)" fill="#7f4b53"/>
      <path id="パス_9266" data-name="パス 9266" d="M691.43,632.45v.074A.581.581,0,0,0,691.43,632.45Z" transform="translate(-579.22 -502.104)" fill="#7f4b53"/>
      <path id="パス_9267" data-name="パス 9267" d="M469.309,362.525c.026.563.034,1.123.05,1.686s.042,1.2.068,1.794c.026.542.058,1.084.089,1.623.024.381.055.76.084,1.139a.673.673,0,0,1,0-.074,1.106,1.106,0,0,0,.013.208.645.645,0,0,0,0-.074,1.027,1.027,0,0,0,.018.237c.018.079,0,.2.018.3v-.076a3.906,3.906,0,0,0,.06.526c.018.087.039.174.06.263a.621.621,0,0,0,.326.434.812.812,0,0,0,.092.153.582.582,0,0,0,.445.213.542.542,0,0,0,.329-.113.558.558,0,0,0,.116-.755h0a2,2,0,0,0-.1-.182.9.9,0,0,0-.168-.176.5.5,0,0,0-.026-.105h0v-.008a.319.319,0,0,0-.013-.111.426.426,0,0,1,0-.129,1.279,1.279,0,0,0,.453-.105,3.919,3.919,0,0,0,.581-.366h0c.192-.126.379-.263.571-.387a7.672,7.672,0,0,1,.831-.481c.189-.095.379-.189.573-.279a3.626,3.626,0,0,0,.568-.389,9.739,9.739,0,0,1,.9-.5c.232-.116.471-.221.695-.35.137-.079.263-.166.405-.242.352-.168.723-.3,1.079-.466a7.509,7.509,0,0,0,.9-.526l-.026.018c.2-.132.413-.242.624-.36s.416-.242.621-.363a3,3,0,0,0,.5-.368l.205-.2c.121-.1.247-.187.371-.279.071-.053.139-.108.21-.158l.066-.039c.155-.074.313-.145.474-.208a2.707,2.707,0,0,0,.526-.35c.213-.139.442-.263.663-.379s.452-.263.676-.389.46-.263.695-.4a8.045,8.045,0,0,0,.721-.447h0l.042-.029.024-.016c.11-.074.224-.145.329-.226.174-.129.334-.263.505-.405.216-.171.439-.334.666-.492.358-.234.734-.445,1.1-.668s.755-.424,1.131-.637c.118-.066.239-.129.358-.2.21-.126.413-.263.626-.4.476-.289.963-.56,1.415-.889a12.115,12.115,0,0,0,1.068-.884l-.053.047c.095-.082.195-.16.3-.234l.2-.134a.372.372,0,0,1-.058.039c.31-.208.65-.371.973-.558a22.777,22.777,0,0,0,2.386-1.439c.329-.263.655-.505.989-.745.426-.3.826-.639,1.258-.934.321-.216.663-.392.992-.592.184-.116.371-.231.552-.355h0c.789-.526,1.628-.944,2.407-1.468l-.037.026.047-.034h0l.121-.084c.139-.092.281-.174.424-.263s.263-.171.384-.263l-.058.039.358-.247-.06.039c.224-.15.439-.305.66-.458.345-.229.708-.429,1.052-.65.3-.195.623-.358.937-.526a13.843,13.843,0,0,0,1.2-.789c.321-.229.621-.487.947-.713.4-.263.834-.495,1.244-.75.216-.132.434-.263.65-.384.163-.1.324-.2.495-.287s.363-.182.547-.263l.187-.092c.1-.042.2-.1.3-.153l.171-.087c.368-.182.745-.334,1.115-.505s.734-.376,1.092-.584c.295-.174.595-.342.876-.526.332-.221.652-.453.979-.676.142-.095.292-.176.434-.263a2.7,2.7,0,0,0,.368-.347,5.014,5.014,0,0,1,.405-.379c.142-.116.192-.195.292-.287l.537-.521c.055-.047.113-.1.174-.145l.042-.024c.263-.126.526-.239.789-.376a5.03,5.03,0,0,0,.46-.263c.15-.1.263-.158.4-.242s.187-.129.284-.184l.074-.032h.016c.142.058.263.137.421.189a2.605,2.605,0,0,0,.263.087c.053.013.1.021.155.029l.087.076-.053-.047.263.234.021.018.063.082h0a.584.584,0,0,0,.484.263.527.527,0,0,0,.263-.076.55.55,0,0,0,.2-.752,1.7,1.7,0,0,0-.184-.245,2.383,2.383,0,0,0-.239-.221l-.263-.239a.789.789,0,0,0-.3-.163l-.187-.032-.071-.021a2.714,2.714,0,0,0-.921-.305.463.463,0,0,0-.105,0,.445.445,0,0,0-.245.042,3.1,3.1,0,0,0-.384.195c-.108.074-.218.147-.331.216-.279.166-.56.329-.852.474a6,6,0,0,0-.789.389,5.69,5.69,0,0,0-.542.466c-.15.132-.308.263-.445.4q-.113.118-.237.229c-.105.1-.218.2-.321.3s-.139.155-.216.226l-.05.042c-.071.042-.145.079-.213.124s-.163.105-.242.16c-.287.195-.566.4-.85.592s-.526.326-.789.481-.545.326-.831.471c-.347.171-.71.313-1.052.479-.263.121-.508.247-.758.376h.024l-.058.029h0a.214.214,0,0,0-.042.021h-.021c-.347.168-.7.332-1.036.526-.187.113-.376.226-.568.337s-.416.263-.626.381a11.592,11.592,0,0,0-1.144.7c-.176.132-.345.263-.526.405s-.4.292-.6.431c-.329.218-.663.424-1.008.61-.263.142-.526.287-.768.445-.308.195-.626.374-.934.571-.187.121-.366.263-.547.384l-.442.3h0l-.31.213.042-.032c-.263.168-.508.321-.758.489h0l-.047.032.055-.04h0c-.789.526-1.657.96-2.452,1.5l.026-.018-.095.066c-.168.113-.345.213-.526.318s-.284.158-.426.242-.313.192-.466.295c-.279.189-.55.389-.816.6s-.479.355-.721.526c-.374.279-.737.576-1.121.842-.479.318-.992.584-1.494.863-.263.153-.542.316-.818.466a8.061,8.061,0,0,0-.695.413l.042-.029c-.116.076-.234.153-.342.239s-.247.21-.368.318a11.955,11.955,0,0,1-1.018.789c-.281.187-.574.358-.866.526s-.526.342-.813.508-.526.308-.789.455c-.224.121-.447.237-.663.368s-.487.3-.731.442a10.2,10.2,0,0,0-1.189.816c-.263.2-.505.413-.789.6l.034-.024-.074.05.034-.024-.2.137c-.287.189-.592.342-.889.526-.234.134-.466.281-.7.416-.295.166-.595.324-.884.5-.163.1-.308.218-.46.329h0a4.775,4.775,0,0,0-.863.442c-.145.105-.289.208-.431.318s-.284.263-.426.387l-.118.092c-.247.163-.508.308-.766.453-.132.074-.263.145-.395.221s-.279.174-.413.263a4.571,4.571,0,0,1-.439.263c-.308.147-.626.263-.939.408a4.42,4.42,0,0,0-.489.239c-.15.089-.3.184-.458.263-.358.182-.718.355-1.068.55a5.448,5.448,0,0,0-.542.334c-.087.063-.168.137-.263.2h-.026c-.337.163-.674.326-1,.505a10.131,10.131,0,0,0-.9.576h0l-.045.032h.016l-.489.334a.627.627,0,0,1-.089.055l-.053.024h-.068v-.137q-.071-1.092-.121-2.186c-.039-.842-.06-1.684-.084-2.526-.029-.979-.079-1.955-.113-2.931-.024-.655-.042-1.315-.058-1.968-.018-.605-.058-1.21-.1-1.815v.076c-.029-.474-.068-.942-.116-1.41-.034-.339-.066-.676-.089-1.015h0v-.066a.169.169,0,0,0,0,.034c-.026-.408-.045-.816-.05-1.226s-.034-.768-.063-1.15-.06-.729-.089-1.092-.071-.716-.095-1.076a.723.723,0,0,0,0,.076c-.029-.429-.047-.86-.076-1.289v.076c-.013-.171-.021-.342-.034-.526-.105-1.529-.381-3.039-.487-4.567v.076c-.026-.4-.045-.789-.071-1.2v.029a.8.8,0,0,0-.013-.176c-.018-.308-.029-.618-.05-.926s-.045-.658-.068-.987v.074c-.021-.295-.037-.592-.055-.887v-.016h0v-.06a.8.8,0,0,0-.013-.176v.074c-.024-.342-.045-.681-.079-1.021s-.084-.687-.113-1.031c-.021-.287-.039-.574-.068-.86s-.066-.618-.092-.929c-.034-.371-.066-.742-.105-1.113s-.095-.723-.137-1.084c-.087-.721-.15-1.442-.213-2.165-.074-.823-.15-1.647-.263-2.465-.095-.692-.168-1.389-.216-2.086-.047-.789-.074-1.555-.108-2.331-.026-.663-.053-1.315-.084-1.989-.037-.718-.105-1.436-.158-2.152-.05-.668-.121-1.334-.171-2-.021-.3-.034-.61-.058-.913s-.058-.613-.084-.918c-.042-.526-.1-1.039-.131-1.557v.018c-.039-.579-.095-1.155-.153-1.731s-.11-1.2-.16-1.794c-.095-1.131-.263-2.255-.353-3.386-.047-.76-.026-1.523-.047-2.286a19.577,19.577,0,0,0-.21-2.452c-.06-.392-.118-.789-.163-1.179s-.079-.766-.124-1.15-.1-.768-.145-1.155-.1-.789-.132-1.2c-.045-.7-.026-1.407-.026-2.1s0-1.476-.021-2.213A20.312,20.312,0,0,0,465,291.9c-.068-.466-.153-.931-.221-1.4s-.142-1.016-.205-1.523c-.045-.353-.1-.7-.137-1.052-.032-.287-.071-.573-.11-.86-.06-.453-.113-.905-.163-1.358-.042-.374-.087-.75-.116-1.126-.013-.205.129-3.175.129-4.138v-1.657c0-.608-.042-1.215-.076-1.82-.068-1.192-.179-2.368-.263-3.573l-.032-.442v.016l-.047-.7v.074c-.016-.226-.029-.455-.042-.684-.042-.689-.074-1.384-.116-2.076s-.076-1.447-.16-2.165c-.071-.6-.155-1.2-.208-1.8s-.137-1.265-.182-1.9-.071-1.315-.095-1.955c-.026-.731-.084-1.457-.134-2.186-.047-.789-.068-1.579-.108-2.368q-.105-1.944-.368-3.875c-.158-1.2-.263-2.4-.411-3.6q-.126-1.081-.242-2.168c-.068-.637-.124-1.276-.192-1.913-.061-.568-.11-1.142-.176-1.71s-.145-1.121-.187-1.681c-.1-1.579-.095-3.139-.224-4.7-.047-.595-.092-1.192-.139-1.786s-.121-1.244-.189-1.865-.11-1.171-.15-1.757v.034c-.032-.471-.058-.944-.089-1.418s-.076-.868-.126-1.315-.092-.831-.139-1.247c-.076-.7-.158-1.4-.208-2.1h0v-.045c-.024-.382-.047-.763-.058-1.144s-.037-.834-.055-1.25c-.034-.855-.121-1.707-.179-2.562-.034-.526-.055-1.052-.1-1.594s-.1-1.1-.137-1.652q0,.038,0,.076c-.026-.4-.055-.789-.084-1.2v.034c-.055-.879-.031-1.765-.029-2.644V213.5c.3.066.6.132.9.176,1.052.158,2.1.263,3.139.413.508.076,1.016.129,1.523.208s1.008.168,1.51.263c.708.147,1.413.308,2.123.434s1.376.21,2.057.347c.337.071.674.153,1.008.237s.705.195,1.068.263.66.092.992.134.7.108,1.052.176a15.037,15.037,0,0,1,1.689.476l.405.145a15.458,15.458,0,0,0,1.579.481c.552.134,1.113.245,1.673.35s1.071.15,1.607.21,1.008.132,1.51.229c.263.058.526.124.805.189.318.079.639.147.958.226.595.145,1.192.263,1.792.395.46.1.918.213,1.379.316,1.013.229,2.036.384,3.062.539q.789.118,1.579.263c.495.095.989.195,1.484.282,1.052.184,2.12.376,3.181.555s2.176.308,3.254.526h-.05l.063.013h0l.174.039q.737.168,1.468.368c.542.147,1.084.295,1.631.405s1.113.166,1.668.25c.263.039.526.087.789.129s.547.082.821.134c.234.05.468.1.7.158s.463.129.7.195c.474.137.96.226,1.444.326.3.063.595.132.894.2s.547.111.818.163h-.032l.053.013h0a11.3,11.3,0,0,1,1.271.339l-.034-.013.047.018H513l.166.063a.986.986,0,0,0,.145.061.659.659,0,0,0,.139.018.568.568,0,0,0,.458-.232h.018c.153-.082.305-.171.453-.263a4.548,4.548,0,0,0,.879-.65.558.558,0,1,0-.789-.789l-.076.074c-.1.084-.205.161-.31.234-.239.158-.487.308-.739.442-.242-.084-.492-.15-.737-.213-.431-.111-.866-.2-1.315-.287-.263-.053-.5-.111-.745-.166-.289-.066-.581-.121-.873-.182l.071.016c-.242-.05-.484-.1-.721-.16s-.442-.132-.663-.192-.5-.121-.755-.179-.481-.1-.723-.139c-.487-.076-.973-.163-1.463-.232s-.989-.126-1.479-.224c-.908-.2-1.8-.471-2.71-.687-.542-.132-1.092-.218-1.642-.308l-1.657-.263c-.526-.079-1.052-.179-1.592-.263s-1.037-.176-1.555-.263-1-.179-1.507-.263-1.081-.205-1.623-.295-1.094-.163-1.639-.263c-.46-.071-.921-.158-1.376-.25-.345-.074-.687-.158-1.029-.237-.384-.092-.771-.168-1.16-.247h.074c-.3-.061-.6-.124-.894-.189q-.773-.176-1.544-.371c-.492-.121-.984-.234-1.484-.311s-1.076-.134-1.613-.2-1.068-.163-1.6-.263c-.366-.074-.734-.147-1.094-.247s-.742-.218-1.107-.345h0a18.193,18.193,0,0,0-2.434-.721c-.4-.082-.789-.147-1.2-.2-.347-.042-.7-.084-1.052-.147-.395-.087-.789-.2-1.176-.3s-.808-.184-1.218-.263c-.831-.137-1.663-.263-2.489-.437-.558-.116-1.11-.242-1.671-.347s-1.052-.187-1.578-.263l-.739-.089c-.247-.034-.495-.074-.744-.1l-1.578-.205c-.51-.066-1.023-.124-1.529-.221-.187-.042-.376-.092-.566-.129,0-.263.016-.526.032-.789,0-.089.021-.179.021-.263a.553.553,0,0,0-1.1,0h0c-.071.981-.06,1.968-.06,2.949v1.681c0,.55.047,1.094.087,1.642,0-.025,0-.049,0-.074.058.865.142,1.728.2,2.594.034.5.05,1,.089,1.5s.082,1.016.118,1.523c.04.634.063,1.271.084,1.907s.06,1.221.118,1.828.137,1.268.2,1.9.168,1.344.213,2.023v0c.021.35.045.7.066,1.052a2.231,2.231,0,0,0,.021.371c.021.124.018.247.029.36s.024.263.034.408c.055.623.118,1.247.182,1.871s.113,1.2.158,1.807.092,1.131.134,1.7c.032.508.042,1.016.063,1.523.024.568.045,1.139.068,1.71s.071,1.218.147,1.826.134,1.144.187,1.718.113,1.152.171,1.731c.076.76.155,1.521.245,2.281.071.589.147,1.181.21,1.771s.118,1.134.184,1.7c.079.708.189,1.413.263,2.12.063.629.121,1.258.163,1.889s.063,1.221.089,1.842c.013.31.032.623.047.937s.047.674.074,1.01h0a.5.5,0,0,0,0,.063.146.146,0,0,1,0-.034l.032.568c.071,1.3.087,2.6.231,3.891.071.618.118,1.239.2,1.855.084.655.158,1.315.2,1.968.087,1.421.153,2.841.25,4.259a.673.673,0,0,1,0-.074l.016.237c.079,1.171.179,2.339.263,3.51v.213c.034.613.066,1.221.079,1.842,0,.552,0,1.1.013,1.657v1.934c0,.153-.168,1.723-.142,2.086,0-.026.137,1.6.245,2.439.029.213.055.424.087.637.05.342.079.684.124,1.023q.105.839.224,1.678c.076.542.171,1.079.263,1.621q.132.913.2,1.842c.034.526.037,1.052.039,1.578v2.284a12.3,12.3,0,0,0,.061,1.281c.045.429.1.86.15,1.289.042.366.1.731.139,1.1.045.434.084.871.142,1.315s.134.821.179,1.234.079.8.108,1.2c0,.179.016.355.021.526.024.808,0,1.615.055,2.42.05.747.153,1.486.234,2.228s.139,1.476.208,2.215.15,1.45.205,2.178c.066,1.021.187,2.042.263,3.065.1,1.484.245,2.965.347,4.449,0,.116.013.231.018.35.037.789.066,1.563.1,2.344.037.863.058,1.726.142,2.589.032.345.066.695.108,1.052s.095.71.137,1.052c.095.789.166,1.578.232,2.384.058.723.137,1.442.234,2.16s.147,1.429.218,2.144c.042.439.084.879.118,1.315.042.513.118,1.023.155,1.536,0,.182.024.366.037.55v.092c.032.471.061.939.092,1.41v-.076c.032.479.053.955.084,1.434v.163a.724.724,0,0,1,0-.076c.026.4.042.789.071,1.189.105,1.507.374,3,.481,4.5l.039.61v-.018c.021.339.034.679.058,1.018s.053.621.082.934c.047.526.092,1.052.126,1.6v-.018c.045.676.045,1.352.087,2.026s.134,1.35.184,2.028c0,.179.021.36.034.542v-.076c.034.526.066,1.026.084,1.539.018.581.029,1.165.05,1.747C469.24,360.878,469.269,361.7,469.309,362.525Z" transform="translate(-407.274 -191.402)" fill="#7f4b53"/>
      <path id="パス_9268" data-name="パス 9268" d="M495.417,710.794v-.074h0A.682.682,0,0,0,495.417,710.794Z" transform="translate(-434.773 -559.783)" fill="#7f4b53"/>
      <path id="パス_9269" data-name="パス 9269" d="M606.99,745.7h0l0,0Z" transform="translate(-516.994 -585.56)" fill="#7f4b53"/>
      <path id="パス_9270" data-name="パス 9270" d="M664.88,561.72Z" transform="translate(-559.655 -449.982)" fill="#7f4b53"/>
      <path id="パス_9271" data-name="パス 9271" d="M521.693,325.563a.56.56,0,0,0-.1-.789c-.053-.037-.1-.076-.153-.118s-.142-.137-.221-.195a2.289,2.289,0,0,0-.326-.2c-.113-.058-.226-.113-.342-.161s-.263-.095-.41-.142c-.263-.095-.526-.221-.789-.289a.874.874,0,0,1-.161-.031.442.442,0,0,0,0-.084c0-.479,0-.955-.032-1.436-.021-.418-.037-.839-.071-1.255-.037-.492-.084-.984-.126-1.476s-.1-1.01-.168-1.513c-.076-.568-.16-1.137-.2-1.707-.042-.689-.039-1.379-.084-2.065-.037-.613-.137-1.221-.179-1.842-.045-.789-.068-1.579-.084-2.368,0-.474,0-.95-.024-1.423s-.053-.929-.084-1.392v.076q-.071-1.1-.124-2.194c-.016-.339-.032-.679-.071-1.015-.026-.211-.053-.421-.068-.631s-.018-.408-.032-.613v.016c0-.155-.024-.308-.034-.46h0a.593.593,0,0,1,0-.066.137.137,0,0,0,0,.032v-.192h0v-.089c-.074-1.179-.121-2.355-.181-3.533q-.053-.979-.15-1.949c-.066-.626-.139-1.247-.184-1.873-.045-.713-.047-1.431-.121-2.144-.066-.634-.145-1.268-.189-1.9h0a.675.675,0,0,1,0-.074.173.173,0,0,0,0,.037c-.055-.858-.042-1.715-.079-2.573s0-1.739-.024-2.607c0-.476-.037-.952-.058-1.429-.024-.574-.026-1.144-.026-1.715v-1.484c0-.36-.055-.721-.084-1.079v-.029c-.05-.771-.071-1.542-.126-2.31-.021-.331-.05-.66-.092-.992-.053-.387-.108-.776-.139-1.163-.039-.671-.034-1.342-.045-2.013,0-.631-.032-1.263-.076-1.892,0,.025,0,.049,0,.074-.037-.6-.071-1.194-.113-1.792h0c-.024-.376-.045-.752-.071-1.129a.706.706,0,0,1,0,.074c-.018-.305-.037-.61-.053-.918s0-.623-.018-.937c0-.263,0-.5-.018-.752v-.894c0-1.052-.013-2.134,0-3.2v-1.129c0-.318-.018-.637-.045-.955-.021-.263-.116-1.294-.116-1.3h0v-.026c0-.184-.189-1.426-.2-1.894s-.039-.968-.053-1.45q-.039-1.579-.045-3.157c0-1.084-.032-2.165-.047-3.246s-.016-2.155-.016-3.231v-1.613c0-.537-.058-1.029-.095-1.542h0v-.037c-.034-.526-.055-1.052-.084-1.578-.026-.487-.053-.973-.068-1.46-.04-1.052-.024-2.089-.042-3.133,0-.5-.029-1-.034-1.5s0-1.052,0-1.6-.05-1.081-.066-1.623-.05-1.052-.074-1.579c-.055-1.118-.134-2.236-.2-3.354-.058-1.021-.05-2.042-.05-3.062V219.6a5.326,5.326,0,0,0-.026-.655c-.029-.263-.082-.539-.1-.813a5.42,5.42,0,0,0-.024-.618c-.024-.208-.053-.466-.074-.7-.026-.431-.016-.866-.016-1.3v-1.55c0-.46-.031-.921-.039-1.381-.013-1,0-2,0-3,0-.576,0-1.152-.045-1.728s-.034-1.2-.082-1.8c-.042-.526-.087-1.052-.142-1.594-.05-.453-.126-.9-.2-1.355a.712.712,0,0,0-.045-.145c.108-.1.221-.208.326-.316.318-.316.631-.637.921-.976a.552.552,0,0,0-.1-.773.56.56,0,0,0-.773.1l-.076.089c-.4.445-.823.868-1.263,1.271l-.113-.063A4.07,4.07,0,0,0,512,202c-.526-.129-1.052-.276-1.578-.426-.263-.076-.526-.161-.789-.232s-.526-.129-.808-.192-.589-.147-.887-.21-.623-.118-.934-.174-.566-.113-.85-.166-.56-.095-.842-.139c-.545-.087-1.092-.168-1.634-.263h0c-.492-.108-.976-.247-1.46-.387-.232-.068-.466-.132-.7-.195s-.453-.139-.681-.205c-.479-.139-.963-.263-1.444-.379s-.894-.263-1.339-.387c-.56-.174-1.134-.295-1.7-.429-.51-.121-1.021-.234-1.531-.345-1.147-.245-2.289-.526-3.441-.745h-.053c-.505-.108-1-.263-1.5-.379s-1.052-.242-1.578-.379c-1.15-.295-2.3-.595-3.473-.789-.571-.1-1.144-.174-1.721-.245-.51-.058-1.018-.124-1.523-.226s-.95-.234-1.423-.358-.968-.226-1.455-.321l.074.013a17.714,17.714,0,0,1-1.786-.51c-.505-.16-1.018-.287-1.534-.421s-1.037-.281-1.55-.447l-.852-.279c-.263-.084-.526-.182-.789-.263-.558-.15-1.121-.263-1.686-.384q-.758-.163-1.5-.384c-.495-.15-.981-.31-1.471-.463-1.052-.326-2.086-.631-3.157-.908s-2.186-.608-3.307-.789-2.32-.247-3.467-.468c-.35-.071-.7-.163-1.052-.263-.3-.079-.605-.145-.913-.2-.608-.118-1.218-.2-1.826-.321l-.337-.076a.55.55,0,1,0-.292,1.052c.439.105.887.181,1.334.263.4.063.789.137,1.184.216s.816.205,1.226.305a15.059,15.059,0,0,0,1.494.263c.505.071,1.015.118,1.526.179.471.053.936.126,1.4.213.847.174,1.678.413,2.515.634.547.145,1.092.287,1.634.445.595.171,1.184.353,1.773.526.526.166,1.052.342,1.594.5s1.144.295,1.723.413l-.071-.013c.347.071.692.15,1.036.234s.637.179.95.287c.542.182,1.084.363,1.631.526s1.052.279,1.579.416.96.281,1.434.434c.263.087.544.174.823.239s.587.126.881.187h-.037l.163.034c.245.055.492.113.737.176s.526.15.81.216c.513.124,1.029.234,1.552.31s1.084.129,1.623.205c.595.082,1.187.189,1.773.308,1.052.221,2.06.526,3.1.758.526.118,1.037.247,1.552.379.263.066.526.139.789.2s.5.1.747.15c.463.1.923.21,1.386.31l1.315.287c.526.113,1.052.226,1.56.35.568.137,1.142.25,1.7.424.526.158,1.034.31,1.557.447.279.071.558.137.837.21s.576.163.863.263c.247.079.495.142.744.21s.56.166.845.242.589.158.886.221.574.105.86.153c.566.089,1.131.174,1.694.276l.844.166c.289.053.581.105.871.163.413.087.818.195,1.229.289s.789.213,1.171.324c.321.092.642.187.963.263.363.092.732.171,1.089.281l.147.061c.053.029.105.058.155.089a.553.553,0,0,0,.426.2h.06c.063.366.124.734.158,1.1.05.526.1,1.052.139,1.578s.04,1.008.066,1.513.05,1,.053,1.5v2.665c0,.455,0,.91.024,1.365.021.526.021,1.052.021,1.592v1.515a5.5,5.5,0,0,0,.026.658c.016.142.042.284.055.426.016.276,0,.555.037.831s.079.545.1.821c.042.752.026,1.507.026,2.262v4.023c0,.505.045,1.076.079,1.613.066,1.1.124,2.21.184,3.317.032.526.045,1.052.071,1.594s.05,1.094.05,1.644v1.494c0,.5.026,1.029.034,1.542,0,1.071,0,2.139.063,3.207s.1,2.1.182,3.17c.045.718.045,1.436.045,2.157v3.228c0,1.076.042,2.152.05,3.231s.021,2.134.042,3.2c0,.474.042.944.053,1.418s.2,2.1.2,2.131a1.169,1.169,0,0,0,.026.263.493.493,0,0,1,0,.066c0,.176.016.352.032.526.021.231.05.463.068.7.047.771.026,1.539.026,2.313v3.507c0,.234.021.468.024.7v.868c.013.552.06,1.1.1,1.657v-.037c.013.2.021.405.034.61s.032.392.045.587c.032.46.053.921.082,1.381.071,1.073.042,2.155.084,3.231.021.542.082,1.076.153,1.615.05.389.084.789.113,1.176a.757.757,0,0,1,0-.076c.039.576.063,1.155.092,1.734,0,.263.026.526.05.789.018.192.039.384.052.576.021.374.016.75.018,1.123v1.347c0,.874.082,1.747.087,2.631v1.878c0,.3.024.6.032.9s0,.621.016.931c.013.595.037,1.186.092,1.778s.131,1.158.176,1.736v0c.053.789.071,1.578.137,2.368.06.737.168,1.465.224,2.2.105,1.578.153,3.157.263,4.735a.691.691,0,0,0,0-.076c.016.226.034.45.05.676h0v.024c.018.276.024.555.05.831s.068.579.09.871c.066,1.013.105,2.026.176,3.036v-.074c.04.621.068,1.239.074,1.863s.018,1.194.039,1.792c.018.492.034.984.076,1.473s.113.934.15,1.4c.016.263.029.508.037.763.018.6.024,1.2.082,1.8s.145,1.139.216,1.707c.121.966.205,1.939.263,2.91.053.789.082,1.579.082,2.368a.239.239,0,0,1-.024.339.669.669,0,0,0-.11.082l-.055.053c-.147.126-.3.247-.437.384s-.282.292-.434.426l.053-.047c-.1.087-.192.179-.287.263a14.68,14.68,0,0,1-1.508,1.1c-.671.45-1.378.847-2.047,1.3l-.526.339c-.284.182-.566.371-.858.539-.413.237-.821.476-1.229.721-.447.263-.881.558-1.315.845s-.831.526-1.244.789-.789.526-1.189.789c-.279.187-.563.368-.834.566s-.55.392-.821.595c-.481.36-.942.758-1.437,1.1h0l-.05.034a.189.189,0,0,1,.037-.026c-.153.1-.308.2-.468.287-.376.208-.747.424-1.118.637-.445.263-.873.539-1.315.813s-.879.555-1.315.823-.9.587-1.344.889c-.489.326-1.013.592-1.51.905a6.511,6.511,0,0,0-.724.526c-.237.192-.416.295-.624.437l.058-.039c-.331.224-.65.46-.966.705s-.581.455-.887.66c-.555.36-1.126.692-1.657,1.089-.287.216-.576.426-.866.639s-.526.387-.789.571c-.337.226-.679.445-1.031.65s-.66.41-.984.626c-.708.476-1.35,1.052-2.052,1.521h0c-.439.3-.9.566-1.336.866-.211.145-.421.287-.626.439s-.334.263-.5.4c-.342.263-.7.526-1.052.789-.3.2-.613.382-.921.563-.463.263-.945.526-1.392.823s-.889.6-1.315.915-.86.655-1.315.958-.9.631-1.352.942c-.195.129-.4.263-.592.384l-.489.345c-.389.263-.789.545-1.176.81l.06-.037c-.224.147-.45.295-.671.447s-.355.263-.526.379h-.016l-.339.216a2.631,2.631,0,0,0-.329.216l-.026.016c-.208.137-.421.263-.626.408-.442.295-.892.571-1.342.847-.389.237-.766.495-1.173.7l.066-.032a4.279,4.279,0,0,0-.613.371c-.205.147-.4.308-.61.453s-.376.229-.56.347l-.4.263c-.079.037-.16.063-.239.1a.736.736,0,0,0-.19.132.493.493,0,0,0-.176-.039q-.039-.4-.071-.789v-.1a.552.552,0,1,0-1.1,0c0,.179.021.358.037.526q.029.332.063.663c.037.392.084.789.113,1.181s.029.747.066,1.121c.024.2.039.4.055.605a2.051,2.051,0,0,0,.024.384.723.723,0,0,1,0-.076v1.318a.552.552,0,0,0,1.1,0c0-.484.021-.973-.013-1.457v.074c0-.166-.018-.331-.029-.5-.018-.242-.05-.487-.066-.729v.074c-.026-.405-.047-.81-.079-1.215a.339.339,0,0,1,.437-.071.541.541,0,0,0,.347-.126c.087-.037.174-.071.263-.116.179-.092.342-.213.526-.318.237-.147.473-.284.7-.45s.379-.289.574-.429a3.133,3.133,0,0,1,.3-.176c.553-.282,1.068-.634,1.6-.955.313-.192.621-.389.926-.592.263-.171.526-.331.771-.5l.039-.026h0c.226-.15.46-.287.684-.442s.382-.263.571-.4c.405-.263.813-.526,1.213-.821.355-.25.71-.5,1.068-.747.182-.121.371-.232.55-.355l.568-.4c.368-.263.747-.51,1.115-.773s.721-.55,1.094-.81l1.052-.726c.424-.281.873-.526,1.315-.789s.879-.526,1.294-.805q.537-.395,1.052-.789c.345-.263.716-.526,1.084-.789h0l.024-.016.034-.024h0c.363-.242.742-.46,1.1-.705h0l.042-.029.163-.11c.1-.068.192-.134.287-.205.195-.142.387-.289.576-.439.324-.263.647-.505.987-.739h0l.058-.039-.029.021c.334-.224.668-.442,1.015-.642s.713-.439,1.052-.676c.687-.471,1.334-1,2.015-1.473.505-.337,1.037-.634,1.529-.992s.944-.745,1.442-1.084l-.058.039c.234-.155.468-.31.695-.476s.384-.292.581-.429c.384-.263.789-.468,1.187-.705s.789-.526,1.176-.789h-.013c.487-.326.992-.621,1.489-.931s.995-.629,1.492-.939c.389-.239.789-.46,1.184-.684.184-.105.371-.2.547-.316s.405-.263.6-.416c.737-.571,1.463-1.15,2.231-1.676l-.026.018.034-.024.024-.016h0l.9-.6-.058.039c.445-.3.9-.579,1.36-.86s.879-.568,1.315-.855.808-.5,1.215-.745.85-.466,1.271-.729c.31-.2.621-.4.929-.605l-.037.024c.387-.263.789-.495,1.187-.739s.831-.526,1.239-.816c.3-.2.6-.405.879-.637.195-.16.381-.329.568-.5h0c.21-.189.4-.4.61-.589.11-.1.229-.189.337-.292a.572.572,0,0,0,.05-.06,1.3,1.3,0,0,1,.245.034l.126.034c.142.053.279.113.421.166s.3.108.455.16a3.347,3.347,0,0,1,.358.158c.039.021.079.042.116.066l.066.047a3.809,3.809,0,0,0,.334.284.558.558,0,0,0,.773-.1Z" transform="translate(-403.324 -174.747)" fill="#7f4b53"/>
      <path id="パス_9272" data-name="パス 9272" d="M721.667,707.31a.274.274,0,0,0,0,.045v.029A.674.674,0,0,1,721.667,707.31Z" transform="translate(-601.501 -557.27)" fill="#7f4b53"/>
      <path id="パス_9273" data-name="パス 9273" d="M721.08,695.4Z" transform="translate(-601.069 -548.493)" fill="#7f4b53"/>
      <path id="パス_9274" data-name="パス 9274" d="M385.121,288.254c0-.392-.018-.789-.042-1.173-.032-.455-.06-.91-.092-1.363v.026c-.037-.61-.024-1.223-.066-1.842-.058-.816-.176-1.628-.237-2.447-.018-.292-.026-.584-.042-.879s-.042-.663-.066-1c-.042-.6-.108-1.194-.147-1.792-.037-.526-.084-1.052-.145-1.56-.05-.426-.1-.855-.134-1.284-.045-.676-.021-1.352-.069-2.028-.058-.852-.176-1.7-.234-2.552v.074c-.026-.392-.053-.789-.071-1.184-.021-.452-.029-.9-.045-1.36-.037-.955-.14-1.907-.208-2.862-.034-.526-.039-1.052-.066-1.579s-.058-.984-.09-1.473v.074c-.037-.542-.055-1.084-.113-1.623-.053-.5-.132-.989-.168-1.489-.024-.347-.037-.692-.058-1.052s-.05-.631-.074-.947v.018c-.047-.726-.05-1.45-.082-2.176-.029-.642-.021-1.284-.042-1.926s-.037-1.36-.071-2.039-.066-1.281-.1-1.92c-.042-.729-.074-1.457-.087-2.186s-.058-1.476-.108-2.213h0v-.045c-.05-.789-.061-1.6-.055-2.4v-2.278c0-1.408.018-2.818-.026-4.209-.018-.695-.039-1.392-.071-2.084-.024-.5-.037-1-.04-1.5,0-.629-.026-1.252-.055-1.878s-.037-1.242-.084-1.86c-.045-.571-.124-1.139-.2-1.71s-.116-1.068-.153-1.607c-.024-.381-.029-.76-.045-1.142q-.032-.7-.055-1.4c-.045-1.284-.05-2.568-.063-3.852,0-.642-.037-1.284-.04-1.926,0-.726-.026-1.455-.042-2.181,0-.4-.032-.789-.042-1.2v-2.86c0-.552-.018-1.1-.034-1.657,0-.316-.013-.631-.026-.947s-.032-.558-.05-.837v.074c-.024-.395-.045-.789-.071-1.186v.076c-.018-.287-.031-.576-.055-.86-.016-.221-.04-.439-.058-.658a15.735,15.735,0,0,0-.145-2.226l.016.074a.679.679,0,0,0-.034-.158l.016.071a4.219,4.219,0,0,1-.079-.571c0-.182-.234-1.144-.247-1.231-.037-.229-.108-.455-.158-.681a3.775,3.775,0,0,1-.053-.421,5.614,5.614,0,0,1-.016-.629c.018-.195.053-.389.071-.581s.031-.413.039-.618c.016-.405.018-.805.018-1.208s0-.855-.039-1.284-.053-.926-.084-1.386v.074l-.016-.226v.026c-.045-.689-.079-1.379-.121-2.07s-.124-1.336-.171-2.007h0v-.018c-.031-.526-.037-1.052-.055-1.579-.018-.468-.034-.939-.053-1.41-.018-.526-.026-1.052-.032-1.592s-.029-1.029-.05-1.542-.037-1.052-.047-1.578c-.013-.584-.05-1.163-.063-1.744,0-.526-.018-1.076,0-1.613s.024-1.066.026-1.6c0-1.052.019-2.118.021-3.175V170.2c-.026-1.079-.087-2.155-.1-3.233,0-.263,0-.526-.018-.789s-.042-.547-.071-.818c-.055-.545-.137-1.087-.2-1.631s-.147-1.052-.232-1.563-.145-.981-.21-1.473-.113-.966-.21-1.442-.132-.968-.526-1.26a.566.566,0,0,0-.463-.095.151.151,0,0,0-.05,0h-.079c-.158-.037-.316-.084-.473-.124l-.558-.153c-.584-.158-1.171-.316-1.757-.466-.289-.074-.584-.142-.873-.221s-.626-.187-.937-.284c-.571-.182-1.147-.347-1.723-.526-.3-.087-.595-.182-.892-.279s-.545-.166-.816-.263c-.35-.126-.692-.263-1.039-.4-.681-.242-1.379-.426-2.065-.642s-1.334-.434-2.007-.634c-.318-.095-.639-.179-.96-.263s-.595-.174-.894-.247c-.663-.168-1.315-.347-1.968-.568-.765-.263-1.515-.587-2.286-.847-.374-.129-.744-.263-1.123-.374s-.758-.218-1.134-.334c-.634-.192-1.268-.384-1.9-.6s-1.331-.416-2-.592c-1.286-.339-2.578-.666-3.838-1.1h.024l-.042-.016h-.011c-.35-.126-.7-.263-1.052-.371s-.789-.232-1.163-.342-.789-.263-1.173-.384-.718-.232-1.081-.337c-.3-.084-.608-.155-.91-.232s-.624-.16-.937-.242c-.692-.184-1.387-.358-2.073-.555s-1.4-.374-2.1-.539c-.345-.079-.695-.155-1.052-.245s-.671-.192-1-.305H336c-.468-.163-.937-.329-1.41-.481s-.96-.284-1.442-.418c-.947-.263-1.9-.5-2.857-.742-1.284-.326-2.565-.668-3.849-.992-.645-.163-1.281-.342-1.928-.5-.329-.079-.663-.153-.992-.239s-.618-.182-.923-.287c-.479-.168-.955-.347-1.434-.508s-1-.318-1.508-.463c-1.052-.3-2.1-.618-3.157-.884-.6-.147-1.2-.263-1.8-.416-.652-.15-1.294-.342-1.941-.526s-1.363-.371-2.049-.526c-.626-.153-1.247-.316-1.857-.526-.471-.168-.931-.374-1.407-.526a7.514,7.514,0,0,0-1.4-.318.7.7,0,0,0-.337-.066.5.5,0,0,0-.166.029.619.619,0,0,0-.139,0,6.492,6.492,0,0,0-1.287.376c-.437.147-.881.263-1.315.4s-.908.3-1.36.46a9.754,9.754,0,0,1-1.052.292c-.292.06-.592.095-.884.16a4.708,4.708,0,0,0-.766.263c-.482.213-.958.453-1.455.631-.158.047-.316.084-.474.126s-.263.076-.4.108l-.218.037a.545.545,0,0,0-.484.789c0,.105-.013.21-.018.308-.013.289-.016.576-.018.866v1.694c0,1.315-.013,2.618.071,3.923.024.35.05.7.105,1.052.045.263.089.545.132.816.108.713.174,1.431.263,2.144s.145,1.423.221,2.136.155,1.379.208,2.07h0a.255.255,0,0,0,0,.045v-.029a1.077,1.077,0,0,0,.013.205c.021.41.029.821.055,1.231s.071.789.121,1.171.108.789.163,1.171c.042.321.105.639.155.958.113.713.179,1.431.263,2.147.105.821.2,1.647.263,2.473v-.074c0,.15.018.3.029.45v-.074c.018.282.037.566.05.85.074,1.757.018,3.52.108,5.28.042.876.168,1.747.263,2.618.11.913.189,1.842.263,2.747s.124,1.868.216,2.8c.079.789.161,1.578.218,2.368h0v.026c.034.526.06,1.037.095,1.552.016.263.037.526.053.789h0a3.225,3.225,0,0,0,.026.358c0,.121.018.242.029.363.018.224.037.447.053.674.021.313.045.629.066.942q0-.037,0-.074c0,.124.018.247.026.368a22.329,22.329,0,0,0,.289,2.334c.129.705.263,1.408.392,2.1.084.458.174.913.247,1.371s.132.881.184,1.315c.04.326.071.652.1.981s.071.608.1.913c.037.374.063.745.1,1.115.034.318.082.634.118.952.071.616.124,1.234.2,1.842.134,1.1.284,2.191.4,3.291.137,1.315.224,2.631.381,3.946.084.689.163,1.384.242,2.076.068.6.134,1.2.179,1.8s.089,1.171.129,1.76c.016.263.026.508.039.76.034.579.045,1.158.053,1.736,0,.629.045,1.258.09,1.884.042.547.084,1.092.15,1.639.034.263.066.526.1.789.029.218.066.437.092.655.05.426.087.852.126,1.279.055.563.108,1.126.15,1.689.042.61.1,1.221.163,1.842.055.56.105,1.121.145,1.681.066,1.023.116,2.049.121,3.075v1.029c0,.342.013.731,0,1.094-.024.284-.068.566-.087.85a.5.5,0,0,0-.034.126.425.425,0,0,0,0,.1.606.606,0,0,0-.166.082,4.164,4.164,0,0,0-.416.392c-.1.1-.2.2-.308.295-.35.308-.708.608-1.052.918l.053-.047c-.263.231-.526.46-.789.7s-.492.468-.737.708c-.484.474-.989.929-1.5,1.379s-1.031.873-1.521,1.342-.934.884-1.415,1.315c-.332.287-.689.526-1.034.789s-.75.592-1.1.91-.705.666-1.052,1-.684.647-1.052.958l.055-.047c-.639.558-1.276,1.115-1.9,1.684s-1.21,1.126-1.828,1.676c-.289.263-.592.5-.887.752s-.621.547-.918.831c-.526.505-1.052,1.021-1.578,1.507-.358.31-.742.584-1.118.871s-.734.587-1.089.895-.755.671-1.118,1.023c-.176.168-.35.345-.526.526s-.429.387-.639.581c-.342.318-.679.639-1.023.95-.455.395-.942.747-1.4,1.126s-.937.789-1.376,1.2c-.387.371-.742.771-1.118,1.15s-.726.713-1.079,1.079c-.176.182-.347.368-.526.547l-.526.526c-.176.176-.371.382-.552.579s-.3.342-.471.5a1.573,1.573,0,0,0-.216.2.6.6,0,0,0-.129.374.618.618,0,0,0,.013.121.811.811,0,0,0-.045.134.939.939,0,0,1-.026.092l-.332.9.024-.068c-.118.337-.234.671-.35,1.008h0c-.466,1.315-.9,2.66-1.357,3.986-.124.353-.247.705-.384,1.052s-.305.71-.442,1.073-.263.773-.4,1.16-.263.829-.4,1.242c-.142.466-.263.931-.376,1.407s-.263,1-.395,1.5-.287.979-.45,1.463-.284.929-.439,1.389a.1.1,0,0,1,0-.026l-.013.037v.005c-.237.663-.5,1.315-.7,1.994-.1.332-.176.671-.245,1.01-.026.137-.047.263-.071.41a1.313,1.313,0,0,0-.024.205.527.527,0,0,0,.045.213.476.476,0,0,0,0,.089.963.963,0,0,0,.068.31c.031.1.063.195.1.289a4.131,4.131,0,0,0,.245.539.526.526,0,0,0,.226.21.552.552,0,0,0,.46.263h.479c.2,0,.4-.039.6-.055l.332-.021c.342-.024.681-.1,1.023-.139.263-.029.539-.053.808-.095.211-.032.418-.071.629-.108s.471-.089.708-.129.545-.079.821-.116c.458-.058.918-.121,1.379-.155s.845-.05,1.265-.082.831-.082,1.247-.113c.813-.053,1.615-.2,2.426-.263.852-.066,1.7-.2,2.549-.263.673-.037,1.347-.034,2.018-.076.884-.061,1.755-.189,2.631-.31.445-.063.887-.132,1.329-.205.347-.058.689-.139,1.031-.211H287.3a1.782,1.782,0,0,0,.431-.118.624.624,0,0,0,.31-.355,1.962,1.962,0,0,0,.376-.263,7.164,7.164,0,0,0,.676-.618c.213-.213.437-.416.639-.637s.413-.46.616-.692h0a15.536,15.536,0,0,1,1.229-1.268c.376-.329.755-.652,1.11-1.008.176-.174.352-.35.526-.526s.321-.342.474-.526h0l.032-.037-.013.016c.155-.171.313-.342.463-.526.063-.074.126-.145.187-.218l.087-.121c.2.171.4.342.6.526l-.055-.045c.366.324.726.658,1.081.992s.7.66,1.071.958a10.45,10.45,0,0,0,1.2.8,5.627,5.627,0,0,0,.631.342,8.423,8.423,0,0,0,.789.3,5.583,5.583,0,0,0,1.379.234c.263.016.526.024.776.026h.037a3.193,3.193,0,0,0,.689-.06.434.434,0,0,0,.139-.058h.145a2.606,2.606,0,0,0,.405-.039l.289-.042c.11.071.224.139.337.208.263.16.526.321.789.466.174.092.35.184.526.287s.363.2.547.289c.263.139.545.289.813.434l.2.1a.565.565,0,0,0,.105.053c.058.029.118.055.176.087l.142.076a1.846,1.846,0,0,0,.237.092l.037.016.032.021a.5.5,0,0,0,.126.058c0,.176.016.353.029.526.016.263.042.526.06.808v-.076c.045.673.139,1.342.189,2.015.066,1.031.089,2.065.137,3.1.024.434.045.868.092,1.315a14.937,14.937,0,0,0,.263,1.515,5.456,5.456,0,0,1,.1.716h0a.507.507,0,0,1,0,.063v-.053c.029.474.026.947.047,1.421a4.833,4.833,0,0,0,.071.618c.026.205.05.452.066.681v.058h0c.029.387.079.768.108,1.155.018.263.045.552.063.829h0a.64.64,0,0,1,0,.068v-.05c.021.381.034.763.042,1.144s0,.7.031,1.052c.047.581.15,1.155.189,1.739.045.789,0,1.607.039,2.41a10.567,10.567,0,0,0,.158,1.189c.06.342.15.676.224,1.013q.06.312.089.629c.021.384.018.766.034,1.15.024.455.079.9.11,1.357.013.187.021.376.029.566,0,.263.05.508.068.76.034.631.032,1.265.037,1.9a7.19,7.19,0,0,0,.095,1c.068.45.113.9.147,1.357.026.4.037.805.037,1.208s0,.758.037,1.134c.079.789.132,1.6.218,2.4.058.526.155,1.034.237,1.552s.134,1,.179,1.5c.021.226.037.453.066.679q.081.6.158,1.2c.045.366.105.731.153,1.1.032.263.087.505.139.758h0c.045.218.089.437.121.658s.047.442.063.666a1.118,1.118,0,0,0,.013.208v.066h0v.118h0v.074h0c.026.353.079.705.105,1.052s.034.771.066,1.158a10.69,10.69,0,0,0,.139,1.115c.063.35.1.705.15,1.052.018.121.037.242.061.363s.058.263.087.392.031.192.047.289a1.451,1.451,0,0,0,.082.3,1.362,1.362,0,0,0,.118.263.62.62,0,0,0,.06.079,2.23,2.23,0,0,0,.3.363,2.568,2.568,0,0,0,.337.318c.1.071.205.134.308.2l-.029-.018a3.07,3.07,0,0,0,.976.395c.308.076.626.129.929.226a2.994,2.994,0,0,1,.3.129c.276.142.547.289.834.41.392.168.789.31,1.2.45a14.974,14.974,0,0,0,1.508.442c.526.118,1.034.245,1.557.334.4.066.789.11,1.192.153.16.018.321.037.481.045h.087a.636.636,0,0,0,.2-.026,1.225,1.225,0,0,0,.21-.087,6.546,6.546,0,0,0,.876-.526c.416-.295.823-.6,1.231-.908.189-.142.387-.279.576-.424s.395-.31.592-.463c.424-.334.842-.674,1.247-1.031l-.053.047c.245-.213.5-.416.747-.616s.466-.363.713-.526h0a19.721,19.721,0,0,0,1.615-1.226c.245-.208.489-.413.752-.6s.558-.392.839-.584h0c.263-.181.526-.366.789-.55l-.061.037.566-.376h0l.05-.034h0c.263-.168.508-.329.758-.5l.692-.476q.566-.379,1.142-.745c.382-.247.766-.489,1.129-.76.563-.416,1.087-.884,1.644-1.315s1.068-.789,1.592-1.194c.263-.208.526-.429.789-.639s.45-.355.679-.526.455-.363.692-.526.526-.379.789-.56c.347-.232.708-.439,1.052-.671s.7-.526,1.052-.773.694-.492,1.052-.734.66-.46.994-.687l-.034.021c.647-.437,1.279-.884,1.9-1.363.3-.232.605-.466.915-.689s.7-.5,1.034-.763c.526-.418,1.031-.86,1.547-1.289s1.118-.813,1.676-1.218l.734-.526c.263-.192.539-.374.8-.571.51-.382,1.029-.755,1.555-1.113h0c.431-.289.876-.558,1.3-.86s.813-.6,1.231-.881c.6-.4,1.244-.737,1.842-1.147.647-.45,1.287-.913,1.936-1.357.439-.292.884-.571,1.315-.873s.816-.592,1.215-.9.763-.605,1.158-.892.789-.552,1.181-.837c1.105-.789,2.134-1.692,3.228-2.5.571-.424,1.15-.831,1.723-1.244s1.155-.863,1.75-1.268h0c.113-.076.226-.153.342-.226.55-.366,1.1-.731,1.634-1.126s1.065-.813,1.615-1.2c.492-.345.981-.689,1.476-1.029.539-.371,1.052-.768,1.6-1.139s1.034-.637,1.536-.976h0l.339-.239h0l.042-.029h.018a1.212,1.212,0,0,0,.263-.337c.095-.139.652-.7.7-.789a1.152,1.152,0,0,0,.126-.526v-.526c0-.171.016-.337.021-.5A5.427,5.427,0,0,1,385.121,288.254Zm-119.071-6.019c.018-.124.039-.247.063-.368a15.056,15.056,0,0,1,.468-1.613c.189-.526.4-1.052.573-1.61.076-.242.147-.487.224-.729s.16-.479.237-.718c.158-.492.295-.992.434-1.489s.245-.989.366-1.484.263-.968.429-1.447q.247-.789.526-1.552c.032-.087.063-.176.1-.263.184-.471.392-.931.566-1.408s.339-.96.505-1.442c.331-.966.65-1.936.981-2.894h0c.108-.31.213-.621.321-.934h0v-.013h0l.324-.937h0l.024-.063a.05.05,0,0,1-.013.034,3.918,3.918,0,0,0,.187-.589.527.527,0,0,0,0-.155l.1-.089c.118-.116.226-.237.339-.358.347-.376.705-.742,1.068-1.1s.674-.718,1.023-1.052.75-.718,1.1-1.1a15.482,15.482,0,0,1,1.108-1.092c.321-.281.645-.563.981-.826.4-.313.8-.618,1.189-.947s.755-.684,1.126-1.031c.2-.192.413-.374.618-.56s.368-.355.55-.526c.347-.339.708-.663,1.068-.987l.263-.231c.353-.3.708-.587,1.079-.863a14.364,14.364,0,0,0,1.147-.926c.7-.631,1.347-1.315,2.049-1.939.358-.31.726-.608,1.084-.921s.7-.621,1.039-.942c.713-.666,1.436-1.315,2.168-1.965l-.053.047c.232-.205.471-.405.7-.613s.447-.413.671-.618c.452-.421.889-.863,1.35-1.273.326-.284.666-.558,1.01-.823s.676-.489.992-.766c.358-.313.713-.634,1.052-.963s.642-.618.973-.913l.881-.758c.326-.279.639-.571.955-.86s.605-.563.9-.852.56-.526.852-.789l.624-.547-.053.047c.332-.292.676-.568,1-.868.042-.039.084-.082.124-.124.013.2.024.405.042.608a2.206,2.206,0,0,0,.021.232.51.51,0,0,0-.232.171h0l-.024.018-.037.034-.045.034c-.237.182-.489.347-.729.526-.413.308-.805.639-1.2.966-.773.634-1.5,1.329-2.244,1.992h0l-.032.029.021-.018c-.474.41-.95.816-1.421,1.229h0c-.381.334-.75.673-1.116,1.023-.726.7-1.458,1.392-2.2,2.068q-.589.526-1.165,1.073c-.382.363-.755.734-1.15,1.081-.324.281-.658.552-.989.823-.408.337-.821.668-1.226,1.01-.213.179-.421.363-.639.526-.176.142-.355.284-.526.431-.737.624-1.421,1.315-2.144,1.944h0c-.387.339-.771.687-1.131,1.052s-.724.718-1.1,1.052c-.526.455-1.068.876-1.579,1.331-.15.132-.3.263-.445.4-.4.371-.789.752-1.189,1.126s-.789.713-1.163,1.073c-.8.755-1.492,1.61-2.257,2.4q-.545.563-1.115,1.1c-.382.358-.789.7-1.16,1.052s-.737.744-1.1,1.123-.705.705-1.079,1.039l-.029.024h.016a5.1,5.1,0,0,1-.332.479l-.092.189.021-.045a10.092,10.092,0,0,0-.526,1.168q-.116.324-.205.655c-.055.2-.09.408-.132.613s-.1.489-.174.729c-.09.3-.181.6-.263.9-.176.581-.352,1.165-.55,1.742v-.018c-.087.25-.168.5-.263.75s-.182.508-.263.76c-.079.213-.147.429-.221.645-.263.713-.592,1.4-.889,2.1-.15.345-.3.692-.437,1.052s-.242.713-.366,1.068v-.024c-.063.174-.121.35-.179.526-.145.445-.3.881-.424,1.331l-.355,1.315c-.118.439-.226.887-.366,1.315-.118.368-.242.737-.368,1.1h0a.227.227,0,0,0-.013.039v.029h0c-.089.263-.184.526-.263.771l.021-.068a6.27,6.27,0,0,1-.289.684h0v-.021c-.021-.058-.042-.118-.058-.179a.431.431,0,0,0-.034-.113.673.673,0,0,0,0-.071A.461.461,0,0,1,266.049,282.235Zm18.111-29.892.05-.045-.053.05h0Zm9.126,22.428c-.184.21-.371.416-.555.626.016-.018.029-.037.045-.053-.242.263-.505.526-.763.789s-.471.463-.716.681c-.31.263-.623.526-.913.821-.332.331-.647.681-.958,1.034l.047-.053c-.245.276-.487.558-.747.818l-.4.392c-.134.132-.263.263-.4.392a2.2,2.2,0,0,1-.347.263l-.053.034a.56.56,0,0,0-.25.324h-.013a.739.739,0,0,1-.1.026l.071-.013-.892.184h.071c-.687.137-1.381.224-2.073.318s-1.365.192-2.052.239h-.026c-.231.016-.466.029-.7.034-.526,0-1.052.018-1.578.063l-.676.063c-.292.026-.584.076-.879.108-.513.055-1.029.087-1.542.145s-.968.137-1.455.174c-.631.045-1.26.118-1.892.16h0c-.282.016-.563.029-.842.047-.234.016-.466.045-.7.074l-.747.089c-.276.037-.553.071-.826.118l-.692.124c-.213.039-.426.082-.642.113-.263.037-.526.063-.789.092-.326.037-.645.108-.971.134h-.171l.024-.05c.113-.245.208-.495.3-.752s.213-.595.316-.894c.132-.387.263-.789.379-1.171q.182-.671.36-1.342c.113-.439.231-.873.358-1.315.066-.221.142-.437.216-.652s.16-.5.247-.75h0c.108-.313.21-.626.318-.939s.239-.605.366-.9.281-.642.424-.963.289-.658.426-.992.226-.616.331-.923.2-.552.3-.829.184-.542.276-.816a.148.148,0,0,1,0,.032c.239-.687.447-1.386.663-2.078.1-.324.208-.65.289-.979s.126-.587.184-.881a5.837,5.837,0,0,1,.195-.689v0l.013-.045a.27.27,0,0,1-.013.042,8.963,8.963,0,0,1,.421-.963.081.081,0,0,0,0,.021l.139-.281h0a.556.556,0,0,0,.068-.168l.068-.058.331-.3c.392-.358.76-.745,1.123-1.134.174-.187.347-.381.526-.555s.374-.339.563-.51a31.005,31.005,0,0,0,2.294-2.223c.381-.418.755-.845,1.139-1.26s.724-.731,1.1-1.081.8-.734,1.2-1.1.755-.726,1.147-1.079h0l.047-.039h0c.539-.466,1.1-.9,1.634-1.373.724-.642,1.376-1.352,2.1-1.992l-.021.018.047-.042h0c.287-.263.573-.5.85-.763s.573-.55.871-.816l-.037.032.047-.039h0c.353-.305.713-.595,1.073-.889.211-.174.416-.358.626-.526s.418-.345.629-.526c.789-.65,1.6-1.292,2.331-2.007.389-.381.789-.75,1.187-1.121s.808-.726,1.2-1.1c.337-.313.666-.637,1-.955.395-.374.789-.76,1.192-1.121l-.053.045.731-.642h0c.505-.437,1.018-.866,1.51-1.315q.629-.574,1.265-1.137c.279-.242.571-.476.858-.713.242-.2.482-.395.731-.581.181-.137.371-.263.555-.4.013.263.024.526.039.773v-.029c.045.647.1,1.292.192,1.931.079.566.124,1.131.179,1.7.029.263.047.55.082.823.042.334.079.671.118,1.005.1.873.182,1.747.3,2.631.068.5.113,1,.176,1.5.037.295.055.589.079.884s.058.637.082.952c.026.413.037.826.063,1.236.032.481.082.96.145,1.439s.126.976.21,1.457.161.976.25,1.463c.158.85.308,1.7.389,2.562.045.495.087.989.132,1.486.039.445.116.887.166,1.331s.105.9.15,1.35c.039.374.076.747.118,1.121a.594.594,0,0,0-.421.155l-.242.234c-.074.06-.142.126-.208.192-.245.25-.481.51-.726.76-.184.187-.376.36-.56.547s-.321.339-.476.513q-.526.581-1.052,1.147c-.313.334-.624.668-.963.973s-.658.579-.976.876a6.97,6.97,0,0,0-.526.526c-.174.2-.342.4-.526.595a7.085,7.085,0,0,1-.605.587c-.263.231-.526.452-.805.681s-.505.463-.758.692-.56.484-.823.745c-.113.11-.221.226-.334.337l-.029.032a11.827,11.827,0,0,0-1.407-.75l-1.46-.642c-.458-.21-.915-.421-1.381-.613s-.916-.353-1.381-.526h0c-.51-.179-1-.421-1.534-.552l-.095-.021c.058-.058.118-.113.174-.174a2.307,2.307,0,0,0,.353-.568,2.066,2.066,0,0,0,.181-.929.864.864,0,0,0-.113-.4c-.039-.068-.092-.132-.137-.2a.693.693,0,0,0-.058-.066,1.739,1.739,0,0,0-.871-1.018,3.551,3.551,0,0,0-1.339-.276,2.155,2.155,0,0,0-.481.071,2.988,2.988,0,0,0-1.315.747,4.471,4.471,0,0,0-.96,1.16,1.755,1.755,0,0,0-.234,1.076,1.881,1.881,0,0,0,.41.879,1.541,1.541,0,0,0,.489.439,2.389,2.389,0,0,0,.439.184,3.239,3.239,0,0,0,.842.118h.213a.553.553,0,0,0,.545.481h.066l.174.053a9.718,9.718,0,0,1,1.086.476,10.817,10.817,0,0,1,1,.605c.334.216.674.431,1.005.655h0l.018.013.042.026-.026-.016c.289.2.584.392.866.595s.526.416.789.637c.421.374.829.76,1.239,1.144-.05.068-.1.137-.15.2s-.129.153-.195.226Zm13.775,3.2a3.68,3.68,0,0,0-.658-.087c-.226,0-.45,0-.674-.021-.342-.021-.687-.013-1.029,0a5.225,5.225,0,0,0-.673.029l-.134.013a2.965,2.965,0,0,1-.263-.208c-.132-.121-.247-.263-.374-.384a7.515,7.515,0,0,0-.7-.621c-.484-.376-1.008-.7-1.473-1.1-.368-.329-.734-.663-1.084-1.013a12.11,12.11,0,0,0-1.052-1c-.381-.3-.773-.589-1.163-.879l-.418-.31c.045-.047.089-.095.137-.139.171-.171.35-.334.526-.495.339-.3.668-.61,1-.91s.713-.589,1.052-.9c.155-.142.31-.281.452-.439.179-.2.35-.405.526-.61a13.75,13.75,0,0,1,1.152-1.1h0l.034-.032.018-.016-.016.013c.179-.158.36-.31.526-.476.737-.708,1.4-1.494,2.1-2.239.334-.353.689-.684,1.026-1.034.187-.192.363-.4.56-.584.053-.045.1-.095.155-.145.018.126.037.263.053.379.037.295.06.589.084.884.1,1.55-.016,3.1.105,4.651.053.7.126,1.4.226,2.1s.171,1.355.221,2.034c.032.56.042,1.121.053,1.678s.055,1.087.071,1.631c.013.463.021.929.032,1.392-.139-.021-.282-.045-.421-.071Zm-20.673-11.347a3.733,3.733,0,0,1,.3-.237c.055-.037.11-.068.168-.1a1.889,1.889,0,0,1,.2-.084l.184-.053.163-.024h.1a2.051,2.051,0,0,1,.384.055,2.763,2.763,0,0,1,.295.079l.095.039.053.029.034.026.045.047a.948.948,0,0,1,.061.082c.024.037.047.076.068.116l.055.129a.676.676,0,0,0,.171.326.4.4,0,0,0,.053.042h0a.47.47,0,0,1-.021.171.39.39,0,0,0-.021.079c-.008.026-.055.129-.084.192a1.227,1.227,0,0,1-.076.137l-.029.039c-.071.076-.145.147-.221.218a2.2,2.2,0,0,1-.237.184,2.67,2.67,0,0,1-.279.166,4.875,4.875,0,0,1-.487.2c-.082.026-.163.05-.245.068a1.833,1.833,0,0,1-.234.029,3.848,3.848,0,0,1-.426,0,1.5,1.5,0,0,1-.24-.032A2.147,2.147,0,0,1,286,268.5a1.061,1.061,0,0,1-.116-.047l-.047-.026-.029-.021-.074-.076a1.374,1.374,0,0,1-.105-.139,1.149,1.149,0,0,1-.071-.124.639.639,0,0,1-.034-.074.447.447,0,0,0-.021-.079.218.218,0,0,1,0-.042h0v-.05a.978.978,0,0,1,.031-.118q.032-.084.071-.166l.092-.153c.09-.124.184-.245.284-.36A4.442,4.442,0,0,1,286.388,266.626Zm14.7,11.473c-.21-.018-.421-.042-.629-.079a5.4,5.4,0,0,1-.568-.166,6.518,6.518,0,0,1-.616-.247c-.353-.189-.7-.405-1.031-.626a7.435,7.435,0,0,1-.687-.526h0l-.029-.024.018.016c-.434-.387-.855-.789-1.281-1.184s-.934-.829-1.4-1.239h0l-.047-.042.037.032c-.379-.339-.745-.689-1.116-1.037s-.739-.692-1.137-1-.9-.645-1.355-.952-.873-.584-1.315-.858c-.158-.1-.318-.189-.481-.284l.666.263c.263.1.513.184.771.263.676.239,1.331.526,1.984.821l1.089.495c.358.163.721.321,1.076.492a10.688,10.688,0,0,1,1.052.61c.426.292.842.6,1.255.913.371.284.755.555,1.113.855s.639.652.968.968.681.645,1.036.95c.289.247.605.471.916.687a10.951,10.951,0,0,1,.913.7c.06.053.113.113.171.168a.441.441,0,0,0-.06.034h-.011l-.174.024a9.829,9.829,0,0,1-1.123-.026Zm6.293,1.776h0l-.116-.063-.331-.174c-.289-.15-.573-.31-.866-.455-.129-.066-.263-.142-.381-.216.132,0,.263.016.395.018s.263,0,.41,0a2.106,2.106,0,0,1,.263.037h.016c.263.053.505.1.76.129.016.208.034.416.047.626V279.7c0,.087.013.174.018.263Zm75.6,11.271c-.292.195-.6.368-.9.558s-.592.376-.876.581-.526.387-.789.579c-.526.368-1.037.726-1.557,1.087s-1.031.723-1.536,1.1c-.289.218-.576.445-.873.655-.263.182-.526.355-.771.526-.408.263-.823.539-1.226.823s-.831.616-1.25.921-.887.623-1.315.944-.789.595-1.2.9c-.526.41-1.052.844-1.579,1.258s-1.071.81-1.623,1.194c-1.076.747-2.07,1.6-3.157,2.341-.542.363-1.092.713-1.623,1.092s-1.018.721-1.534,1.073-1.034.618-1.539.947c-.587.379-1.134.813-1.71,1.2-.376.25-.763.487-1.134.747s-.71.495-1.052.75c-.7.51-1.4,1.013-2.1,1.518-.552.395-1.123.766-1.639,1.2s-1.052.9-1.6,1.315c-.281.216-.574.418-.86.626s-.508.376-.758.568c-.5.384-1,.763-1.518,1.121h.013l-.021.013-.037.026h.018c-.6.4-1.189.813-1.784,1.223-.282.2-.566.4-.842.6s-.56.426-.85.626c-.468.31-.955.589-1.413.918-.263.195-.55.389-.816.595l-.621.492c-.526.408-1.037.85-1.579,1.255s-1.015.742-1.5,1.134c-.553.439-1.084.9-1.663,1.315-.466.313-.939.613-1.407.923-.239.155-.481.308-.716.471-.189.132-.379.263-.571.395-.329.221-.666.437-.994.66l.026-.018c-.263.176-.526.36-.789.526a21.337,21.337,0,0,0-1.736,1.25c-.547.455-1.1.9-1.686,1.315h0c-.305.208-.6.424-.889.658s-.621.51-.923.776l.053-.047c-.292.263-.6.5-.905.739s-.571.455-.868.671c-.584.426-1.152.873-1.75,1.284a4.96,4.96,0,0,1-.455.263l-.108.053h-.016c-.208-.018-.416-.047-.624-.068-.384-.037-.766-.092-1.144-.163-.447-.095-.895-.192-1.336-.3s-.916-.263-1.363-.41a12.989,12.989,0,0,1-1.457-.592c-.187-.095-.368-.2-.563-.281a3.494,3.494,0,0,0-.492-.168c-.347-.092-.705-.145-1.052-.263l-.224-.089-.074-.042-.226-.15.024.016-.037-.024-.024-.016.018.013-.076-.058c-.082-.076-.155-.158-.229-.239A.636.636,0,0,1,313.5,332a.041.041,0,0,1,0-.018.557.557,0,0,0-.121-.234l-.032-.213c-.026-.145-.063-.284-.095-.426-.079-.408-.116-.823-.179-1.231-.037-.263-.095-.5-.118-.75s-.05-.5-.068-.75c-.021-.345-.026-.692-.055-1.039s-.076-.626-.1-.944v.076a1.215,1.215,0,0,0-.016-.239.474.474,0,0,0,0-.063v-.092a.692.692,0,0,1,0,.076,9.749,9.749,0,0,0-.1-1.052c-.055-.313-.118-.621-.184-.931-.053-.263-.079-.545-.121-.816-.058-.395-.1-.789-.155-1.187-.042-.324-.1-.645-.126-.968-.021-.242-.039-.484-.063-.726s-.042-.463-.076-.695-.082-.526-.126-.789-.087-.476-.118-.716c-.045-.31-.074-.618-.105-.929q-.1-1.052-.187-2.1c-.034-.65,0-1.3-.045-1.955-.029-.468-.068-.934-.134-1.4-.039-.279-.084-.555-.108-.834-.021-.431,0-.866-.018-1.3,0-.263,0-.51-.024-.768s-.047-.526-.068-.789c0-.205-.016-.408-.031-.61-.024-.4-.074-.789-.1-1.2-.016-.324-.021-.647-.029-.971a5.423,5.423,0,0,0-.037-.621,12.439,12.439,0,0,0-.263-1.281,9.82,9.82,0,0,1-.184-1.236c-.042-.789,0-1.579-.039-2.368a8.323,8.323,0,0,0-.071-.85c-.042-.366-.1-.729-.129-1.094-.026-.489-.018-.981-.037-1.473s-.061-.934-.092-1.4v.074c-.024-.4-.076-.789-.111-1.2a.111.111,0,0,1,0,.029v-.055c-.016-.234-.032-.466-.058-.7s-.063-.437-.087-.655c-.029-.526-.016-1.029-.053-1.539a5.586,5.586,0,0,0-.079-.668c-.053-.263-.11-.51-.163-.766a11.127,11.127,0,0,1-.176-1.315c-.026-.439-.042-.879-.06-1.315-.021-.526-.053-1.068-.071-1.6s-.047-1.036-.1-1.552c-.047-.445-.105-.889-.134-1.336v.076c-.018-.31-.047-.616-.068-.926h0c-.018-.3-.024-.6-.042-.894s-.05-.6-.071-.9v.074c-.026-.379-.058-.758-.084-1.137-.05-.858-.026-1.718-.076-2.573-.026-.452-.047-.9-.055-1.352s-.018-.889-.039-1.334c-.018-.405-.068-.789-.1-1.2s-.084-.771-.139-1.155c-.108-.752-.184-1.507-.237-2.263-.087-1.421.016-2.847-.079-4.265-.018-.263-.037-.547-.066-.821s-.082-.621-.126-.931c-.1-.713-.171-1.426-.245-2.142-.047-.452-.1-.9-.155-1.355-.029-.234-.066-.468-.1-.7s-.047-.429-.063-.645q-.063-.737-.132-1.473c-.042-.41-.1-.813-.166-1.218-.071-.458-.163-.91-.239-1.365s-.155-.889-.229-1.334c-.145-.871-.263-1.752-.332-2.631-.032-.466-.042-.929-.074-1.394-.029-.416-.074-.831-.1-1.247-.024-.305-.058-.608-.1-.91s-.058-.618-.1-.926c-.11-.842-.208-1.684-.3-2.528-.071-.65-.166-1.3-.218-1.949-.045-.563-.1-1.131-.171-1.694s-.153-1.194-.2-1.8c0-.137-.018-.263-.026-.41-.024-.413-.042-.829-.071-1.244v.076c-.016-.234-.021-.468-.045-.7s-.042-.413-.055-.621h0v-.032c-.018-.263-.032-.526-.053-.789h0c-.016-.221-.026-.439-.04-.66a2.211,2.211,0,0,1,.016-.324c.018-.234.055-.466.074-.7s.016-.547.016-.821v-1.526c0-1.252-.082-2.5-.171-3.749-.042-.571-.1-1.142-.16-1.71-.066-.634-.105-1.268-.16-1.9-.082-.918-.161-1.842-.287-2.749-.074-.526-.145-1.052-.195-1.578s-.087-1.1-.126-1.65v.076c-.053-.805-.032-1.61-.066-2.415s-.1-1.636-.158-2.457h0c-.018-.279-.034-.558-.055-.837-.105-1.315-.281-2.631-.434-3.946s-.239-2.612-.374-3.917c-.116-1.1-.263-2.2-.4-3.3-.071-.618-.124-1.242-.2-1.86-.039-.326-.087-.647-.118-.973s-.06-.731-.1-1.094c-.076-.645-.129-1.286-.21-1.928q-.087-.689-.2-1.376c-.074-.447-.163-.892-.245-1.339-.129-.692-.263-1.386-.387-2.081a21.62,21.62,0,0,1-.263-2.368.69.69,0,0,1,0,.074c-.018-.289-.039-.581-.061-.871v.076c-.034-.508-.079-1.01-.116-1.515-.018-.263-.039-.542-.058-.813q0,.037,0,.074c-.037-.547-.063-1.094-.1-1.642s-.084-1.037-.137-1.555c-.105-1.052-.2-2.12-.263-3.183v.076c-.066-1-.139-2.007-.25-3.007-.1-.894-.237-1.786-.3-2.683-.074-1.2-.061-2.4-.071-3.594,0-.981-.045-1.96-.113-2.936-.05-.752-.116-1.5-.208-2.249-.082-.663-.155-1.315-.239-1.986-.074-.6-.189-1.187-.263-1.784-.095-.673-.2-1.344-.25-2.023-.029-.442-.034-.884-.06-1.315-.045-.729-.134-1.457-.21-2.186s-.132-1.41-.216-2.1c-.047-.4-.1-.805-.142-1.2-.037-.334-.071-.666-.118-1-.084-.574-.195-1.144-.239-1.726-.076-1.21-.079-2.428-.079-3.641v-1.515c0-.505,0-1.013.024-1.518v-.021h.016c.263-.079.563-.134.831-.229.631-.221,1.215-.553,1.842-.789.105-.034.21-.066.318-.089.45-.082.9-.15,1.342-.276.205-.058.408-.116.61-.184s.418-.155.626-.232.421-.137.634-.2.437-.113.652-.179l.631-.2c.224-.074.442-.158.663-.237a4.482,4.482,0,0,1,.445-.124,1.488,1.488,0,0,1,.15-.024h.032c.155.116.308.237.466.347.25.171.505.331.755.5h0l.05.034-.042-.029c.526.374,1.015.789,1.51,1.208l.211.181h0l.047.042c.566.5,1.144.984,1.713,1.481.471.41.965.789,1.436,1.2l.61.539-.053-.047.1.092a.586.586,0,0,0,.437.166.542.542,0,0,0,.329-.113.555.555,0,0,0,.1-.773,4.458,4.458,0,0,0-.526-.476c-.218-.192-.437-.389-.663-.576s-.471-.374-.7-.568c-.284-.237-.56-.484-.842-.726s-.539-.453-.805-.687c-.082-.071-.163-.142-.242-.216a2.577,2.577,0,0,0-.195-.174h0c-.045-.042-.095-.082-.145-.124l-.25-.213-.147-.126c.463.155.937.287,1.413.405,1.029.263,2.052.526,3.073.81.339.095.676.192,1.018.263.287.068.576.129.866.192.639.142,1.279.3,1.913.468.7.189,1.392.4,2.086.6.639.189,1.279.371,1.91.584h-.029l.05.018h.005c.526.182,1.031.379,1.557.55s1.071.295,1.613.429,1.084.276,1.623.418,1.016.263,1.523.387c.642.163,1.279.334,1.921.5s1.315.324,1.973.5,1.3.342,1.947.526,1.258.371,1.881.581h.047c.387.134.773.263,1.168.392s.789.208,1.187.3.863.2,1.292.308.813.218,1.218.331c.676.192,1.363.363,2.044.545.616.163,1.242.3,1.842.479.292.089.587.174.873.263s.642.226.968.324c.595.182,1.194.339,1.784.542.5.174,1,.352,1.507.51.568.176,1.139.337,1.715.489.65.174,1.315.342,1.955.526.321.087.642.179.958.279.355.113.705.234,1.052.35q.9.292,1.818.555c.671.195,1.334.41,2,.639l-.068-.024c.605.213,1.2.46,1.8.679.66.239,1.334.431,2.013.61s1.287.345,1.926.526,1.315.413,1.989.621c.337.105.674.213,1.01.313s.658.187.981.3l-.047-.016.053.018h0c.463.163.913.36,1.379.513.263.084.508.158.763.239s.487.16.731.234c.579.168,1.163.331,1.736.526.308.095.613.2.921.284s.605.158.908.234c.579.147,1.155.3,1.734.458l.852.229a3.3,3.3,0,0,0,.558.129l.018.066c.063.342.132.681.179,1.023.068.5.129.994.2,1.492s.153.981.229,1.473.134,1.052.205,1.578.132,1.052.168,1.563c.029.463.018.926.029,1.389s.037.921.053,1.381.037.937.042,1.408,0,.95,0,1.423v3.231c0,1.076,0,2.131-.039,3.2-.018.526,0,1.079,0,1.618s.05,1.137.06,1.7.026,1.071.047,1.6.05,1.068.053,1.6c0,1.029.045,2.057.084,3.086.021.55.026,1.1.066,1.652s.105,1.052.145,1.578a.659.659,0,0,1,0-.074c.055.86.095,1.721.153,2.581v.074c.026.384.047.771.071,1.155.021.342.05.687.047,1.029,0,.623,0,1.247-.034,1.871-.016.242-.055.481-.079.723a4.666,4.666,0,0,0,0,.768,4.777,4.777,0,0,0,.108.842c.039.15.079.3.113.458a2.618,2.618,0,0,1,.055.4v.05c0,.158.234,1.181.3,1.494a4.758,4.758,0,0,1,.068.545c.021.384.024.768.034,1.15s.055.789.084,1.176.047.75.074,1.126v-.074c.024.368.042.739.068,1.11V207.4c.034.526.034,1.052.05,1.579.016.466.026.934.029,1.4,0,1.1-.021,2.2.021,3.3.026.752.047,1.507.061,2.26v1.071c0,.355.021.639.032.958,0,.6,0,1.194.018,1.792.016.676.016,1.355.034,2.031,0,.624.039,1.244.066,1.865.024.526.031,1.031.068,1.547s.092,1.1.163,1.65.147,1.131.187,1.7c.029.452.037.91.058,1.365s.045.942.055,1.415c0,.55,0,1.1.026,1.65.018.592.061,1.184.074,1.778.018.763.042,1.529.047,2.294V242.8c0,.281,0,.563.016.844,0,.226.018.45.029.673a1.527,1.527,0,0,0,.018.289.624.624,0,0,1,0,.187l.024.324c.032.526.058,1.052.068,1.579,0,.589.024,1.181.058,1.771.063,1.052.121,2.1.16,3.157.024.629.048,1.258.061,1.884,0,.437,0,.873.024,1.315.021.5.032,1,.047,1.5s.063,1.031.1,1.547.047,1.016.092,1.521c.05.55.142,1.092.187,1.644l.1,1.61c.021.329.037.66.055.989.018.387.021.773.042,1.16.042.763.121,1.523.176,2.284.037.581.05,1.16.074,1.742.016.445.042.889.068,1.334.061.96.187,1.918.263,2.878a1.416,1.416,0,0,0,.016.263c.024.46,0,.921.026,1.384.024.526.089,1.076.153,1.613.068.6.121,1.2.166,1.81.05.689.116,1.379.163,2.07.029.421.039.844.068,1.265.024.374.055.745.1,1.118.05.479.113.958.147,1.439v.013c.021.342.021.684.029,1.026.013.466.047.931.079,1.394h0l.055.826v-.076c.034.5.039,1.008.039,1.51,0,.239,0,.476-.021.713a6.177,6.177,0,0,0,0,.624,8.3,8.3,0,0,0-.758.834C383.195,290.9,382.995,291.138,382.984,291.145Z" transform="translate(-264.91 -136.996)" fill="#7f4b53"/>
      <path id="パス_9275" data-name="パス 9275" d="M393.72,244h0a.417.417,0,0,1,0,.058A.209.209,0,0,0,393.72,244Z" transform="translate(-359.832 -215.849)" fill="#7f4b53"/>
      <path id="パス_9276" data-name="パス 9276" d="M466.737,286.53a.238.238,0,0,0,0,.045.125.125,0,0,0,0,.032A.693.693,0,0,1,466.737,286.53Z" transform="translate(-413.639 -247.19)" fill="#7f4b53"/>
      <path id="パス_9277" data-name="パス 9277" d="M475.73,447.794v-.074A.675.675,0,0,1,475.73,447.794Z" transform="translate(-420.267 -365.974)" fill="#7f4b53"/>
      <path id="パス_9278" data-name="パス 9278" d="M472.92,248.6a.16.16,0,0,1,0,.034v.042A.246.246,0,0,0,472.92,248.6Z" transform="translate(-418.196 -219.239)" fill="#7f4b53"/>
      <path id="パス_9279" data-name="パス 9279" d="M471.277,297.039v-.074A.566.566,0,0,0,471.277,297.039Z" transform="translate(-416.984 -254.879)" fill="#7f4b53"/>
      <path id="パス_9280" data-name="パス 9280" d="M486.652,486.606a.417.417,0,0,1,0-.058v-.018A.245.245,0,0,0,486.652,486.606Z" transform="translate(-428.313 -394.573)" fill="#7f4b53"/>
      <path id="パス_9281" data-name="パス 9281" d="M488,401.516a.058.058,0,0,1,0-.021.4.4,0,0,0,0-.055Z" transform="translate(-429.306 -331.869)" fill="#7f4b53"/>
      <path id="パス_9282" data-name="パス 9282" d="M487,386.4h0v0Z" transform="translate(-428.572 -320.734)" fill="#7f4b53"/>
      <path id="パス_9283" data-name="パス 9283" d="M481,321.866a.537.537,0,0,1,0-.066h0Z" transform="translate(-424.148 -273.181)" fill="#7f4b53"/>
      <path id="パス_9284" data-name="パス 9284" d="M523.6,253.9c0-.581-.055-1.163-.092-1.744v-.029c-.021-.3-.037-.6-.068-.894s-.055-.547-.084-.818c-.055-.542-.145-1.081-.189-1.626-.045-.692-.061-1.386-.129-2.076s-.16-1.365-.21-2.049c-.016-.263-.024-.526-.034-.789-.013-.316-.018-.639-.058-.952-.021-.155-.053-.308-.082-.463s-.05-.3-.089-.445a1.376,1.376,0,0,0-.345-.663,3.889,3.889,0,0,0-.987-.552l-.353-.063a.7.7,0,0,1,.071.016c-.332-.071-.666-.132-1-.2a.751.751,0,0,1,.074.016c-.439-.092-.876-.174-1.315-.263-.355-.076-.713-.155-1.071-.224s-.681-.121-1.021-.179c-1.052-.179-2.1-.326-3.157-.455s-2.123-.287-3.181-.46l-1.563-.263c-.5-.087-1.005-.158-1.5-.245s-1-.174-1.5-.263c-.545-.089-1.089-.176-1.631-.289h0c-.753-.158-1.5-.321-2.257-.455-.789-.142-1.6-.263-2.394-.405-1.113-.192-2.22-.408-3.339-.579s-2.186-.358-3.286-.508-2.178-.263-3.257-.455-2.218-.384-3.328-.574c-.574-.1-1.147-.21-1.718-.316s-1.068-.184-1.6-.284c-1.076-.2-2.163-.368-3.238-.584-.526-.11-1.052-.226-1.579-.36s-1.086-.263-1.628-.405-1.081-.263-1.628-.389-1.052-.237-1.579-.366-1.092-.25-1.642-.36h.018a6.149,6.149,0,0,1-.76-.184l.063.024.055.029h0a.542.542,0,0,0-.789.245,3.681,3.681,0,0,0-.879.116c-.263.055-.5.129-.75.192a.56.56,0,0,0-.5.55.545.545,0,0,0,.031.174c0,.489,0,.976.029,1.468.029.563.045,1.129.084,1.692a.706.706,0,0,1,0-.074v.1c.037.545.05,1.089.055,1.636s.024,1.079.061,1.621v-.021c.047.684.084,1.371.1,2.057,0,.329.018.658.034.989s.05.731.076,1.1v-.016c.047.679.079,1.358.118,2.034.018.31.034.624.066.934s.063.624.087.937c.029.455.039.91.068,1.368v.055c.113,1.734.3,3.465.434,5.2.058.692.1,1.386.166,2.078s.132,1.315.218,1.957c.176,1.315.318,2.631.408,3.973v.037a1.923,1.923,0,0,0,.021.347v-.076c0,.179.024.358.034.526a.124.124,0,0,0,0-.032c.034.526.06,1.052.108,1.563s.095,1.052.134,1.578h0a.563.563,0,0,0,0,.066.13.13,0,0,1,0-.032c.06.963.126,1.926.218,2.894.039.434.095.866.129,1.3.037.495.079.987.113,1.481v-.029c.058.889.113,1.779.2,2.665.076.752.16,1.5.247,2.252.145,1.289.305,2.576.408,3.87.095,1.184.2,2.368.287,3.552h0c.058.868.076,1.739.126,2.607s.1,1.749.163,2.631v.074a.706.706,0,0,1,0-.074c.071,1.079.105,2.162.2,3.238s.239,2.173.316,3.262c.026.424.045.844.055,1.268.016.539,0,1.081.047,1.621,0,.182.026.363.039.545.013.224.016.445.016.668s.018.5.026.752a.551.551,0,0,0,.024.132c.013.308.053.613.092.916.068.526.129,1.039.166,1.565v-.074c.034.492.063.984.092,1.478.032.526.066,1.071.074,1.607.018,1.052.105,2.1.176,3.157a.723.723,0,0,0,0-.076c.018.263.024.526.034.776s.034.526.055.789c.04.463.092.926.126,1.389.068,1.073.045,2.155.053,3.228,0,.584,0,1.163.042,1.742.032.489.074.973.108,1.46h0c.045.676.068,1.355.116,2.031v-.076c.039.587.055,1.173.113,1.757s.092,1.1.137,1.65c.032.392.079.789.142,1.165s.108.718.134,1.076c.034.526.024,1.052.029,1.594,0,.321.034.639.058.958h0c.026.424.042.85.058,1.273s.045.884.076,1.315h0c.021.339.042.681.066,1.021a.693.693,0,0,0,0-.076v.1c.018.295.05.584.089.876.053.355.1.713.16,1.052.118.668.226,1.336.313,2.007s.139,1.331.189,2,.1,1.315.15,1.957c.039.581.074,1.163.113,1.744v-.074c.06.918.092,1.842.145,2.754.024.445.029.892.055,1.336.029.526.074,1.026.108,1.536.039.608.053,1.218.079,1.828.024.55.06,1.1.1,1.644h0v.074a.121.121,0,0,0,0-.032c.032.487.055.973.092,1.46.031.445.074.887.118,1.331.076.758.163,1.515.218,2.276.047.613.1,1.229.16,1.842.063.7.11,1.4.168,2.1.031.334.06.671.1,1.005.047.384.1.768.153,1.152.087.668.147,1.342.213,2.013s.121,1.352.19,2.026.155,1.268.216,1.9.129,1.292.192,1.939.158,1.315.208,1.973v.018a.213.213,0,0,0,0,.039v-.026c.05.771.092,1.544.147,2.315.024.36.055.718.082,1.079s.074.723.1,1.084.021.655.037.979.047.718.089,1.076a.552.552,0,0,0,.3.416.525.525,0,0,0,.061.171.579.579,0,0,0,.416.263,1.79,1.79,0,0,0,.239,0h.124a4.94,4.94,0,0,0,.645.263,3.732,3.732,0,0,0,.789.1h0a.527.527,0,0,0,.387-.171.241.241,0,0,0,.042,0h.092a.542.542,0,0,0,.331-.113c.334-.181.668-.366.987-.571.226-.145.445-.3.671-.439a7.175,7.175,0,0,1,.671-.366l-.066.032c.3-.147.6-.287.892-.439s.552-.3.823-.458.51-.313.763-.479.526-.379.805-.566a11.262,11.262,0,0,1,1.026-.613l.061-.029c.239-.116.481-.224.713-.355s.526-.313.776-.484c.434-.3.847-.626,1.281-.926.284-.189.574-.371.866-.552s.555-.313.831-.476c.584-.345,1.139-.742,1.71-1.108.887-.568,1.842-1.018,2.736-1.56.466-.263.91-.581,1.376-.855s.871-.468,1.3-.718c.479-.281.945-.576,1.408-.884.389-.263.789-.505,1.189-.737s.813-.463,1.2-.713.789-.526,1.168-.789c.631-.426,1.271-.844,1.921-1.244s1.36-.85,2.026-1.3l.042-.029-.034.024c.637-.426,1.3-.818,1.963-1.2.342-.2.684-.392,1.018-.6.295-.184.573-.389.86-.587.547-.366,1.126-.681,1.676-1.052s1.147-.763,1.726-1.134c.471-.3.947-.581,1.436-.844s.95-.508,1.4-.789.887-.571,1.334-.85q.729-.458,1.468-.905c.468-.284.942-.558,1.413-.837l1.4-.831a11.055,11.055,0,0,0,1.229-.831,3.846,3.846,0,0,0,.6-.55.462.462,0,0,0,.047-.076.542.542,0,0,0,.353-.439,2.68,2.68,0,0,0-.016-.545c-.018-.216-.039-.431-.066-.645-.074-.6-.118-1.2-.158-1.8v.005c-.058-.892-.071-1.781-.076-2.673s-.029-1.823-.037-2.733c0-.5-.018-.994-.042-1.492s-.045-1.073-.074-1.61c-.055-1.013-.105-2.026-.174-3.039-.045-.637-.113-1.271-.155-1.907v.024c-.021-.337-.039-.673-.074-1.008-.029-.263-.061-.545-.092-.816-.066-.576-.121-1.155-.16-1.731-.055-.823-.066-1.652-.092-2.478-.032-.894-.068-1.789-.126-2.681l-.039-.668c-.058-1.052-.082-2.1-.118-3.157s-.134-2.078-.205-3.117l-.016-.216c-.055-1-.1-2-.163-3-.029-.505-.029-1.008-.042-1.513s-.058-.987-.09-1.481v.076c-.024-.363-.042-.729-.076-1.094s-.076-.789-.1-1.179v.074l-.032-.508v.076c-.037-.526-.061-1.052-.084-1.579s-.06-1.034-.087-1.549-.047-1.052-.074-1.6c-.021-.426-.034-.852-.034-1.279v-3.136a14.52,14.52,0,0,0-.076-1.578c-.026-.232-.053-.463-.1-.692l-.134-.626a1.051,1.051,0,0,0,0-.631c-.018-.46-.016-.926-.018-1.386,0-.505-.058-1.008-.092-1.513-.021-.339-.032-.676-.021-1.016.034-1.086.126-2.17.142-3.257,0-.605,0-1.2-.037-1.8-.037-.513-.087-1.023-.124-1.534v-.021h0a.415.415,0,0,0,0-.058v-.024a3.459,3.459,0,0,0-.024-.374,2.69,2.69,0,0,0-.018-.387c0-.232-.016-.463-.018-.7,0-.576,0-1.155.016-1.731s.05-1.087.063-1.631,0-1.089.016-1.634-.034-1.136-.074-1.707v.076c0-.174-.024-.347-.034-.526v.032c-.018-.326-.032-.647-.05-.971s-.05-.673-.074-1.01c-.053-.855-.053-1.713-.053-2.568,0-.579,0-1.155-.018-1.734s-.024-1.184-.055-1.773-.058-1.108-.066-1.66,0-1.087,0-1.628,0-1.118-.018-1.676-.018-1.052-.037-1.578-.089-1.1-.129-1.652-.087-1.139-.126-1.71h0c-.026-.389-.047-.789-.079-1.168-.026-.342-.058-.684-.084-1.026-.034-.526-.045-1.052-.047-1.578s0-1.121,0-1.681S523.615,254.46,523.6,253.9ZM480.587,378.743a1.384,1.384,0,0,0-.466-.11h-.06c-.021-.171-.039-.342-.053-.526-.032-.495-.034-.989-.068-1.484-.026-.4-.076-.805-.108-1.21s-.061-.768-.087-1.152h0c-.034-.526-.063-1.052-.1-1.579-.034-.573-.089-1.142-.158-1.713-.116-1-.2-2-.3-3-.066-.637-.155-1.271-.218-1.91s-.116-1.342-.187-2.007-.134-1.392-.232-2.086-.171-1.421-.231-2.136-.11-1.426-.179-2.136c-.053-.568-.095-1.136-.142-1.7-.105-1.268-.263-2.528-.35-3.8-.018-.295-.032-.589-.05-.884s-.047-.589-.066-.884c-.039-.626-.055-1.252-.081-1.876s-.079-1.315-.126-1.986h0v-.034c-.029-.437-.039-.871-.058-1.315-.016-.368-.039-.737-.055-1.105q-.058-1.294-.147-2.583v.074c-.026-.387-.047-.789-.074-1.165-.045-.676-.1-1.355-.15-2.031s-.105-1.342-.189-2.007c-.047-.353-.089-.7-.147-1.052s-.108-.637-.163-.955-.11-.71-.163-1.052q-.055-.395-.087-.789c-.013-.189-.029-.376-.042-.563-.024-.345-.047-.689-.068-1.031a.706.706,0,0,0,0,.074c-.029-.437-.039-.873-.055-1.315s-.045-.81-.074-1.218v-.068c-.024-.421-.016-.842-.021-1.265a8.771,8.771,0,0,0-.034-.947c-.021-.245-.055-.489-.087-.734s-.071-.442-.1-.663-.061-.51-.082-.768c-.026-.324-.047-.647-.076-.971-.032-.379-.074-.758-.1-1.137-.029-.458-.05-.915-.082-1.373v.034c-.034-.542-.055-1.087-.087-1.631s-.084-1.131-.124-1.7v.05c-.037-.61-.037-1.221-.045-1.842s0-1.223,0-1.841-.026-1.152-.074-1.726-.11-1.131-.147-1.7c-.016-.276-.021-.552-.037-.829s-.047-.6-.068-.9c-.045-.671-.092-1.339-.1-2.01s-.05-1.315-.089-1.97-.068-1.25-.124-1.871c-.053-.576-.158-1.147-.2-1.723h0v-.037c0-.1-.013-.208-.013-.31a.528.528,0,0,0-.021-.145c0-.231-.018-.463-.021-.695,0-.331-.031-.66-.055-.989h0v-.116c-.031-.587-.029-1.176-.045-1.763-.016-.526-.047-1.052-.089-1.563s-.1-1.079-.155-1.615-.121-1.094-.16-1.642c-.06-.934-.108-1.87-.171-2.8v-.116q-.063-.95-.121-1.9c-.076-1.273-.113-2.549-.205-3.82-.047-.634-.095-1.265-.153-1.9-.053-.587-.1-1.173-.153-1.76-.226-2.415-.573-4.817-.742-7.24h0c-.066-1-.132-2.007-.237-3.007-.095-.916-.171-1.842-.234-2.749a.724.724,0,0,0,0,.076c-.037-.526-.066-1.071-.113-1.6-.039-.476-.087-.952-.121-1.431h0c-.032-.466-.058-.931-.087-1.4v-.008c0-.116-.016-.234-.021-.352v.074c-.055-.852-.132-1.707-.229-2.557-.089-.789-.2-1.578-.292-2.368-.071-.666-.142-1.334-.192-2s-.1-1.36-.163-2.036c-.126-1.363-.247-2.726-.342-4.091a.988.988,0,0,0-.013-.2v-.09c-.029-.463-.037-.931-.071-1.4s-.087-.873-.118-1.315c-.037-.542-.071-1.087-.1-1.628s-.068-1.094-.105-1.644h0c-.037-.595-.045-1.189-.063-1.784s-.058-1.168-.1-1.752v.018c-.071-1.052-.039-2.091-.108-3.136v-.032c-.034-.552-.053-1.1-.079-1.657-.018-.384-.021-.768-.024-1.152.139-.037.279-.074.418-.105a4.166,4.166,0,0,1,.484-.074h.089c.013.384,0,.771.013,1.158,0,.431,0,.86.024,1.292a11.373,11.373,0,0,0,.111,1.529c.066.4.11.805.142,1.21v.079c.045.684.084,1.365.145,2.047.029.337.05.673.087,1.008s.071.639.095.958h0v.026c.05.75.066,1.5.118,2.247.053.808.192,1.6.25,2.413.018.347.034.695.053,1.052.032.634.04,1.268.042,1.9s-.013,1.244.013,1.863c.05,1.168.061,2.336.137,3.5.029.429.082.852.124,1.281s.076.884.108,1.315c.066,1.034.126,2.068.216,3.1.045.492.1.981.166,1.473s.116,1.052.15,1.563a.139.139,0,0,0,0-.034v.205c.092,1.363.211,2.723.376,4.078.145,1.229.321,2.452.408,3.683,0,.126.018.25.026.376.042.634.095,1.265.139,1.9.042.684.068,1.371.113,2.055.1,1.507.279,3,.381,4.512V280.8c.071,1.092.126,2.184.184,3.275s.129,2.2.2,3.3v-.016q0,.081.013.16v.176l.047.7v-.076c.034.508.058,1.013.084,1.518.029.56.047,1.121.1,1.679.1,1.052.237,2.086.35,3.133.068.624.121,1.252.168,1.878a16.618,16.618,0,0,0,.211,1.768c.066.345.242,1.942.263,2a1.32,1.32,0,0,1,.016.142v.166c.016.313.024.626.026.939a15.866,15.866,0,0,0,.058,1.657c.05.471.124.942.16,1.415v.016a.213.213,0,0,0,0,.039.177.177,0,0,0,0,.037v-.021c.016.232.034.463.05.695V305.3c.053.808.074,1.618.171,2.42.029.263.084.5.126.755.05.3.09.608.113.916.063.95.124,1.9.247,2.841.058.45.113.9.179,1.347s.132.96.166,1.447v-.076c.024.384.045.768.071,1.152.034.437.079.871.111,1.315s.039.789.05,1.2c.032,1.344.055,2.689.095,4.03,0,.331.013.66.032.992s.047.705.076,1.052c.047.6.124,1.192.192,1.786s.131,1.268.195,1.9.163,1.344.218,2.018c.124,1.476.263,2.952.363,4.43.032.476.055.955.089,1.431v-.076c.042.639.084,1.281.113,1.923.021.526.032,1.068.058,1.6.013.31.045.618.068.929s.05.676.079,1.01c.053.56.11,1.118.171,1.678s.126,1.16.176,1.744c.042.468.1.937.137,1.4h0c.05.763.124,1.523.176,2.286l.032.431v-.074c.042.647.087,1.292.131,1.939v-.074c.045.668.1,1.334.168,2,.047.487.113.971.145,1.46v-.076c.026.408.06.813.089,1.221,0,.131.018.263.026.395v-.013c.018.284.042.566.063.847v-.074l.079,1.263c.034.484.06.971.076,1.455s.016,1.008.032,1.51c0,.41.016.818.016,1.229v1.179c.024.734.061,1.471.124,2.2.034.389.068.789.108,1.168s.108.855.15,1.286.076.8.118,1.2c.058.526.092,1.052.153,1.578.053.429.118.858.168,1.286s.1.85.131,1.276c.013.237.026.474.032.708s.024.495.037.744.018.526.05.805c.021.182.045.36.058.542.029.434.045.873.05,1.315v.766c0,.171.016.345.026.526a1.1,1.1,0,0,0,.013.205.716.716,0,0,1-.2-.045A1.746,1.746,0,0,0,480.587,378.743Zm44.232-57.134h0c.06.9.074,1.807.11,2.712.034.837.066,1.676.124,2.51v-.074c.055.818.087,1.636.113,2.455.032.979.042,1.955.124,2.931.039.484.087.971.142,1.455s.1.9.134,1.357c.026.392.055.789.084,1.173s.071.739.1,1.11v0c.055.839.092,1.679.142,2.515s.092,1.731.124,2.6c.018.513.018,1.026.026,1.539s.018,1.089.026,1.636c0,1.076,0,2.152.082,3.228v-.026c.018.281.042.563.066.842s.037.542.071.813c.039.334.076.666.1,1a.529.529,0,0,0-.168.139c-.058.06-.121.118-.184.174a7.625,7.625,0,0,1-.655.505h0l-.055.037.039-.026c-.687.46-1.413.865-2.126,1.289-.479.287-.965.566-1.444.858s-.958.587-1.434.887-.9.581-1.355.86-.926.526-1.394.789c-.984.526-1.915,1.16-2.849,1.781-.455.3-.921.584-1.389.871-.232.142-.46.287-.684.439l-.526.358c-.526.342-1.068.639-1.6.955s-1.108.663-1.642,1.023l.026-.018-.242.163c-.726.489-1.479.934-2.215,1.4s-1.4.921-2.1,1.394c-.3.2-.595.389-.9.574s-.642.371-.963.555c-.692.4-1.336.876-2.02,1.284q-.658.392-1.337.752c-.471.263-.918.547-1.373.834s-.876.526-1.315.773-.939.492-1.392.768-.926.605-1.389.9c-.232.153-.466.3-.7.447s-.439.247-.658.374c-.484.281-.963.587-1.418.913-.389.281-.768.574-1.165.842a8.231,8.231,0,0,1-.75.439l-.463.221c-.321.166-.634.347-.939.542s-.615.424-.923.637a16.247,16.247,0,0,1-1.773,1.052c-.313.153-.626.3-.934.46a9.445,9.445,0,0,0-.868.526,9.009,9.009,0,0,1-.816.5l-.032.018c-.016-.281-.024-.56-.024-.842s0-.571-.016-.855-.018-.51-.032-.766c-.021-.324-.071-.642-.092-.963a.125.125,0,0,1,0-.032c-.05-.934-.066-1.871-.174-2.8-.047-.421-.1-.844-.158-1.265-.076-.51-.124-1.023-.166-1.539-.039-.439-.092-.876-.132-1.315l-.055-.587c-.024-.208-.058-.416-.082-.624-.05-.421-.084-.844-.124-1.268-.026-.321-.058-.642-.082-.965-.016-.239-.021-.482-.032-.724s-.026-.487-.034-.731c-.018-.526,0-1.052,0-1.563,0-.408-.013-.813-.021-1.221,0-.526-.018-1.052-.042-1.578-.045-1.052-.129-2.1-.2-3.157h0v-.068c-.029-.466-.071-.931-.1-1.4v.074c-.034-.51-.095-1.013-.147-1.521-.066-.658-.124-1.315-.168-1.97v.074c-.024-.366-.053-.729-.076-1.092v.074c-.029-.426-.055-.855-.084-1.281v.024c-.045-.655-.11-1.315-.158-1.965a1.019,1.019,0,0,0-.013-.2c-.029-.5-.087-1-.134-1.5-.029-.305-.052-.61-.084-.915s-.063-.555-.092-.831c-.118-1.168-.234-2.333-.318-3.507-.039-.623-.042-1.252-.074-1.878-.037-.755-.087-1.51-.139-2.265v.074c-.047-.721-.087-1.442-.145-2.162s-.116-1.421-.176-2.128-.116-1.431-.195-2.144c-.037-.331-.079-.66-.116-.992s-.063-.645-.1-.968c-.063-.589-.129-1.179-.189-1.765-.032-.308-.074-.61-.1-.918s-.053-.652-.074-.979c-.039-.631-.047-1.268-.06-1.9s-.034-1.281-.047-1.923c-.016-.692-.021-1.381-.053-2.073s-.11-1.408-.158-2.1a.645.645,0,0,0,0,.074c-.032-.474-.053-.95-.1-1.423s-.129-.976-.195-1.463c-.124-.929-.234-1.857-.3-2.794h0c-.026-.408-.039-.816-.084-1.221-.034-.3-.084-.595-.139-.889a16.28,16.28,0,0,1-.184-1.789c-.013-.263-.024-.526-.039-.773,0-.21-.029-.421-.045-.631-.024-.347-.055-.692-.1-1.037s-.087-.687-.113-1.029c-.037-.61,0-1.223-.032-1.842,0-.055-.239-2.394-.3-2.689-.226-1.163-.245-2.355-.371-3.528-.063-.579-.126-1.158-.195-1.734-.076-.65-.16-1.3-.205-1.957-.037-.587-.063-1.173-.092-1.76s-.074-1.181-.113-1.771h0a.249.249,0,0,0,0,.045.379.379,0,0,1,0-.053.185.185,0,0,1,0-.037v-.016c0-.134-.018-.263-.026-.4-.021-.263-.039-.542-.058-.813v.076c-.045-.689-.087-1.373-.121-2.063-.031-.626-.068-1.25-.1-1.876-.039-.713-.074-1.426-.132-2.139-.105-1.289-.242-2.578-.334-3.87v-.089c-.04-.629-.061-1.258-.1-1.886-.045-.668-.1-1.336-.147-2.007v-.034a1.14,1.14,0,0,0-.013-.192c-.084-1.265-.263-2.518-.41-3.775-.16-1.331-.281-2.662-.374-4a1.256,1.256,0,0,0-.018-.263v.026c-.032-.474-.063-.944-.121-1.415-.05-.389-.105-.789-.145-1.168-.087-.816-.139-1.636-.2-2.455v.074c-.045-.687-.084-1.373-.142-2.057-.05-.587-.126-1.173-.168-1.763v-.032a.125.125,0,0,1,0,.032c-.074-1.084-.074-2.165-.121-3.249-.029-.624-.021-1.244-.024-1.865s0-1.255-.031-1.878-.053-1.268-.11-1.9-.158-1.192-.2-1.792c-.031-.439-.055-.876-.071-1.315s-.037-.887-.079-1.329-.092-.894-.129-1.342-.079-.873-.108-1.315a.692.692,0,0,0,0,.076c-.034-.505-.058-1.01-.1-1.515-.021-.245-.05-.489-.087-.731s-.084-.526-.105-.789c-.029-.545-.032-1.087-.045-1.631s0-1.16-.026-1.739a.077.077,0,0,0,0-.026l.673.137c.684.147,1.36.329,2.042.481.347.079.7.15,1.052.226s.66.163.992.247c.526.137,1.071.263,1.607.4s1.068.263,1.6.371c1.1.226,2.2.395,3.3.6.545.1,1.092.192,1.636.292s1.11.208,1.668.3c1.11.192,2.226.368,3.333.576s2.192.316,3.289.468,2.173.334,3.26.5,2.242.387,3.365.579,2.255.366,3.373.589h-.034c.931.192,1.86.392,2.8.545.505.082,1.007.163,1.51.263s1.015.166,1.523.263c1.018.166,2.034.345,3.052.492.542.076,1.081.16,1.623.226s1.076.129,1.613.205c1.029.142,2.063.305,3.081.51.655.137,1.315.263,1.968.395l-.071-.016c.318.068.639.126.958.192h-.016c.226.047.455.087.687.129a.5.5,0,0,0,.108.029.526.526,0,0,0,.124.189h0c0,.021.018.045.026.068.021.066.039.134.055.2.047.263.105.526.129.789.04.729.055,1.463.132,2.189.071.687.155,1.368.205,2.055.047.729.06,1.457.153,2.184s.179,1.373.234,2.063v-.018a.2.2,0,0,1,0,.039v.245a1.768,1.768,0,0,0,.016.281c.016.092,0,.139.016.208v-.076c.029.458.06.913.074,1.371.016.56,0,1.121,0,1.678v1.671c0,.555,0,1.094.039,1.642s.092,1.134.129,1.7v-.074c.039.637.081,1.273.131,1.907.026.324.047.645.071.968.021.263.058.526.082.776,0,.216.018.429.024.639.026,1.1.045,2.2.047,3.3v1.61c0,.537.047,1.136.076,1.7s.034,1.181.047,1.773,0,1.142,0,1.713c0,.508,0,1.016.018,1.523.016.56.063,1.118.1,1.678.024.416.042.831.071,1.244.018.313.042.623.063.937v-.076c.045.726.032,1.455.021,2.184s-.039,1.455-.074,2.181c-.024.576-.024,1.155,0,1.731,0,.239,0,.479.021.721,0,.137.013.263.021.413l.016.234a2,2,0,0,0,0,.218v.1c.037.526.089,1.065.126,1.6v-.024c0,.129.018.263.024.384.04,1.123-.018,2.252-.087,3.373-.032.526-.066,1.052-.058,1.557s.055.984.092,1.476c.037.55.032,1.1.039,1.652,0,.171,0,1.11.034,1.242s.066.308.1.46h0a.09.09,0,0,0,.013.058.26.26,0,0,1,0-.045,9.062,9.062,0,0,1,.142,1.131c.039.616.029,1.236.029,1.842v1.955c0,.471,0,.939.024,1.41q.034.855.079,1.713c.026.573.068,1.147.095,1.721s.055,1.123.092,1.684v-.018c.045.671.116,1.339.163,2.007h0l.095,1.339V314.4c.029.41.032.821.037,1.231,0,.505.042,1.01.068,1.515s.063,1.052.089,1.563C524.664,319.625,524.751,320.62,524.82,321.609Zm-.147-22.8" transform="translate(-414.622 -206.762)" fill="#7f4b53"/>
      <path id="パス_9285" data-name="パス 9285" d="M678.257,412.368a.556.556,0,0,1,0-.068h0A.64.64,0,0,1,678.257,412.368Z" transform="translate(-569.512 -339.872)" fill="#7f4b53"/>
    </g>
  </g>
</svg>
