<svg xmlns="http://www.w3.org/2000/svg" width="197.183" height="135.024" viewBox="0 0 197.183 135.024">
  <g id="go093_2" transform="translate(-136.138 -270.03)">
    <g id="レイヤー_1" data-name="レイヤー 1" transform="translate(139.819 347.39)">
      <path id="パス_8980" data-name="パス 8980" d="M311.521,622.437a45.909,45.909,0,0,1-6.037-.454c-2.286-.378-4.572-.869-6.861-1.252-1.987-.333-3.937-.95-5.955-1.121-2.48-.116-4.987-.068-7.454.021-1.709.081-3.412.262-5.126.315-2.024.076-4.068.213-6.094.262-1.719.021-3.462-.05-5.178-.11a69.235,69.235,0,0,1-8.538-.525A49.253,49.253,0,0,1,252.106,618a24.226,24.226,0,0,1-6.562-3.021,14.17,14.17,0,0,1-2.919-2.417,8.542,8.542,0,0,1-1.837-3.609,9.669,9.669,0,0,0-1.714-3.567,6.972,6.972,0,0,0-1.837-1.709,7.688,7.688,0,0,0-2.362-.787c-.94-.194-1.877-.423-2.8-.685a26.127,26.127,0,0,1-4.528-1.63,6.553,6.553,0,0,1-2.95-2.459,9.009,9.009,0,0,0-1.207-1.656,5.454,5.454,0,0,0-3.15-1.509c-2.241-.089-4.462.381-6.709.378-1.6.021-3.2.037-4.8.165-2.57.236-5.131.614-7.68,1.024-1.612.263-3.22.606-4.842.829-1.685.236-3.391.346-5.084.506a13.554,13.554,0,0,0-2.95.743c-.85.32-1.68.722-2.53,1.05a10.977,10.977,0,0,1-5.714.693c-1.667-.262-3.231-1.144-4.95-.992-2.147.129-4.257.633-6.4.787a43.932,43.932,0,0,1-4.4.126c-1.522-.018-3.05-.029-4.57-.092a13.393,13.393,0,0,1-5.081-.934,8.4,8.4,0,0,1-2.992-2.483,9.7,9.7,0,0,1-1.249-4.438,22.932,22.932,0,0,1-.11-3.315c.163-2.79,2.911-5.556,4.538-7.735,1.073-.281,4.913-1.575,5.821-1.656a34.915,34.915,0,0,0,4.068-.979c1.226-.381,2.415-.885,3.6-1.373,1.312-.541,2.719-1.05,4.071-1.512,6.5-2.189,13.052-4.43,19.7-6.121,8.087-1.921,16.457-2.887,24.693-3.919,3.69-.428,7.612-.808,11.32-.908a144.21,144.21,0,0,1,14.436.575c7.483.614,15.071,1.493,22.3,3.614a111.754,111.754,0,0,1,17.383,6.824c2.535,1.289,5.073,2.832,7.548,4.234,4.682,2.546,9.168,5.535,13.874,8.039a87.127,87.127,0,0,0,10.706,4.554c3.11,1.213,6.3,2.394,9.512,3.325a92.284,92.284,0,0,1,13.029,4.583,18.548,18.548,0,0,1,4.362,2.816,7.774,7.774,0,0,1,1.714,2,7.349,7.349,0,0,1,.635,1.78,5.439,5.439,0,0,1,.155,1.885,4.987,4.987,0,0,1-.711,2.1,7.694,7.694,0,0,1-1.78,2.184,10.354,10.354,0,0,1-2.05,1.388,25.166,25.166,0,0,1-2.541,1.333c-1.4.617-2.777,1.312-4.22,1.85a57.27,57.27,0,0,1-8.081,2.176C320.014,620.891,315.875,622.484,311.521,622.437Z" transform="translate(-150.163 -564.775)" opacity="0.2"/>
    </g>
    <g id="レイヤー_8" data-name="レイヤー 8" transform="translate(143.037 270.786)">
      <path id="パス_8981" data-name="パス 8981" d="M169.882,381.814a8.6,8.6,0,0,1-1.906-.173,4.848,4.848,0,0,1-.664-.173c-.087-.037-.2-.047-.262-.118h-.037a5.3,5.3,0,0,1-1.538-.934v-.034h-.031a.161.161,0,0,1-.042-.042h0c-.016,0-.055-.052-.047-.055a6.142,6.142,0,0,1-.727-.751,8.243,8.243,0,0,1-.541-.669,8.381,8.381,0,0,1-1.352-2.782,10,10,0,0,1-.307-3.047,30.852,30.852,0,0,1,.144-3.192,15.969,15.969,0,0,1,.787-3.391,10.973,10.973,0,0,1,1.378-2.743,20.049,20.049,0,0,1,3.787-4.152c.648-.525,1.394-.921,2.037-1.451,3.071-2.625,3.373-5.774,3.31-9.551a54.988,54.988,0,0,0-1.6-12.042,99.527,99.527,0,0,1-2.255-10.034,21.4,21.4,0,0,1,.738-9.31,21.1,21.1,0,0,1,7.436-10.5c2.2-1.63,4.375-3.378,6.622-4.953a69.463,69.463,0,0,1,8.837-5.189,22.045,22.045,0,0,1,3.7-1.42c1.5-.4,3.055-.682,4.567-1.013,4.751-1.155,9.611-1.837,14.4-2.816,2.283-.5,4.661-.57,6.94-1.089a32.545,32.545,0,0,0,7.735-3.031,49.207,49.207,0,0,0,4.787-3.333c2.181-1.512,4.325-3.1,6.478-4.656,1.738-1.2,3.533-2.362,5.365-3.412l.378-.207.3-.168.163-.084,2.2-2.268a4.506,4.506,0,0,1,2.58.16,7.539,7.539,0,0,1,1.22.646,4.639,4.639,0,0,1,2.255,2.244h0a15.975,15.975,0,0,1,.6,2.4,7.976,7.976,0,0,1,.152,2.625,7.4,7.4,0,0,1-.556,1.693c-.457,1.05-1.026,2.071-1.386,3.168a17.5,17.5,0,0,0-.989,2.808c-.047.612-.06,1.228-.071,1.837,0,.971,0,1.948-.042,2.919-.045.9-.115,1.808-.16,2.711-.042,1.53-.026,3.066,0,4.6a3.016,3.016,0,0,1-.171,1.26c-.081.157-.157.349-.339.412a.425.425,0,0,1-.47-.262c-.123-.262-.2-.588-.444-.756-.5-.181-1.155.706-1.478,1.026-1.874,1.958-2.008,2.176-2.42,4.819a26.411,26.411,0,0,1-1.192,5.01c-.68,2.333-1.42,4.656-2.289,6.926-.646,1.78-1.144,3.622-1.672,5.438a18.4,18.4,0,0,0-1.05,6.071,48,48,0,0,0,.612,4.892c.184,1.383.278,2.787.409,4.176a17.964,17.964,0,0,1-.152,4.58,37.257,37.257,0,0,0-.837,4.354,13.383,13.383,0,0,1-.239,1.74c-.213.829-.493,1.646-.709,2.475-.383,1.441-.549,2.932-.819,4.4a19.588,19.588,0,0,1-.512,2.625c-.43,1.173-1,2.3-1.312,3.517-.215.774-.357,1.575-.525,2.362-.129.593-.312,1.178-.417,1.779-.1.919,0,1.85-.024,2.774-.021.816-.2,1.619-.223,2.438a11.524,11.524,0,0,0,.228,1.989c.076.4.16.921-.31,1.094a1.461,1.461,0,0,1-.525.134c-.262-.018-.546-.055-.816-.084-.908-.079-1.814-.2-2.724-.262h0c-.344,0-.693,0-1.037-.029h0c-1.249-.031-2.488-.228-3.73-.36a23.266,23.266,0,0,0-2.625-.262c-.969-.018-1.94-.021-2.908.039-.444.026-.892.073-1.336.1-.556.016-1.115,0-1.672.016-1.328,0-2.659,0-3.987.052a28.793,28.793,0,0,0-3.362.241c-.866.066-1.732.152-2.591.284a14,14,0,0,0-1.748.278c-1.092.226-2.16.556-3.226.882-.858.291-1.714.614-2.591.853a16.516,16.516,0,0,1-4.257.262,43.291,43.291,0,0,0-8.609.391c-1.459.262-2.911.57-4.373.822a26.2,26.2,0,0,0-2.664.43c-.465.1-.916.262-1.367.4-.837.262-1.672.525-2.528.719a26.876,26.876,0,0,1-4.911.656c-.8.063-1.6.1-2.4.142C171.252,381.738,170.567,381.806,169.882,381.814Z" transform="translate(-162.427 -272.912)" fill="#848a63"/>
    </g>
    <g id="レイヤー_7" data-name="レイヤー 7" transform="translate(208.035 285.959)">
      <path id="パス_8982" data-name="パス 8982" d="M447.694,441.163c-2.176.087-3.674-.816-5.551-1.727a7.9,7.9,0,0,0-1.192-.415c-.375-.095-.787-.163-1.165-.223-.178.2-2.7-1.837-2.871-1.916a26.587,26.587,0,0,0-2.979.454c-.724.152-1.446.341-2.178.438-.688.079-1.386.074-2.073.147a16.877,16.877,0,0,1-3.213.184,4.081,4.081,0,0,1-2.593-1.05c-.525-.381-1.1-.693-1.6-1.1-.774-.622-1.375-1.423-2.1-2.1a4.423,4.423,0,0,1-1.446-1.882,4.272,4.272,0,0,1-.213-.9,6.587,6.587,0,0,1,.108-1.4,7.482,7.482,0,0,1,1.444-2.69,6.591,6.591,0,0,0,1.029-2.625,7.376,7.376,0,0,0,.013-1.614c-.084-1.656-.079-3.323-.037-4.987.073-1.079.3-2.144.362-3.223.052-.908.113-1.822.147-2.73a31.872,31.872,0,0,1,.228-3.674c.1-.816.263-1.635.352-2.454s.155-1.69.3-2.525c.286-1.753.7-3.491.89-5.249.06-1.714.654-2.325,1.383-3.751a9.811,9.811,0,0,0,.551-3.764,18.6,18.6,0,0,0,.173-2.412,4.06,4.06,0,0,0-.462-1.559,16.067,16.067,0,0,1-.751-1.486c-.336-.9-.556-1.837-.845-2.761-.247-.882-.507-1.766-.7-2.661-.118-.575-.147-1.165-.234-1.743-.1-.735-.236-1.465-.333-2.2q-.207-1.685-.422-3.37a19.82,19.82,0,0,0-.6-3.181c-.262-1.05-.609-2.073-.919-3.108a8.488,8.488,0,0,1-.239-1.171,8.5,8.5,0,0,0-.2-1.21,9.535,9.535,0,0,0-2.031-3.026c-.843-1.005-1.575-2.1-2.362-3.15-.464-.648-.94-1.312-1.373-1.971-.328-.525-.633-1.081-.95-1.619a20.426,20.426,0,0,1-1.108-1.989c-.391-.874-.787-1.751-1.1-2.656-.5-1.478-1.136-3.412-.472-4.89a2.956,2.956,0,0,1,1.05-1.312c.391-.262.787-.525,1.21-.772a4.094,4.094,0,0,1,.814-.4,3.15,3.15,0,0,1,1.131-.034c.68.058,1.352.207,2.031.281,1.349.178,2.709.307,4.052.525.911.15,1.822.318,2.732.475.842.134,1.69.239,2.53.378a21.76,21.76,0,0,0,4.15.339c1.131,0,2.265.071,3.4.089.682.018,1.367.029,2.047.042.787.045,1.562.084,2.341.089a25.615,25.615,0,0,0,3.231-.276,15.991,15.991,0,0,1,2.7-.157c1.268.1,2.525.331,3.779.525.819.144,1.651.189,2.478.263.9.1,1.8.215,2.7.294.787.076,1.6.094,2.394.16a35.486,35.486,0,0,0,3.879.171c.606-.029,1.218-.024,1.822-.1a7.332,7.332,0,0,0,1.588-.478,18.692,18.692,0,0,1,2.625-.961,12.765,12.765,0,0,1,2.3-.22c.735-.034,1.472-.1,2.207-.144,1.575-.066,3.129-.323,4.7-.43,1.934-.087,3.877-.092,5.814-.144.882,0,1.766-.079,2.651-.1a20.465,20.465,0,0,0,3.026-.189c.974-.176,1.932-.449,2.905-.622a49.573,49.573,0,0,0,4.987-1.034,46.675,46.675,0,0,0,4.8-1.554c1.142-.417,2.291-.827,3.412-1.331a5.053,5.053,0,0,0,.871-.619c.449-.36.9-.719,1.36-1.068.7-.525,1.475-.911,2.189-1.4.486-.312.958-.646,1.446-.955a19.7,19.7,0,0,1,2.924-1.325c.68-.262,1.354-.554,2.047-.787a20.881,20.881,0,0,1,2.525-.63,5.92,5.92,0,0,1,.963-.089,7.4,7.4,0,0,1,1.375.218c.262.066.509.142.759.228a1.336,1.336,0,0,1,.525.289,2.956,2.956,0,0,1,.577,1.654,8.742,8.742,0,0,1-1.312,5.328c-1.186,2.192-2.412,4.394-3.774,6.486a63.4,63.4,0,0,1-4.018,5.249c-3.627,4.593-7.5,9.021-11.286,13.478-1.837,2.16-3.506,4.554-5.163,6.861-3.213,4.36-6.661,8.638-9.331,13.367-2.31,4.142-3.764,8.766-5.354,13.213a94.643,94.643,0,0,1-7.9,16.955c-2.2,4.2-4.7,8.3-7.26,12.27-1.575,2.541-3.076,5.2-4.8,7.64a18.634,18.634,0,0,1-3.087,3.622,23.147,23.147,0,0,1-3.333,2.139A10.409,10.409,0,0,1,447.694,441.163Z" transform="translate(-410.07 -330.72)" fill="#ffffe4"/>
    </g>
    <g id="レイヤー_6" data-name="レイヤー 6" transform="translate(137.776 273.058)">
      <path id="パス_8983" data-name="パス 8983" d="M487.8,459.659a32.052,32.052,0,0,1-5.827-.913,25.876,25.876,0,0,1-3.882-1.47,14.711,14.711,0,0,0-1.517-.438c-.583-.15-1.672-.323-1.976-.879a1.365,1.365,0,0,1-.139-.706,1,1,0,0,1,.1-.462,1.659,1.659,0,0,1,.48-.357c.262-.152.5-.336.745-.509a12.441,12.441,0,0,0,1.541-1.36,13.49,13.49,0,0,1,2.325-2.252,3.15,3.15,0,0,1,1.717-.525c.882.05,1.751.262,2.625.31a10.354,10.354,0,0,0,3.047-.312,5.708,5.708,0,0,0,3.551-2.727,7.946,7.946,0,0,0,.8-3.556c.147-1.514.226-3.808,1.076-5.089a9.049,9.049,0,0,1,1.457-1.268,10.461,10.461,0,0,0,2.793-3.291c2.656-5.3.761-8.714-.845-13.863-.8-2.3-1.517-4.656-2.1-7.021a23.577,23.577,0,0,1-1.079-6.732,10.2,10.2,0,0,1,1.362-5.444c1.793-3.247,4.152-4.974,7.071-7.087a67.934,67.934,0,0,0,6.234-5.512c1.312-1.215,2.643-2.475,3.837-3.811a63.154,63.154,0,0,1,5.535-5.892,18.372,18.372,0,0,1,3.937-2.769,21.876,21.876,0,0,1,4.706-1.648c.677-.126,1.378-.189,2.058-.3.787-.134,1.575-.307,2.346-.467a48.593,48.593,0,0,0,12.53-4.265c1.709-1,3.491-1.89,5.173-2.934a21.107,21.107,0,0,0,4.743-4.386c1.654-2.142,1.43-3.593,4.094-5.157a6.676,6.676,0,0,1,1.709-.787c.546-.144,1.121-.194,1.677-.283,1.2-.181,2.4-.423,3.591-.672,0,0,.024.026.024.024a21.307,21.307,0,0,0-.263,3.375,5.957,5.957,0,0,1,.137,1.2,42.877,42.877,0,0,1-.3,4.339c-.31,2.008-.69,4.013-1.073,6.008a72.143,72.143,0,0,0-1.381,7.139,54.514,54.514,0,0,0-.349,7.966c.029,2.493.013,5.021.228,7.509.147,1.808.543,3.609.806,5.4.2,1.451.218,2.947.354,4.4.36,4.026,2.052,7.78,2.8,11.727.278,1.877.291,3.8.486,5.682.189,2.27.541,4.533.956,6.772.4,1.945.656,3.937,1.087,5.863.365,1.478.858,2.932,1.312,4.383a9.247,9.247,0,0,0,4.084,5.058c1.724,1.2,3.874,2.942,3.835,5.236a13.533,13.533,0,0,1-.362,2.693,5.129,5.129,0,0,1-.73,1.971,12.136,12.136,0,0,1-1.5,1.591c-.567.509-1.121,1.05-1.727,1.509a16.539,16.539,0,0,1-2.672,1.257c-1.037.457-2.1.853-3.15,1.273a11.389,11.389,0,0,1-4.417,1.05,19.467,19.467,0,0,1-4.2-.591c-1.05-.278-2.1-.619-3.15-.845a15.332,15.332,0,0,0-1.533-.3c-.525-.071-1.05-.094-1.593-.136-.877-.071-1.756-.176-2.625-.186a14.991,14.991,0,0,0-3.976.354,28.011,28.011,0,0,1-2.753.772,9.937,9.937,0,0,1-1.425.018c-1.008-.018-2.013-.092-3.013-.178a11.194,11.194,0,0,1-2.362-.312c-.806-.2-1.575-.567-2.362-.743a5.06,5.06,0,0,0-1.336-.084c-.619,0-1.241.018-1.861.055-.955.068-1.906.2-2.858.307-1.278.11-2.564.147-3.842.262a22.241,22.241,0,0,0-2.491.465c-.913.173-1.824.362-2.727.583a12.682,12.682,0,0,1-1.772.294c-.509.021-1.024,0-1.533,0-.974-.018-1.947,0-2.921.013-1.874.029-3.751.042-5.625.089-1.483.081-2.971.11-4.462.215-1.024.094-2.045.262-3.071.3-1.134.06-2.273,0-3.412.155l-1.743.241c-.787.131-1.575.289-2.362.4A15.832,15.832,0,0,1,487.8,459.659Z" transform="translate(-387.298 -335.594)" fill="#fcfbcd"/>
      <path id="パス_8984" data-name="パス 8984" d="M151.917,377.012a2.94,2.94,0,0,1-2.3-.971,4.5,4.5,0,0,1-.451-2.984,20.556,20.556,0,0,1,.575-2.756c.367-1.407.711-2.822,1.05-4.234.307-1.234.37-2.514.638-3.756a29.518,29.518,0,0,0,1.05-8.661,12.289,12.289,0,0,0-.963-4.724c-.5-1.05-1.05-2.087-1.493-3.171a31.777,31.777,0,0,1-1.588-5.436,28.608,28.608,0,0,1-.9-6.6c-.016-1.5.018-3.021.11-4.52q.142-1.614.192-3.239c.1-2.966.06-5.942.018-8.908a35.928,35.928,0,0,0-.236-3.674c-.155-1.1-.407-2.2-.625-3.291-.36-1.546-.606-3.123-.995-4.661a29.056,29.056,0,0,0-1.52-4,28.311,28.311,0,0,1-1.837-4.782,5.565,5.565,0,0,1-.139-2.79,6.633,6.633,0,0,1,1.612-2.989,5.883,5.883,0,0,1,1.113-1.024,8.215,8.215,0,0,1,1.465-.693,9.2,9.2,0,0,1,2.982-.286c.585.021,1.165.1,1.745.178.714.092,1.436.173,2.144.307.845.155,1.643.5,2.475.709a17.368,17.368,0,0,0,3.344.546,11.107,11.107,0,0,1,2.625.588c1.591.5,3.042,1.357,4.638,1.837a16.835,16.835,0,0,0,3.787.454,36.522,36.522,0,0,0,5.488-.262,22.079,22.079,0,0,1,5.063.108c.493.053.984.144,1.48.168a17.029,17.029,0,0,0,1.866-.042,28.966,28.966,0,0,0,4.318-.675c.861-.178,1.738-.312,2.583-.562,1.223-.349,2.4-.845,3.612-1.249a67.374,67.374,0,0,1,7.3-2.129c.934-.189,1.877-.42,2.816-.585,1.024-.178,2.071-.291,3.1-.415,1.864-.194,3.732-.423,5.6-.543,1.69-.071,3.391-.116,5.071-.336,1.328-.2,2.625-.593,3.937-.895a35.716,35.716,0,0,0,6.709-2.262c1.289-.682,2.664-1.535,3.832-2.192a3.719,3.719,0,0,1,1.63.108,1.475,1.475,0,0,1,.4.207.525.525,0,0,1,.218.312.438.438,0,0,1-.039.215,2.617,2.617,0,0,1-.871.874c-.648.493-1.312.987-1.924,1.528a6.561,6.561,0,0,0-1.625,1.982,5.931,5.931,0,0,1-.554,1.312c-1.294,1.36-3.058,2.21-4.294,3.635a11.749,11.749,0,0,0-1.01,1.6,8.61,8.61,0,0,1-1.283,1.575,32.331,32.331,0,0,1-2.64,2.142c-.719.525-1.4,1.134-2.16,1.6a12.97,12.97,0,0,1-2.037.882,31.389,31.389,0,0,1-4.307,1.234,19.026,19.026,0,0,1-6.113.126c-.787-.06-1.6-.042-2.4-.068a17.719,17.719,0,0,0-2.449.018,19.685,19.685,0,0,0-5.415,1.549c-1.373.609-2.685,1.394-4.031,2.055a24.571,24.571,0,0,1-4.462,1.732,48.007,48.007,0,0,0-8.493,3.116c-1.171.541-2.4,1.018-3.53,1.648a26.2,26.2,0,0,0-3.541,2.5c-2.362,1.942-5.008,3.675-6.824,6.178-3.365,4.493-4.895,8.2-2.793,13.709a49.346,49.346,0,0,0,3.493,6.824c1.3,1.992,2.808,3.861,4.073,5.874,1.887,2.887,3.325,6.037,4.926,9.063,1.5,3.037,4.648,6.766,4.386,10.2-.194,2.625-2.638,4.283-4.745,5.449a31.009,31.009,0,0,1-2.8,1.378,12.572,12.572,0,0,1-3.995.845c-.942.021-1.89-.157-2.832-.16A11.412,11.412,0,0,0,158.1,374.9a12.917,12.917,0,0,1-4.268,1.69A8.928,8.928,0,0,1,151.917,377.012Z" transform="translate(-142.382 -281.569)" fill="#a9b087"/>
    </g>
    <g id="レイヤー_5" data-name="レイヤー 5" transform="translate(137.169 271.395)">
      <path id="パス_8985" data-name="パス 8985" d="M146.308,379.418a1.276,1.276,0,0,1-.84-.446,5.7,5.7,0,0,1-.814-1.213,11.791,11.791,0,0,1-.787-2.3,14.96,14.96,0,0,1-.451-3.071c-.063-.887-.194-1.772-.213-2.661a14.1,14.1,0,0,1,.262-2.816c.283-1.593.787-3.15,1-4.753.123-.853.139-1.719.2-2.58.094-1.084.2-2.171.218-3.26.11-2.958.018-5.919.1-8.874.081-2.549.029-5.1.063-7.648.029-.892.092-1.785.139-2.677a13.962,13.962,0,0,0,.026-1.753c-.087-.906-.276-1.8-.407-2.7-.139-.976-.239-1.963-.365-2.942-.087-.787-.089-1.575-.165-2.362-.1-.882-.3-1.751-.475-2.625-.226-1.131-.262-2.291-.391-3.438-.152-1.438-.315-2.887-.412-4.325-.068-.966-.094-1.937-.092-2.9,0-.748.066-1.5,0-2.244-.139-1.312-.493-2.606-.664-3.921-.21-1.472-.262-2.966-.344-4.462a28.809,28.809,0,0,1,.073-3.228c.058-.654.134-1.312.152-1.966a10.363,10.363,0,0,0-.1-1.241,7.8,7.8,0,0,0-.858-2.559c-.168-.349-.37-.688-.525-1.05a5.683,5.683,0,0,1-.409-1.354,8.137,8.137,0,0,1,.058-3.5,6.616,6.616,0,0,1,.892-1.719c.291-.451.612-.887.942-1.312a4.762,4.762,0,0,1,.672-.743c.465-.354.911-.745,1.4-1.05a5.926,5.926,0,0,1,1.383-.617,5.606,5.606,0,0,1,2.26-.06,13.985,13.985,0,0,0,2.034.512c1.575.2,3.15.131,4.7.386.617.095,1.215.283,1.819.42.546.131,1.1.223,1.654.3,1.312.194,2.6.48,3.913.554.766.063,1.541.042,2.3.1a13.406,13.406,0,0,1,1.7.312,23.606,23.606,0,0,0,4.16.546,12.488,12.488,0,0,1,3.7.685c.525.184,1.05.354,1.588.525a11.047,11.047,0,0,0,1.186.365,14.7,14.7,0,0,0,2.42.249,8.9,8.9,0,0,0,1.349,0,5.871,5.871,0,0,0,1.535-.525c.654-.3,1.312-.6,1.945-.932a36.989,36.989,0,0,1,4.226-1.832,19.644,19.644,0,0,1,3.312-1.152,29.175,29.175,0,0,1,4.3-.488c1.115-.076,2.234-.194,3.344-.328,1.89-.281,3.774-.612,5.646-1.008,1.373-.239,2.753-.444,4.139-.6,1.509-.2,3.031-.244,4.551-.318a35.325,35.325,0,0,0,4.1-.5c1.887-.394,3.7-1.05,5.546-1.612,1.05-.36,2.134-.554,3.184-.89,1.354-.428,2.654-1.016,3.992-1.483,1.011-.37,2.068-.6,3.108-.885.281-.073.577-.15.861-.218l2.995.7c.055.055-.089.066-.115.084a10.275,10.275,0,0,0-4.249,2.53c-.787.7-1.483,1.512-2.315,2.163a10.019,10.019,0,0,1-2.525,1.423,15.379,15.379,0,0,1-2.94.766c-.554.089-1.118.126-1.669.226a19.948,19.948,0,0,0-2.829.934c-.651.262-1.312.507-1.976.753-.766.3-1.535.63-2.32.879a24.732,24.732,0,0,1-3.58.95,37.631,37.631,0,0,1-3.845.2c-1.514.039-3.034.052-4.549.058-.987,0-1.982.042-2.963.1a9.062,9.062,0,0,0-2.255.339,33.4,33.4,0,0,0-3.724,1.575,31.364,31.364,0,0,1-3.564,1.349,13.152,13.152,0,0,1-4.837.22c-.89-.071-1.78-.165-2.661-.291-.732-.11-1.459-.247-2.2-.307a6.723,6.723,0,0,0-1.194-.021,15.017,15.017,0,0,0-1.7.37,7.031,7.031,0,0,1-1.522.11h0a4.726,4.726,0,0,0-1.446.394c-.7.281-1.4.583-2.1.864a16.189,16.189,0,0,0-3.331,1.832c-.966.64-1.95,1.265-2.955,1.837a4.4,4.4,0,0,1-1.168.525,1.409,1.409,0,0,1-.835-.118,14.384,14.384,0,0,1-3.514-2.966c-.575-.564-1.184-1.1-1.8-1.619a9.168,9.168,0,0,0-2.013-1.381,18.832,18.832,0,0,0-3.31-.99,14.513,14.513,0,0,1-3.126-1.417c-.693-.391-1.375-.811-2.073-1.189a6.734,6.734,0,0,0-2.394-.905,5.248,5.248,0,0,0-1.717-.071,4.838,4.838,0,0,0-1.286.562,3.354,3.354,0,0,0-1.575,1.711,5.845,5.845,0,0,0-.549,2.911,12.753,12.753,0,0,0,.937,3.1,27.176,27.176,0,0,0,1.79,3.905,4.706,4.706,0,0,1,.575,2.16c.063,1,.013,2.008.029,3.008.037,1.1.115,2.2.181,3.3.073,1.213.181,2.428.234,3.64.058,1.4.045,2.8.108,4.2.079,1.612.37,3.21.465,4.822.1,2.328.123,4.664.262,6.989.192,2.7.134,6.249,2.021,8.375.585.593,1.373.953,1.969,1.538,1.066.979,1.129,2.533,1.1,3.884-.013,1.417-.142,2.837-.262,4.249-.173,2.415-.423,4.84-.375,7.265.079,1.808.4,3.6.541,5.409.1,1.252.11,2.52.121,3.777a27.975,27.975,0,0,1-.089,3.249,10.3,10.3,0,0,1-.864,3.255,13.354,13.354,0,0,1-1.394,1.863c-.549.682-1.063,1.4-1.541,2.136a8.617,8.617,0,0,0-1.378,3.677c-.139,1.157-.142,2.331-.168,3.5a9.685,9.685,0,0,1-.063,1.433C146.6,379.216,146.5,379.413,146.308,379.418Z" transform="translate(-140.069 -275.23)" fill="#bdc39a"/>
      <path id="パス_8986" data-name="パス 8986" d="M724.937,446.82a16,16,0,0,1-4.593-.478c-.858-.213-1.688-.525-2.533-.8a31.745,31.745,0,0,0-3.961-.787c-1.606-.168-3.226-.247-4.837-.346-.672-.06-1.344-.126-2.018-.155a7.549,7.549,0,0,0-1.168-.029c-.766.06-1.522.236-2.291.3a17.5,17.5,0,0,1-4.176-.142,10.113,10.113,0,0,1-2.4-.745,8.422,8.422,0,0,0-1.617-.69v-.034h0a8.064,8.064,0,0,1,.816-.769,6.712,6.712,0,0,1,1.181-.525,27.183,27.183,0,0,1,3.512-1.178c.835-.194,1.672-.391,2.5-.606a9.315,9.315,0,0,1,3.034-.423,11.647,11.647,0,0,1,2.94.5c.882.262,1.719.669,2.577,1.005.507.2,1.05.339,1.556.525.459.152.908.344,1.365.5,1.118.341,2.213.772,3.346,1.05a13.916,13.916,0,0,0,1.769.262,10.282,10.282,0,0,0,2.255.031,31.719,31.719,0,0,0,4.094-.68c.543-.139,1.089-.281,1.627-.428a4.362,4.362,0,0,0,1.837-.882,9.255,9.255,0,0,0,1.234-1.5,23.742,23.742,0,0,0,1.856-2.541c.381-.675.633-1,.362-1.79-.139-.407-.291-.814-.436-1.22a5.679,5.679,0,0,0-.554-1.283,3.4,3.4,0,0,0-3.908-1.4,13.085,13.085,0,0,0-3.047,1.27,29.4,29.4,0,0,1-4.05,2.478,5.023,5.023,0,0,1-2.462.465c-.892-.131-1.732-.643-1.171-1.625,1.341-2.7,3.675-4.693,5.564-6.974,1.656-2.008,1.974-2.761,2.018-5.373a22.157,22.157,0,0,0-.244-3.585,4.371,4.371,0,0,0-1.344-2.748,11.973,11.973,0,0,1-2.625-2.509,4.891,4.891,0,0,1-.373-2.57,19.67,19.67,0,0,0-.318-3.866,30.469,30.469,0,0,0-1.241-3.937c-.465-1.428-.814-2.887-1.139-4.365a12.336,12.336,0,0,0-2.737-5.774,16.033,16.033,0,0,0-3.892-3.722,21.41,21.41,0,0,0-7.9-2.556c-2.32-.333-4.814-.3-6.921-1.451a4.937,4.937,0,0,1-2.378-3.108,6.564,6.564,0,0,1,.664-3.832,16.5,16.5,0,0,1,3.118-3.9,25.235,25.235,0,0,0,5.3-6.609c1.087-2.223,1.837-4.7,3.625-6.493.735-.751,1.588-1.388,2.394-2.063a52.614,52.614,0,0,1,5.737-4.071,33.638,33.638,0,0,0,4.068-2.727,9.574,9.574,0,0,0,1.7-1.528,4.4,4.4,0,0,0,1.05-3.055,6.617,6.617,0,0,0-.42-1.732,7.373,7.373,0,0,1-.945-2.585,1.247,1.247,0,0,1,.281-.858,3.036,3.036,0,0,1,.858-.58,9.265,9.265,0,0,1,2.3-.8,14.207,14.207,0,0,0,1.927-.467,4.432,4.432,0,0,0,2.121-2.436l1.52,1.719c.037.142.074.283.1.428a5.77,5.77,0,0,1,0,1.087,12.129,12.129,0,0,1-.509,2.921c-.262,1.079-.6,2.136-.866,3.215-.223.908-.262,1.837-.4,2.766-.168,1.241-.425,2.467-.682,3.693a9.951,9.951,0,0,0-.215,1.472c0,.6.021,1.2.055,1.8a16.13,16.13,0,0,0,.344,2.887,11.851,11.851,0,0,0,.73,2.223,4.131,4.131,0,0,1,.278,1.984,25.221,25.221,0,0,1-.63,4.029c-.142.858-.22,1.73-.354,2.588-.168,1.184-.357,2.362-.444,3.556s-.415,2.32-.525,3.5a29.3,29.3,0,0,0,.213,3.806,45.556,45.556,0,0,1-.244,5.512,28.64,28.64,0,0,0-.024,4.908,14.765,14.765,0,0,0,.633,3.339,18.788,18.788,0,0,0,1.606,3.388c.354.6.727,1.192,1.037,1.816a13.917,13.917,0,0,1,1.016,3.78,24.156,24.156,0,0,1,.323,4.147c.018,2.467,0,4.937.118,7.4.05,1.134.186,2.265.339,3.388a6.352,6.352,0,0,0,.391,1.664,7.051,7.051,0,0,0,.869,1.373,14.868,14.868,0,0,0,1.236,1.365c.551.525,1.176.966,1.737,1.478a41.252,41.252,0,0,1,4.221,4.556c.4.507.787,1.018,1.223,1.5a8.169,8.169,0,0,1,1.388,1.982,4.161,4.161,0,0,1,.16,1.911c-.06.853-.081,1.711-.113,2.567-.087,1.837-.472,3.412-2.2,4.4a10.167,10.167,0,0,1-1.987.916c-.738.2-1.5.262-2.257.409a21.626,21.626,0,0,0-3.937,1.22c-.753.283-1.535.507-2.278.819-.346.144-.672.339-1.013.493-.635.262-1.268.525-1.919.756a6.792,6.792,0,0,1-1.814.2Z" transform="translate(-548.596 -321.422)" fill="#fef6b9"/>
    </g>
    <g id="レイヤー_4" data-name="レイヤー 4" transform="translate(139.549 270.582)">
      <path id="パス_8987" data-name="パス 8987" d="M497.171,345.573c6.507-1.016,12.073-5.039,16.876-9.291h0c2.412-2.832,6.693-1.94,9.793-2.268-3.223-.787-8.184-.488-10.48,2.5h0c-4.874,3.924-10.113,7.874-16.5,8.756h.024c-3.538.483-7.087.827-10.646,1.218h.024a38.534,38.534,0,0,0-7.323.772,24.535,24.535,0,0,0-6.845.373c-2.822.635-4.932,3.451-8.029,2.32h.024c-1.5-.386-3.068-.349-4.588-.622h0a21.821,21.821,0,0,0-9.4-.63h.024a78.294,78.294,0,0,1-8.982-.092h-.016c-3.412-.659-6.845-.123-10.278-.365h0c-1-.068-1.971-.344-2.958-.493h0c-3.675-.181-7.457-2.394-11.008-.635a.178.178,0,0,0-.336.024.226.226,0,0,0-.2.307c.457.412,1.126-.346,1.646-.4h0a10.313,10.313,0,0,1,6.2.575c1.575.21,3.15.312,4.69.672,3.709.895,7.554-.108,11.286.562a72.693,72.693,0,0,0,14.1-.1c3.15.412,6.223,1.157,9.386,1.462h0c2.785.947,4.546-.263,6.853-1.625h0a8.949,8.949,0,0,1,2.176-.709h0c2.832-.693,5.751.11,8.556-.659H481.2C486.494,346.676,491.869,346.424,497.171,345.573Z" transform="translate(-346.195 -317.498)" fill="#4b4538"/>
      <path id="パス_8988" data-name="パス 8988" d="M757.051,726.108a.181.181,0,0,0-.262.029,4.292,4.292,0,0,1-1.9.992h0c-4.052.94-7.874,2.625-11.879,3.64h.024c-2.887.415-5.858.047-8.774.026h0a12.406,12.406,0,0,1-1.556-.2h-.021c-.373-.089-.751-.144-1.126-.218h0c-3.514-.874-6.989-1.887-10.512-2.73h.013c-1.963-.451-4-.089-5.992-.079-.236-.239-.617.262-.231.346,1.94.047,3.913-.336,5.835.016h0l.409.087h-.016c1.769.362,3.465,1.018,5.249,1.312h0c1.756.417,3.454,1.05,5.228,1.4h-.024c6.163,1.115,12.577.908,18.3-1.837h0c1.383-.446,2.835-.635,4.2-1.126h-.024C754.915,727.376,756.925,727.223,757.051,726.108Z" transform="translate(-566.238 -606.924)" fill="#4b4538"/>
      <path id="パス_8989" data-name="パス 8989" d="M450.582,472.991a12.651,12.651,0,0,0-1.459-5.173v.021c-.2-.454-.436-.892-.654-1.339v.021a26.3,26.3,0,0,1-1.129-2.958v.024c-.538-3.281-.722-6.638-1.968-9.774h0c-.525-1.139-2.081-6.9-3.37-6.5-.118.168.058.425.247.3a8.273,8.273,0,0,1,1.071,1.874v-.021a42.515,42.515,0,0,1,1.606,4.1v-.021c.139.433.286.866.428,1.3h0c1.05,2.848,1.118,5.882,1.654,8.827v-.021a23.939,23.939,0,0,0,1.646,4.01.161.161,0,0,1,0-.021,21.778,21.778,0,0,1,.984,2.223.051.051,0,0,0,0-.021,13.241,13.241,0,0,1,.409,1.685.081.081,0,0,1,0-.021,11.541,11.541,0,0,1,.221,1.837v-.024c.092,1.407-.068,2.814-.105,4.22h0a23.465,23.465,0,0,1-.37,2.9v-.024a51.939,51.939,0,0,0-2.4,12.073h0l-.047.667h0a49.094,49.094,0,0,1-.816,6.441h0v.024h0c-.068.312-.142.625-.207.937h0c-.3,2.22-.879,4.953-.367,7.021.475-.976.058-2.575.294-3.751h0a27.9,27.9,0,0,1,.467-3.412.035.035,0,0,1,0,.016,47.254,47.254,0,0,0,1.024-7.656h0c.168-1.992.423-3.982.709-5.958a.075.075,0,0,1,0,.024C449.651,482.3,451,477.758,450.582,472.991Z" transform="translate(-365.107 -401.321)" fill="#4b4538"/>
      <path id="パス_8990" data-name="パス 8990" d="M405.845,449.366c0-3.087-.073-6.173-.3-9.255-.732-.879-.1,2.5-.178,2.887a.073.073,0,0,1,0-.024C405.59,443.55,405.112,450.505,405.845,449.366Z" transform="translate(-337.983 -395.916)" fill="#e3e0da"/>
      <path id="パス_8991" data-name="パス 8991" d="M405.432,403.663c.388-1.108-.157-2.719-.094-3.987v.021c-.144-1.874-.184-3.766-.462-5.625-.386-.5-.436.491-.263.7.1,1.024.165,2.05.239,3.073h0q.06.937.123,1.874V399.7C405.227,400.921,404.854,402.666,405.432,403.663Z" transform="translate(-337.489 -361.966)" fill="#e3e0da"/>
      <path id="パス_8992" data-name="パス 8992" d="M396.3,493.47c1.609,13.966,1.837,8.787.192-.863.9-.732-1.588,0-1.879.021-.074-.556-.126-1.118-.176-1.677v.024c0-.262.029-1.467-.388-.843a22.178,22.178,0,0,0,.213,2.567l-.462.092h.024a5.742,5.742,0,0,1-.7.1.181.181,0,0,0-.31.034c-.066.677,1.1.134,1.491.134.052.446.108.89.168,1.333-1.837.076-1.764.735.047.357.118.9.236,1.8.365,2.7q-2.412.386-4.824.787a7.87,7.87,0,0,1-.113-2.32c-.764-.787-.262,2.018-.244,2.378l-2.549.423-.142-.748v.021c-.231-.554.031-1.486-.378-1.856-.5.6.139,1.837.163,2.64-1.365.215-2.727.459-4.1.546h.024c-.192.021-.575-.055-.562.234-.312.349.234.554.333.134a37.884,37.884,0,0,0,4.378-.562c.661,4.315,1.365,4.2.354-.058l2.53-.415c.892,7.039,1.612,6.961.352-.058l4.829-.787c.333,3.575,1.021,3.43.354-.055a.184.184,0,1,0-.05-.357q-.189-1.339-.362-2.682c1.913-.037,1.785-.7-.047-.354q-.091-.681-.173-1.367c.525-.1,1.068-.218,1.6-.328C396.157,492.906,396.278,493.207,396.3,493.47Z" transform="translate(-320.923 -432.784)" fill="#e3e0da"/>
      <path id="パス_8993" data-name="パス 8993" d="M440.987,475.566c.22,0,.178-.262.139-.4v.021a30.022,30.022,0,0,1-.722-5.551h0C439.562,467.687,440.509,475.559,440.987,475.566Z" transform="translate(-363.709 -417.571)" fill="#e3e0da"/>
      <path id="パス_8994" data-name="パス 8994" d="M496.89,307.46Z" transform="translate(-405.617 -298.188)" fill="#e3e0da"/>
      <path id="パス_8995" data-name="パス 8995" d="M448.461,329.219c-.451-2.407-.646,5.976-.181,5.863.459-1.672-.066-3.976.181-5.856h0Z" transform="translate(-369.568 -313.916)" fill="#e3e0da"/>
      <path id="パス_8996" data-name="パス 8996" d="M404.212,328.94c-.525,1.312-.136,3.262-.407,4.782.081,1.087-.507,2.6-.06,3.486.559-1.341.262-3.3.507-4.837C404.163,331.318,404.672,329.806,404.212,328.94Z" transform="translate(-336.795 -314.03)" fill="#e3e0da"/>
      <path id="パス_8997" data-name="パス 8997" d="M397.442,616c.861.913-.388-3.635-.349-4.063v.024c-.066-.373-.134-.745-.2-1.116v.021c-.068-.373-.139-.748-.21-1.123v.024c-.394-3.614-1.05-3.31-.352.066h0c.068.37.136.74.207,1.11v-.021c.066.37.134.743.2,1.113a.073.073,0,0,1,0-.024C396.98,613.329,397.209,614.662,397.442,616Z" transform="translate(-331.221 -519.236)" fill="#e3e0da"/>
      <path id="パス_8998" data-name="パス 8998" d="M439.587,611.307c.084.43-.05,7.79.459,5.168-.113-3.412.079-7.244-.633-10.465-.5,1.1.192,2.843.113,4.144h0C439.548,610.53,439.566,610.918,439.587,611.307Z" transform="translate(-363.091 -518.379)" fill="#e3e0da"/>
      <path id="パス_8999" data-name="パス 8999" d="M419.45,555.141c-.916-1.008-.116,4.625-.223,5.176.189,1.1-.163,2.606.341,3.509.446-2.525-.344-5.68-.173-8.4h0a.966.966,0,0,1,.016-.173A.173.173,0,0,0,419.45,555.141Z" transform="translate(-348.174 -480.773)" fill="#e3e0da"/>
      <path id="パス_9000" data-name="パス 9000" d="M411.345,556.33c-.976-1.554.016,6.48.37,6.525.391-1.858-.688-4.331-.436-6.4h0a.064.064,0,0,1,0-.021.176.176,0,0,0,.066-.105Z" transform="translate(-342.216 -481.591)" fill="#e3e0da"/>
      <path id="パス_9001" data-name="パス 9001" d="M418.778,327.723c-.263.063-1.433.042-.871.467,1.008-.1,2.018-.281,3.029-.386v1.037c-.761.168-1.507.4-2.276.525a.207.207,0,0,0-.328.22c.714.4,1.79-.32,2.6-.375-.194,7.073.525,6.625.36-.084,3.8-.69,4-1.457,0-.37v-1c3.27-.231,3.349-.945,0-.365.039-.365-.462-.3-.36.047C420.214,327.534,419.5,327.62,418.778,327.723Z" transform="translate(-347.253 -312.711)" fill="#e3e0da"/>
      <path id="パス_9002" data-name="パス 9002" d="M485.937,302.46c.727-.7-1.9-.113-2.244-.186h0c-.226,0-.449.024-.672.039H483c-2.5-.068-2.362.612.031.357h.024l.323-.018h.315C484.452,302.586,485.192,302.52,485.937,302.46Z" transform="translate(-394.031 -294.243)" fill="#e3e0da"/>
      <path id="パス_9003" data-name="パス 9003" d="M500.518,290.978c1.26-.139,2.945.3,4.008-.178-1.247-.525-3.134.029-4.58-.21C499.457,290.923,500.258,291.023,500.518,290.978Z" transform="translate(-407.756 -285.727)" fill="#e3e0da"/>
      <path id="パス_9004" data-name="パス 9004" d="M502.45,300.716c.336-.084,2.995.207,2.194-.409-.9.173-2.286-.226-2.974.215C501.733,300.845,502.211,300.666,502.45,300.716Z" transform="translate(-409.142 -292.911)" fill="#e3e0da"/>
      <path id="パス_9005" data-name="パス 9005" d="M493.719,311.22l-1.27.089a22.691,22.691,0,0,1,.919-4.724v.021c.024-.063.047-.131.076-.194a.207.207,0,0,0,.089-.276c-.892-.454-1.291,4.423-1.438,5.184-.525-.118-.612.446-.039.36-.352,1.9.331,1.769.362-.016C492.68,311.624,494.523,311.7,493.719,311.22Z" transform="translate(-401.761 -297.19)" fill="#e3e0da"/>
      <path id="パス_9006" data-name="パス 9006" d="M459.879,321.446l.787-.071c-.136.9.478.806.36-.031,3.963-.171,4.055-.884,0-.362.026-1.213.055-2.425.121-3.635a.168.168,0,0,0,0-.244v-.2c.538-.467-.433-2.121-.367.168-1.155.189-2.312.373-3.472.525.173-5.745-.543-5.478-.36.047a10.905,10.905,0,0,1-1.239.1c-.165-.207-.512.087-.307.281a3.5,3.5,0,0,0,1.546-.026c-.163,3.488.538,3.268.36-.045,1.155-.157,2.3-.339,3.454-.525-.066,1.192-.084,2.383-.113,3.575-2.457.2-4.892.591-7.349.8h0C451.071,322.69,459.412,321.427,459.879,321.446Z" transform="translate(-373.188 -302.565)" fill="#e3e0da"/>
      <path id="パス_9007" data-name="パス 9007" d="M477.474,364.4c-1.4-.352-3.294.367-4.858.263-.066-.336-.685-.026-.457.228.525.315,1.26.029,1.853.045C475.08,364.684,476.649,364.981,477.474,364.4Z" transform="translate(-387.339 -340.108)" fill="#e3e0da"/>
      <path id="パス_9008" data-name="パス 9008" d="M485.5,370.89a29.664,29.664,0,0,1-3.675.262h0C480.472,371.874,486.921,371.383,485.5,370.89Z" transform="translate(-394.37 -344.97)" fill="#e3e0da"/>
      <path id="パス_9009" data-name="パス 9009" d="M396.908,349.539c-2.887.262-2.564.921.087.349h-.021l1.433-.262h-.021c.5-.092,1-.192,1.5-.289h0l1.488-.283h0l.152-.029a.173.173,0,0,0,.262-.05c.092-.013.184-.037.276-.05h-.024l.651-.123h.005c4.546-.656,4.168-1.312-.113-.344h0l-.635.121h.021l-.155.029c.016-1.341,0-2.685.11-4.026h0c.013-.113.026-.223.047-.333h0v-.024h0c-.512-1.785-.546,4.092-.525,4.444l-.136.024h-.005l-1.5.289h.024c-.507.094-1.01.194-1.514.291h.016l-1.436.262Z" transform="translate(-330.375 -325.055)" fill="#e3e0da"/>
      <path id="パス_9010" data-name="パス 9010" d="M403.353,370.758a.184.184,0,0,0-.218-.131c-.84.21-1.732.407-2.543.6-.1.7,1.123.018,1.5.018C402.453,371.06,403.256,371.194,403.353,370.758Z" transform="translate(-334.589 -344.773)" fill="#e3e0da"/>
      <path id="パス_9011" data-name="パス 9011" d="M409.289,442.1c-.152.307,4.262.31,4.15,0C413.607,441.8,409.166,441.8,409.289,442.1Z" transform="translate(-341.005 -397.326)" fill="#e3e0da"/>
      <path id="パス_9012" data-name="パス 9012" d="M408.848,453.572c4.89-.31,6.509-1.446.228-.331C408.861,453.042,408.527,453.464,408.848,453.572Z" transform="translate(-340.585 -405.353)" fill="#e3e0da"/>
      <path id="パス_9013" data-name="パス 9013" d="M414.993,460.41c.323.2,4.643.31,3.052-.21h.024a23.227,23.227,0,0,1-2.381-.037h0a3.077,3.077,0,0,1-.433-.063C415.033,459.872,414.665,460.287,414.993,460.41Z" transform="translate(-345.119 -410.716)" fill="#e3e0da"/>
      <path id="パス_9014" data-name="パス 9014" d="M425.254,526.909c.263-.068.832.134.874-.234-.024-.189-.228-.157-.37-.144h.021c-.349.108-1.026-.176-1.189.2C424.627,527.027,425.044,526.869,425.254,526.909Z" transform="translate(-352.293 -459.753)" fill="#e3e0da"/>
      <path id="パス_9015" data-name="パス 9015" d="M449.483,532.4c-.294.134-2.625.068-1.837.588C447.927,532.925,450.368,532.883,449.483,532.4Z" transform="translate(-369.178 -464.089)" fill="#e3e0da"/>
      <path id="パス_9016" data-name="パス 9016" d="M432.715,559.449l-1.417.231c-.1-1.633-.74-1.48-.354.058q-1.108.186-2.218.352c-.1-4.052-.787-3.7-.354.055a14.594,14.594,0,0,1-2.457.247c.095-.307-.3-.307-.412-.081-.144.955,2.315.171,2.9.192.055.562.113,1.121.163,1.682-.239,0-.475,0-.714-.016h0a1.917,1.917,0,0,1-.276-.031.181.181,0,0,0-.315.116c.157.462.937.223,1.333.291.131,1.488.231,2.979.318,4.462v-.021c.722,1.716.034-4.058.039-4.462,1.194.134,2.5-.562.4-.373h-.428c-.05-.575-.108-1.15-.165-1.724.751-.11,1.5-.236,2.244-.359a43.692,43.692,0,0,1,.656,5.415v-.024c.22,1.336-.189,3.094.315,4.231.483-2.963-.178-6.562-.617-9.68C431.639,559.94,433.519,559.89,432.715,559.449Z" transform="translate(-352.962 -482.372)" fill="#e3e0da"/>
      <path id="パス_9017" data-name="パス 9017" d="M415.13,604.49Z" transform="translate(-345.316 -517.258)" fill="#e3e0da"/>
      <path id="パス_9018" data-name="パス 9018" d="M414.6,598.31c-1.874.263-3.724.664-5.577,1.05h-.05l-.165.031h.021l-.158.031h.021l-.176.034h-.024l-.139.026h-.081l-.176.034h0l-.142.026h-.05l-.076.016h-.018a7.589,7.589,0,0,1-2.218.139.189.189,0,0,0-.262.029c0,.772,1.982.2,2.533.189h.026L408,599.9h.029l.157-.029h-.021l.176-.031h.024l.139-.026h.068l.176-.031h-.024l.157-.029h.047l.094-.018h.021c1.068-.218,2.137-.446,3.2-.654h-.021C412.569,598.893,415.542,598.8,414.6,598.31Z" transform="translate(-338.088 -512.7)" fill="#e3e0da"/>
      <path id="パス_9019" data-name="パス 9019" d="M419.211,610.195a.181.181,0,0,0-.281.108c.352.714,2.866-.4,3.674-.386h-.024l.3-.037h0c.575,0,.451-.562-.074-.352h0l-.262.052h.021c-.837.157-1.669.349-2.507.525h.024a5.892,5.892,0,0,1-.877.089Z" transform="translate(-348.119 -520.939)" fill="#e3e0da"/>
      <path id="パス_9020" data-name="パス 9020" d="M411.8,615.2c-.294-.378-1.05.073-1.509.032-.076-1.136-.165-2.27-.262-3.412,1.94-.144,1.94-.827-.029-.36-.016-.2-.031-.409-.05-.617h0v-.171c.4.047.375-.493-.021-.357l-.031-.465h0c0-4.087-.643-1.837-.325.509-.727.1-1.459.181-2.194.215v-.157h0a.259.259,0,0,0,0-.045.073.073,0,0,1,0,.024l-.055-.953a.065.065,0,0,1,0,.021c-.081-1.575-.281-3.129-.215-4.7v.024c-.018-.2.147-.546-.121-.614-.7,1.407.052,3.63-.024,5.291h0a.034.034,0,0,0,0,.016h0a.289.289,0,0,1,0,.047h0c.018.3.034.6.052.906a.064.064,0,0,0,0-.024v.055h0v.118c-2.063-.2-1.9.462.018.362.013.315.029.63.042.945-5.286.262-4.971.953.016.359-.068,1.9.591,1.74.354-.05q1.118-.157,2.234-.336.138,1.7.263,3.4c-1.087.155-2.176.3-3.27.365h.021a5.111,5.111,0,0,1-1.116-.047.181.181,0,0,0-.312,0h0c.108,1.013,3.827.045,4.7.055-.055.428.486.344.354-.05C410.746,615.419,411.594,615.639,411.8,615.2Zm-3.7-3.438-.675.1c0-.3-.024-.606-.037-.908.735-.031,1.47-.113,2.2-.215v.131c.013.221.034.436.05.656C409.132,611.605,408.618,611.689,408.1,611.763Z" transform="translate(-336.538 -517.029)" fill="#e3e0da"/>
      <path id="パス_9021" data-name="パス 9021" d="M410.963,647.543h0l-.013.018h0l.026-.031Z" transform="translate(-342.233 -549.002)" fill="#e3e0da"/>
      <path id="パス_9022" data-name="パス 9022" d="M432.064,306.314c-.394-.333-1.163.176-1.674.171a.181.181,0,0,0-.079-.3h0c-.247-.079-.331.21-.367.4-.669.136-1.339.278-2.01.407h.024l-1.024.194h0c-.323.05-.646.1-.971.147-.126-.307-1.276-.045-.829.341a9.533,9.533,0,0,0,2.887-.331H428c.627-.121,1.255-.262,1.879-.381-.039,1.633-.58,3.719-.116,5.163.5-1.018.11-2.656.346-3.874v.024c.042-.465.076-.929.15-1.391C430.77,306.65,431.82,306.826,432.064,306.314Z" transform="translate(-352.618 -297.236)" fill="#e3e0da"/>
      <path id="パス_9023" data-name="パス 9023" d="M432.451,311.33h-.021Z" transform="translate(-358.075 -301.042)" fill="#e3e0da"/>
      <path id="パス_9024" data-name="パス 9024" d="M326.425,425.178c.173,3.856-.336,8.136.178,11.785.525-2.5,0-5.627.181-8.331C326.669,428.226,327.107,424.239,326.425,425.178Z" transform="translate(-279.85 -384.904)" fill="#e3e0da"/>
      <path id="パス_9025" data-name="パス 9025" d="M314.015,459.285c-.619,1.3-.173,3.192-.4,4.682.113,1.092-.412,2.625.058,3.5.593-2.346.171-5.3.491-7.845C314.34,459.513,314.2,459.258,314.015,459.285Z" transform="translate(-270.34 -410.163)" fill="#e3e0da"/>
      <path id="パス_9026" data-name="パス 9026" d="M323.463,475.933c-.454-.052-.236.69-.3.971.129,1.1-.336,2.625.144,3.525.5-1.129.024-2.887.241-4.2a.184.184,0,0,0-.081-.3Z" transform="translate(-277.426 -422.441)" fill="#e3e0da"/>
      <path id="パス_9027" data-name="パス 9027" d="M334.074,497.31c-.488,1.4.262,3.444.2,5.047.236,1.134-.06,2.682.465,3.614.362-2.436-.457-5.478-.48-8.108h0C334.226,497.683,334.344,497.336,334.074,497.31Z" transform="translate(-285.412 -438.209)" fill="#e3e0da"/>
      <path id="パス_9028" data-name="パス 9028" d="M366.493,343.921c-.486-4-.572,10.525-.115,10.409C366.806,351.134,366.32,347.32,366.493,343.921Z" transform="translate(-309.139 -324.565)" fill="#e3e0da"/>
      <path id="パス_9029" data-name="パス 9029" d="M374.576,361.8h0c-.633-.995-.262,2.176-.312,2.488.181,1.094-.239,2.6.241,3.5C375.025,366.072,374.41,363.718,374.576,361.8Z" transform="translate(-315.129 -338.123)" fill="#e3e0da"/>
      <path id="パス_9030" data-name="パス 9030" d="M243.333,335.337a59.225,59.225,0,0,0-1.667,5.756c-.9.029-1.8.029-2.7,0-1.74.766,6.3.186,6.824.178.989-.735-3.373-.063-3.78-.181.5-1.887,1.013-3.769,1.651-5.614h0c.525-1.312.984-2.829,2.123-3.748h.018c.147-.129.525-.076.47-.349C244.737,331.014,243.858,334.192,243.333,335.337Z" transform="translate(-215.209 -315.808)" fill="#e3e0da"/>
      <path id="パス_9031" data-name="パス 9031" d="M211.77,335.582c-.207.724-.4,1.454-.562,2.192v-.013c-.05.241-.1.486-.155.73a.076.076,0,0,0,0-.024c-.591,2.176.073,2.341.352.073v.021h0v-.026h0c.05-.234.1-.47.147-.7h0a39.854,39.854,0,0,1,1.391-4.724v.013c.357-1.013.722-2.026,1.113-3.029.709.052,1.438,0,2.155.018-1.089,2.1-.231,1.793.394,0h3.367c-1.612,5.15-.764,4.724.388-.045v.021c.155-.43.312-.858.465-1.291a.076.076,0,0,1,0,.024c.186-.42.365-.84.556-1.257,1.5.215,2.1-.409.178-.354a5.883,5.883,0,0,1,1.5-2.081h0a.181.181,0,0,0,.163-.176c-.622-.722-1.748,1.753-2.06,2.247-1.018-.026-2.037-.052-3.058-.087a11.812,11.812,0,0,1,1.375-2.029c-.472-.711-1.48,1.643-1.78,2.016q-.843-.026-1.682-.073h.024c-.207,0-.412-.05-.617-.05.089-.155.173-.312.262-.465,1.895.36,2.68-.234.218-.341v-.016l-.013.016h0c.192-.441.738-.714.892-1.076-.478-.449-1.01.709-1.291,1.037-2.829-.525-3.522.052-.207.341A57.922,57.922,0,0,0,211.77,335.582Zm6.008-7.874a.078.078,0,0,0,0,.021c.042-.081.087-.163.131-.244,1.029.034,2.055.06,3.081.087a23.624,23.624,0,0,0-.9,2.241c-1.076-.113-2.21,0-3.3-.039.3-.706.64-1.386.992-2.068Zm-3.577,2.031c.336-.842.68-1.682,1.087-2.493a7.531,7.531,0,0,0,2.213.223c-.4.756-.766,1.528-1.123,2.3h-2.189Z" transform="translate(-194.627 -310.993)" fill="#e3e0da"/>
      <path id="パス_9032" data-name="パス 9032" d="M186.039,326.421c-.858.037-1.711.1-2.567.165h.024c-.262.058-1.459-.131-.953.37.9.05,1.811-.1,2.714-.134h-.024l.74-.037c-1.118,5.9-.367,5.732.367-.018.84-.031,1.677-.055,2.517-.055-.307.564-2.388,8.349-1.289,7.457a32.131,32.131,0,0,1,1.64-7.37v.024a.321.321,0,0,1,.037-.1c1.953.189,2.423-.47.126-.357a32.3,32.3,0,0,1,1.312-3.3h0a2.121,2.121,0,0,1,.388-.588h0c-.115-1.42-1.64,2.575-1.732,2.929h0c-.116.323-.234.646-.349.971q-1.287,0-2.577.052c.244-1.192.525-2.375.874-3.541v.024a10.738,10.738,0,0,1,.5-1.255c-.084-.709-.538.213-.6.472h0c-.079.218-.155.433-.231.651h0A33.05,33.05,0,0,0,186.039,326.421Z" transform="translate(-173.683 -308.462)" fill="#e3e0da"/>
      <path id="パス_9033" data-name="パス 9033" d="M189.477,326.407c.462-.042.449-.9.727-1.231a4.022,4.022,0,0,1,1.136-1.446C190.857,322.834,189.107,326.047,189.477,326.407Z" transform="translate(-178.851 -310.072)" fill="#e3e0da"/>
      <path id="パス_9034" data-name="パス 9034" d="M151.925,320.786c.074.525.449.031.459-.262l2.336-.052c-.693,1.126.113.885.415,0l1.436-.034c-.126.31-1.394,3.412-.5,2.743a19.328,19.328,0,0,1,.556-1.919h0a6.476,6.476,0,0,1,.349-.843c2.942.123,3.714-.583.173-.362a11.658,11.658,0,0,1,1.94-2.756h0l.018-.013h0c.1-.115.349-.1.328-.307-.787-.609-2.268,2.428-2.682,3.076l-1.4.031c.7-1.147,1.36-2.751,2.745-2.887-1.129-1.218-2.625,2.068-3.165,2.887l-2.425.052c.136-.438.283-.874.433-1.312h0c.142-.772.976-1.7.787-2.388-.892.774-1.1,2.543-1.6,3.7-3.714-.108-4.218.606-.113.362Z" transform="translate(-149.136 -304.811)" fill="#e3e0da"/>
      <path id="パス_9035" data-name="パス 9035" d="M154.431,350.233a3.746,3.746,0,0,1,.05-.42h0v-.024h0a.2.2,0,0,0-.058-.262c-.559-.037-.281,1.024-.386,1.4.076,3.538-.388,7.491.118,10.835.525-3.572-.058-7.766.262-11.548Z" transform="translate(-152.661 -329.214)" fill="#e3e0da"/>
      <path id="パス_9036" data-name="パス 9036" d="M176.549,439.036c.024-1.769.446-3.976-.076-5.556-.457,1.989.05,4.6-.407,6.779-1.375.094-2.748.228-4.123.331h0a8.758,8.758,0,0,1-1.388,0c-1.913.735,5.1.073,5.465.026q-.213,1.614-.438,3.231c-.953.155-1.908.3-2.853.512,0-.386.018-.769.037-1.152v-.01h0c-.016-.189.147-.525-.118-.58-.5.281-.157,1.289-.278,1.816-.7.144-1.383.315-2.079.457.1-1.74-.559-1.438-.352.071a3.58,3.58,0,0,1-.525.068c-.554-.178-.436.625.554.291.031.417.071.837.11,1.255l-1.777.234c-.131-.766-.814-.787-.365.045-.451.06-.9.1-1.357.142h.021a3.809,3.809,0,0,1-.829-.016h0a.207.207,0,0,0-.228,0c-.236.811,2.01.194,2.507.226a22.229,22.229,0,0,1,.654,2.8l-1.249.409h0c-.137.047-.365.052-.341.262.352.412,1.16-.262,1.648-.31.131.761.226,1.528.31,2.294-1.123-.071-.987.564.039.354.171,3.11.85,3,.357-.039,1.344-.026,1.286-.664-.039-.357-.087-.787-.186-1.575-.32-2.362q.614-.2,1.239-.362c.262,6.22.958,5.8.354-.094.538-.147,1.079-.284,1.619-.417.15,1.22-.318,2.874.168,3.9.525-2.575.013-5.774.236-8.541.926-.207,1.869-.357,2.808-.509-1.05,7.255-.289,6.866.37-.06,1.8-.1,2.079-.819.052-.37q.22-1.6.43-3.2c1.354.055,1.52-.6.039-.362C176.47,439.834,176.51,439.435,176.549,439.036Zm-6.911,10.677c-.2.058-.394.121-.591.181a23.214,23.214,0,0,0-.635-2.735c.567-.071,1.131-.144,1.7-.22.084.861.15,1.722.213,2.583C170.1,449.582,169.867,449.65,169.638,449.713Zm2.724-4.78q-.031,2.034-.037,4.073-.827.2-1.651.423c-.063-.845-.126-1.693-.21-2.538,1.168-.013,1.126-.651-.034-.357-.037-.425-.081-.85-.11-1.278.685-.136,1.362-.3,2.045-.446Z" transform="translate(-161.223 -391.132)" fill="#e3e0da"/>
      <path id="パス_9037" data-name="パス 9037" d="M211.012,459.41c-.129-.449.966-4.446.262-3.724a97.487,97.487,0,0,0-1.425,11.357.181.181,0,0,0,.357.05C210.414,464.526,210.708,461.967,211.012,459.41Z" transform="translate(-193.914 -407.446)" fill="#e3e0da"/>
      <path id="パス_9038" data-name="パス 9038" d="M165.365,500.844c.646,3,1.433,5.968,1.961,8.995v-.024c1.184,2.042-1.407-7.913-1.5-8.488v.021a11.065,11.065,0,0,1-.2-1.375C165.137,499.367,165.281,500.595,165.365,500.844Z" transform="translate(-161.041 -440.05)" fill="#e3e0da"/>
      <path id="パス_9039" data-name="パス 9039" d="M221.3,569.24c-.719.018-.05,2.769-.094,3.394.5,3.15.5,6.719,1.383,9.669.084-3.974-1.291-8.543-1.22-12.745h0a.074.074,0,0,0,0-.024h0a.354.354,0,0,1,.016-.129h0A.176.176,0,0,0,221.3,569.24Z" transform="translate(-202.111 -491.26)" fill="#e3e0da"/>
      <path id="パス_9040" data-name="パス 9040" d="M243.642,576.162c.134.441,1.05,8.11,1.375,6.081v.021c-.6-3.15-.987-6.344-1.627-9.488h0c-.055-.3-.113-.6-.171-.9a.077.077,0,0,1,0,.024c-.1-.234.066-1.013-.381-.685a4.926,4.926,0,0,0,.194,1.622v-.021c.079.412.16.824.241,1.236v-.024C243.408,574.744,243.539,575.45,243.642,576.162Z" transform="translate(-218.218 -492.659)" fill="#e3e0da"/>
      <path id="パス_9041" data-name="パス 9041" d="M237.453,580.621c.042-.176.262-.451-.058-.491-1.081,2.026.4,6.037,1.37,8.076.974.743-1.234-3.373-1.026-3.958v.024a20.521,20.521,0,0,1-.333-2.428h0A5.388,5.388,0,0,1,237.453,580.621Z" transform="translate(-213.95 -499.292)" fill="#e3e0da"/>
      <path id="パス_9042" data-name="パス 9042" d="M258.563,543.183c-.835-3.307.094,11.575.806,11.646a.181.181,0,0,0,.178-.2,80.452,80.452,0,0,1-.945-9.045h0A23.774,23.774,0,0,1,258.563,543.183Z" transform="translate(-229.599 -471.688)" fill="#e3e0da"/>
      <path id="パス_9043" data-name="パス 9043" d="M271.7,559.943c-.173-.346.134-3.559-.462-2.7a71.169,71.169,0,0,0,.583,7.845C272.637,566.064,271.566,560.471,271.7,559.943Z" transform="translate(-239.187 -482.307)" fill="#e3e0da"/>
      <path id="パス_9044" data-name="パス 9044" d="M272.46,557.29Z" transform="translate(-240.092 -482.446)" fill="#e3e0da"/>
      <path id="パス_9045" data-name="パス 9045" d="M267.823,573.824c-.063.5,1.129,7.7,1.068,4.648v.024C268.679,577.984,267.894,570.237,267.823,573.824Z" transform="translate(-236.67 -493.944)" fill="#e3e0da"/>
      <path id="パス_9046" data-name="パス 9046" d="M276.462,498.855c-.559-1.394-.451,3.071-.4,3.412v-.024a2.223,2.223,0,0,0,.018.349v-.024c0,.144.013.289.024.43v-.024a.424.424,0,0,0,0,.058v.008h0v.016h0c.081,3.2.787,3.118.357-.037a.075.075,0,0,1,0,.024.09.09,0,0,0,0-.026.074.074,0,0,1,0,.024V503a.066.066,0,0,0,0,.021.321.321,0,0,1,0-.052.073.073,0,0,0,0,.024,2.521,2.521,0,0,0-.024-.42v.024a2.064,2.064,0,0,0-.021-.36v-.01a.2.2,0,0,0,0-.039v.024a27.01,27.01,0,0,1,.018-3.15v.024a1.451,1.451,0,0,1,.021-.186v-.01h0Z" transform="translate(-242.716 -439.15)" fill="#e3e0da"/>
      <path id="パス_9047" data-name="パス 9047" d="M276.17,512.42Z" transform="translate(-242.828 -449.353)" fill="#e3e0da"/>
      <path id="パス_9048" data-name="パス 9048" d="M259.659,391.274c-.073-.289.349-1.667-.247-1.192a61.758,61.758,0,0,0-.126,6.58c.123.43-.323,4.215.367,3.331C259.667,397.088,259.593,394.188,259.659,391.274Z" transform="translate(-230.354 -359.052)" fill="#e3e0da"/>
      <path id="パス_9049" data-name="パス 9049" d="M266.46,385.529c.262,3.231-.15,6.882.428,9.913.433-2.538-.079-5.7-.034-8.433C266.778,386.694,267.019,384.794,266.46,385.529Z" transform="translate(-235.667 -355.643)" fill="#e3e0da"/>
      <path id="パス_9050" data-name="パス 9050" d="M274.707,405.609c.806-2.593.58-5.958.824-8.811.144-.157-.084-.391-.262-.262s-.105.333-.126.5C275.277,399.853,274.471,402.963,274.707,405.609Z" transform="translate(-241.717 -363.857)" fill="#e3e0da"/>
      <path id="パス_9051" data-name="パス 9051" d="M284.11,381.354c.184,2.307.525,4.6.654,6.911v-.024c.228,1.242-.173,2.887.323,3.937.525-3.228-.373-7.068-.593-10.47v.024c-.115-.354.178-1.034-.2-1.2-.333.068-.131.577-.176.827Z" transform="translate(-248.671 -352.08)" fill="#e3e0da"/>
      <path id="パス_9052" data-name="パス 9052" d="M297.458,379.6c.092,3.26-.352,6.942.06,10,.564-2,.092-4.625.262-6.824C297.65,382.372,298.143,378.7,297.458,379.6Z" transform="translate(-258.442 -351.289)" fill="#e3e0da"/>
      <path id="パス_9053" data-name="パス 9053" d="M306.766,404.38c.525-1.441.039-3.52.168-5.163-.189-1.575.186-3.562-.291-4.937-.525,1.428.074,3.491-.066,5.123C306.768,400.989,306.293,402.991,306.766,404.38Z" transform="translate(-265.14 -362.221)" fill="#e3e0da"/>
      <path id="パス_9054" data-name="パス 9054" d="M167.63,658.81Z" transform="translate(-162.776 -557.321)" fill="#e3e0da"/>
      <path id="パス_9055" data-name="パス 9055" d="M166.766,624.083c-.178-.263-.352-.5-.525-.753a.066.066,0,0,1,0,.018,15.086,15.086,0,0,1-1.554-3.108h0l-.32-.989h0c-.15-.567-.291-1.134-.388-1.714v-.029a11.654,11.654,0,0,0,3.911.556.171.171,0,0,0,.079.058c.289,1.908,1,1.919.352-.045a69.875,69.875,0,0,0,9.381-.929.181.181,0,0,0-.045-.357,67.91,67.91,0,0,1-9.415.924,21.506,21.506,0,0,1-.525-5.732.181.181,0,0,0-.247-.168c0-.711,0-1.423.047-2.131h0a.073.073,0,0,1,0-.024h0c-.74-2.386-.349,7.638.247,8.026-.354,0-.711-.013-1.063-.039h0c-.378-.029-.756-.071-1.131-.126-.181-1.63-.507-3.3-.567-4.961v.024a21.44,21.44,0,0,0-.262-3.433c-.029-.769-.047-1.535,0-2.3-.454-.654-.394.719-.388,1,.192,3.071.121,6.525.845,9.4.016.073.024.147.039.218a3.412,3.412,0,0,1-1.887-.827c-.383.129.029.556.241.654.026.357.129.714.186,1.071v-.024c.081.336.168.672.262,1.008h0a.071.071,0,0,0,.013.042v-.021l.315.971v-.021a16.719,16.719,0,0,0,2.719,4.758C167.832,625.322,166.923,624.314,166.766,624.083Z" transform="translate(-159.503 -518.87)" fill="#e3e0da"/>
      <path id="パス_9056" data-name="パス 9056" d="M182.835,663.816c-.087-.157-.165-.32-.244-.48v.021a12.384,12.384,0,0,1-1.3-4.433c.108-.262-.278-.415-.344-.131a12.6,12.6,0,0,0,1.924,5.824C183.538,664.973,182.984,664.036,182.835,663.816Z" transform="translate(-172.6 -557.196)" fill="#e3e0da"/>
      <path id="パス_9057" data-name="パス 9057" d="M214.866,669.506a6.436,6.436,0,0,1-1.654-3.472.181.181,0,0,0-.218-.129c-.315,1.462.979,3.184,1.989,4.268C215.585,670.367,215.086,669.672,214.866,669.506Z" transform="translate(-196.199 -562.55)" fill="#e3e0da"/>
      <path id="パス_9058" data-name="パス 9058" d="M234.487,664.843a4.28,4.28,0,0,1-.318-.339h0a9.359,9.359,0,0,1-1.627-3.186h0c-.068-.157-.071-.459-.307-.412-.215,1.189.929,2.737,1.622,3.782a2.569,2.569,0,0,0,.848.732C235.154,665.31,234.658,664.982,234.487,664.843Z" transform="translate(-210.405 -558.863)" fill="#e3e0da"/>
      <path id="パス_9059" data-name="パス 9059" d="M274.927,647.057c-.042.357,1.01,4.226.995,2.483v.021a17.134,17.134,0,0,1-.787-3.514C274.6,645.422,274.874,646.795,274.927,647.057Z" transform="translate(-241.824 -547.789)" fill="#e3e0da"/>
      <path id="パス_9060" data-name="パス 9060" d="M314.955,577.436a.178.178,0,0,0-.087-.286c-.543.076-.192,1.018-.228,1.412.562,3.273.562,7.031,1.423,10.066C316.251,585.105,314.971,581.124,314.955,577.436Z" transform="translate(-271.143 -497.094)" fill="#e3e0da"/>
      <path id="パス_9061" data-name="パス 9061" d="M329.015,573.572c-.5-.806-.357.995-.336,1.273.433,3.181.394,6.761,1.108,9.743C330.128,581.178,328.9,577.183,329.015,573.572Z" transform="translate(-281.529 -494.303)" fill="#e3e0da"/>
      <path id="パス_9062" data-name="パス 9062" d="M365.289,508.32c-.467,1.2.131,3.055.131,4.462.331,1.485.16,3.462.835,4.706.228-1.971-.659-4.43-.656-6.58v.024q-.047-.853-.1-1.709v.024C365.423,508.966,365.628,508.417,365.289,508.32Z" transform="translate(-308.425 -446.329)" fill="#e3e0da"/>
      <path id="パス_9063" data-name="パス 9063" d="M355.936,423.7c.194-.328-.367-.407-.357-.045h0v.024h0c-.241,2.9-.787,6.283-.373,9.008.551-1.905.16-4.42.467-6.522h0a.075.075,0,0,0,0-.024h0c.071-.787.118-1.575.247-2.362h0a.077.077,0,0,0,0-.024h0Z" transform="translate(-301.009 -383.713)" fill="#e3e0da"/>
      <path id="パス_9064" data-name="パス 9064" d="M339.862,424.264c-.328-.262-.354,8.617.239,6.974C339.875,428.986,340.36,426.319,339.862,424.264Z" transform="translate(-289.633 -384.331)" fill="#e3e0da"/>
      <path id="パス_9065" data-name="パス 9065" d="M313.3,331.955c-.955.129-1.906.276-2.864.378-.2-.244-1.407-.045-.892.354a19.7,19.7,0,0,0,3.674-.36c-1.05,4.528-.247,4.066.375-.052,4.22-.388,4.669-1.165.074-.37q.2-.992.378-1.984c6.4-.774,6.824-1.575.068-.37.11-.612.215-1.226.318-1.837,5.36-.7,5.832-1.509.066-.375.339-1.328-.349-1.066-.373.06-.751.11-1.5.231-2.257.289h-.079c-.076-.06-.181-.026-.262-.013-.593.819,2.134.071,2.541.095-.1.614-.21,1.226-.325,1.837-.85.123-1.7.289-2.554.357-.622-.276-.84.5-.045.362h-.024c.858-.058,1.7-.218,2.554-.346C313.558,330.64,313.43,331.3,313.3,331.955Z" transform="translate(-267.35 -312.189)" fill="#e3e0da"/>
      <path id="パス_9066" data-name="パス 9066" d="M301.19,343.917c-.026.559-.648,1.556-.194,1.932.538-.871.5-2.281.982-3.294v.024c.1-.278.2-.559.3-.837h0c.173-.228.165-.858-.2-.493-.144.4-.289.806-.428,1.21v-.024C301.478,342.938,301.318,343.415,301.19,343.917Z" transform="translate(-261.016 -323.026)" fill="#e3e0da"/>
      <path id="パス_9067" data-name="パス 9067" d="M242.077,373.922c-.323.081-.95-.2-1.087.173,1.787.57,4.215-.223,6.189-.278.9-.808-3.822.2-4.3.068h.024C242.625,373.894,242.352,373.915,242.077,373.922Z" transform="translate(-216.882 -346.895)" fill="#e3e0da"/>
      <path id="パス_9068" data-name="パス 9068" d="M295.675,360.942c-.606-.1-.7.64-.2.381C302.358,360.821,303.62,359.955,295.675,360.942Z" transform="translate(-256.829 -337.3)" fill="#e3e0da"/>
      <path id="パス_9069" data-name="パス 9069" d="M368.433,318.49c-.147,0-.367-.071-.4.142.538.625,2.428-.262,3.278-.286-.052.966-.055,1.929-.034,2.887-1.126.4-2.7.438-3.585,1.121.42.409,2.084-.525,2.769-.546.042.244.425.144.341-.087.163-.042.323-.084.486-.121-.066.648.5.472.354-.087.913-.223,1.837-.417,2.756-.593.391,4.273,1.079,4.084.352-.068,2.548-.333,2.525-1.026-.039-.362-.087-.7-.136-1.407-.189-2.1a.073.073,0,0,1,0,.024c-.045-1.186,0-2.362.055-3.559v-.121c3.622-.787,3.979-1.6.029-.378.291-2.1-.4-1.656-.365.1-.706.192-1.412.383-2.129.525.108-.388-.407-.336-.373.021-.244-.031-.357.331-.089.381a16.777,16.777,0,0,0-.328,2.585c-.625.134-1.249.262-1.877.375h.024A9.327,9.327,0,0,1,368.433,318.49Zm3.352-1.672c.071-.486.126-.971.244-1.449.738-.131,1.465-.352,2.194-.538-.05.845-.079,1.693-.081,2.538-.814.181-1.633.357-2.449.525.029-.357.06-.717.092-1.076Zm-.16,2.777c0-.444.026-.885.05-1.325.824-.173,1.651-.349,2.475-.525a26.928,26.928,0,0,0,.2,2.832c-.911.176-1.822.367-2.724.585Q371.614,320.375,371.624,319.6Z" transform="translate(-310.327 -302.24)" fill="#e3e0da"/>
      <path id="パス_9070" data-name="パス 9070" d="M387.24,401.16Z" transform="translate(-324.746 -367.295)" fill="#e3e0da"/>
      <path id="パス_9071" data-name="パス 9071" d="M357.1,389.981c.163-.026.325-.047.486-.076h-.024c1.184-.21,2.362-.444,3.543-.68v1.559c-1.8,0-1.777.672,0,.362.016,1.129.081,2.26.139,3.388-2.94.06-2.822.753.021.354.1.362-.147,1.05.239,1.228.307-.042.123-.454.15-.664v.039c-.013-.21-.021-.417-.031-.627q1.01-.11,2.024-.239c-.084.824.525.73.357-.045.381.052.367-.478,0-.36-.045-1.157-.081-2.315-.121-3.472,1.575-.081,1.6-.756,0-.362,0-.21-.016-.423-.029-.635a.083.083,0,0,1,0,.024c-.018-.349-.037-.7-.058-1.05h.026c5.527-.69,5.357-1.388-.045-.357a18.866,18.866,0,0,0-.572-4.063c-.525-.181-.144.63-.136.885v-.024c.181,1.081.283,2.176.36,3.27l-1.073.2h.024l-.879.176a22.532,22.532,0,0,1,.126-2.6.178.178,0,0,0-.034-.354c-.748.333-.3,2.247-.449,3.018-.685.134-1.367.281-2.052.409h.024a20.26,20.26,0,0,1-3.241.462c-.068-.192-.344-.123-.417.026C355.442,390.412,356.644,389.981,357.1,389.981Zm6.444,1.724q.039,1.276.092,2.549c-.677.089-1.354.165-2.029.244-.058-1.131-.129-2.262-.139-3.4.682-.1,1.362-.2,2.045-.31.01.31.024.614.031.919Zm-2.081-1.837v-.714l.932-.184h0l1.031-.194q.024.5.055,1.008h0c0,.218.016.433.026.648-.68.1-1.357.215-2.037.307-.01-.286-.01-.577-.008-.866Z" transform="translate(-301.3 -354.846)" fill="#e3e0da"/>
      <path id="パス_9072" data-name="パス 9072" d="M373.411,441.747c-1.423.612,3.454.373,3.829.318l.087,1.328c-.512.076-1.018.181-1.533.239h.016c-1.451.824,3.617-.262,3.974-.262.026.362.055.724.079,1.089h0c0,.236.029.475.042.711a.058.058,0,0,0,0-.021c.2.976-.178,2.375.307,3.15.472-1.013-.073-2.664,0-3.879v.021c-.089-1.391-.215-2.785-.32-4.176h0c-.071-.244.123-.73-.2-.787-.5.9.134,2.438.053,3.541l-2.076.333c-.026-.43-.055-.861-.084-1.294.995.063.958-.567-.024-.354-.05-.774-.113-1.543-.171-2.315h0c.055-.263-.134-.927-.375-.412.034.916.139,1.837.189,2.748l-.312.018h.024a30.578,30.578,0,0,1-3.412.031h.024Z" transform="translate(-314.356 -395.045)" fill="#e3e0da"/>
      <path id="パス_9073" data-name="パス 9073" d="M375.916,476.73c2.134-.323,4.758-.22,6.648-.932-1.444-.328-3.388.386-4.987.417C377.291,476.334,375.126,476.213,375.916,476.73Z" transform="translate(-316.267 -422.28)" fill="#e3e0da"/>
      <path id="パス_9074" data-name="パス 9074" d="M379.237,481.833c-.816-.37-2.147.278-3.123.263a1.364,1.364,0,0,0-.013-.231v.021c-.016-.31-.037-.619-.055-.929a.073.073,0,0,0,0,.024c-.2-.979.168-2.362-.294-3.15-.5,1.079.066,2.8,0,4.084v-.024c0,.089.013.176.018.262a38.117,38.117,0,0,1-5.9.591c-.037-.263-.554-.194-.63.018.827.992,5.108-.223,6.562-.247-.016,2.136.646,1.974.354-.053C377.088,482.179,378.526,482.4,379.237,481.833Z" transform="translate(-311.47 -423.842)" fill="#e3e0da"/>
      <path id="パス_9075" data-name="パス 9075" d="M345.794,602.073l2.493-.352c.835-.808-2.845.157-3.236.092-.066-.381-.139-.758-.231-1.134l.887-.094c-.034,1.024.58.953.357-.039,1.85-.042,1.79-.706-.034-.357-.2-2.194-.4-4.388-.525-6.588a.081.081,0,0,1,0,.024,15.593,15.593,0,0,1,0-1.68h0a.073.073,0,0,0,0-.024v.013c-.887-2.2.087,7.719.163,8.286l-.934.1c-.769-3.53-1.507-3.591-.362.039q-.759.081-1.522.157c-.013-1.927-.68-1.837-.354.034-.551.058-1.105.1-1.659.134h.021a6.526,6.526,0,0,1-.717,0h-.1a.194.194,0,0,0-.333.021c.058.787,2.2.155,2.822.218.113,1.218.3,2.43.525,3.633-2.79.32-5.546.945-8.354,1.074h0a14.819,14.819,0,0,1-2.507-.155c-.186-.7-.341-1.409-.491-2.118v.021c-.087-.263-.168-1.95-.572-1.171q.262,1.575.651,3.131c-.449-.079-.213.451.113.438.407,1.134.525,2.625,1.228,3.546.436-.163-.129-.814-.144-1.142v.021c-.249-.787-.493-1.554-.7-2.344a16.293,16.293,0,0,0,2.425.129h-.024c2.829-.123,5.6-.761,8.415-1.079.262,2.163.958,2.184.36-.031v.024a.205.205,0,0,1,0-.037c.525-.066,1.05-.121,1.591-.171,0,1.15.622,1.087.36-.037.509.045.446-.5-.039-.36-.084-.709-.171-1.417-.281-2.121C345.35,602.141,345.579,602.107,345.794,602.073Zm-2.362,2.428c-.218-1.2-.412-2.407-.525-3.622.525-.052,1.05-.1,1.575-.163.045.189.087.378.129.564v-.024c.034.2.071.4.1.6-1.087-.045-.905.564.063.354.11.7.2,1.412.276,2.118Q344.232,604.4,343.432,604.5Z" transform="translate(-283.363 -507.762)" fill="#e3e0da"/>
      <path id="パス_9076" data-name="パス 9076" d="M350,646Z" transform="translate(-297.28 -547.873)" fill="#e3e0da"/>
      <path id="パス_9077" data-name="パス 9077" d="M349,633.11Z" transform="translate(-296.543 -538.366)" fill="#e3e0da"/>
      <path id="パス_9078" data-name="パス 9078" d="M361.637,615.875a1.359,1.359,0,0,1-.37-.068c-.3-.669-.866.562.6.436,1.331.126,2.643-.612.365-.373h.024C362.046,615.877,361.841,615.885,361.637,615.875Z" transform="translate(-305.321 -525.457)" fill="#e3e0da"/>
      <path id="パス_9079" data-name="パス 9079" d="M334.359,557.087l-.1.018h.021a10.886,10.886,0,0,1-3.782.2c-.84.924,3.3.236,3.772.16h-.024l.113-.021h-.024l.089-.018h0l1.2-.223H335.6l.084-.016h0l.1-.018h-.013l1.483-.3c.15,1.9.462,3.782.735,5.667a5.372,5.372,0,0,1-1.575-.016H336.4a1.115,1.115,0,0,1-.315-.1.181.181,0,0,0-.36.021c.331.772,1.619.462,2.318.457.236,1.575.509,3.15.787,4.724-1.094.129-2.194.241-3.294.323h0a17.638,17.638,0,0,1-1.864,0h0a4.455,4.455,0,0,1-.722-.092c0-.213-.3-.22-.407-.079,0,1.021,3.339.388,4.147.423.131,2.362.769,4.672,1.05,7.016a35.621,35.621,0,0,1-5.047.263h-.016c-.228.039-.583-.231-.7.045.856.837,4.483.089,5.811-.013,1.52,7.087-.525-5.74-.751-6.971h0a2.053,2.053,0,0,1,0-.381c1.575-.157,3.136-.357,4.7-.543-.034,1.05.58.963.357-.045,1.073,0,1.029-.617-.031-.357q-.365-4.081-.677-8.171h0a28.307,28.307,0,0,1-.058-3.058c1.467-.147,1.549-.832,0-.365a.178.178,0,0,0-.336.071l-3.412.719c.115-1.428-.525-1.176-.36.073-.512.108-1.026.215-1.543.318h0l-.081.016h0l-.089.018h0l-1.2.226Zm4.625-.57,2.008-.412c-.052,3.74.467,7.465.74,11.192l-2.549.3c-.278-1.575-.554-3.15-.787-4.724.451-.063.9-.142,1.344-.226h.029c.1-.013.2-.037.3-.055h-.024l.1-.021h.052c1.457-.142,1.36-.787-.063-.354h.024l-.081.013h.024a1.655,1.655,0,0,0-.294.055h.021l-.121.024h-.058c-.438.084-.882.157-1.325.221-.262-1.892-.591-3.785-.738-5.693Z" transform="translate(-282.812 -481.075)" fill="#e3e0da"/>
      <path id="パス_9080" data-name="パス 9080" d="M362.88,548.84Z" transform="translate(-306.78 -476.214)" fill="#e3e0da"/>
      <path id="パス_9081" data-name="パス 9081" d="M363.691,546.4c1.066-.262,2.625.05,3.465-.525-1.575-.341-3.659.357-5.4.354h-.084a.215.215,0,0,0-.281,0C361.095,547,363.242,546.325,363.691,546.4Z" transform="translate(-305.661 -473.959)" fill="#e3e0da"/>
      <path id="パス_9082" data-name="パス 9082" d="M274.223,533.328h0a.181.181,0,0,0-.323.1c1.113.892,3.512-.076,4.926-.1.013.262.024.525.039.787h0a.07.07,0,0,1,0,.024h0c0,.171.018.339.029.509a.073.073,0,0,0,0-.024v.039c-.055,1.575.606,1.528.357-.018v-.031c0-.171-.018-.339-.029-.509h0v-.024h0c-.013-.262-.029-.525-.042-.8,9.422-.829,9.1-1.52-.018-.362-.076-1.478-.108-2.958-.173-4.436,2.541-.6,5.575-.6,7.9-1.362-1.737-.318-3.971.5-5.848.656-.121-.546-1.575-.118-2.1-.262-.042-1.906-.262-3.819-.134-5.722-.722-1.711-.231,5.27-.22,5.716-.538,0-1.073,0-1.606-.026-.121-3.412-.819-3.475-.365,0a8.048,8.048,0,0,1-1.005-.066c-.15-.168-.525,0-.373.231.383.262.958.131,1.412.194.018.189.039.375.06.564h-.165c-.672-.307-.63.525.207.359.013,1.37.661,1.362.357-.024.509-.037,1.013-.126,1.52-.2.06,1.478.092,2.955.173,4.43a25.98,25.98,0,0,1-4.147.436h-.013A2.01,2.01,0,0,1,274.223,533.328Zm6.134-5.446-1.394.231v-.247Zm-2.2.354c-.362.055-.727.1-1.094.136-.018-.178-.034-.357-.053-.525.525.016,1.05.018,1.575.024v.31Z" transform="translate(-241.154 -456.067)" fill="#e3e0da"/>
      <path id="パス_9083" data-name="パス 9083" d="M276.835,594.934a13.246,13.246,0,0,1-2.806.215.2.2,0,0,0-.31-.032c-.024,1.147,5.22-.318,6.228-.331C280.8,593.979,277.205,594.992,276.835,594.934Z" transform="translate(-241.021 -509.87)" fill="#e3e0da"/>
      <path id="パス_9084" data-name="パス 9084" d="M270.557,592.225c2.549.3,5.142-.346,7.7-.525.121.483.247.963.37,1.446-.556.066-1.113.142-1.674.176h.021a8.968,8.968,0,0,1-1.186,0c-.05-.249-.344-.123-.493-.05-.336.887,2.861.22,3.425.223.286,1.677.966,1.667.357-.05,4.446-.491,4.171-1.165-.089-.349-.126-.478-.249-.955-.365-1.436,4.724-.278,4.367-.958-.087-.349-.157-.612-.286-1.228-.409-1.837h0c-.081-.454-.144-.908-.194-1.365h0c-.06-.223.11-.667-.2-.719-.525,1,.3,2.78.436,3.961-1.9.184-3.8.444-5.7.572C272.636,591.456,269.7,591.626,270.557,592.225Z" transform="translate(-238.572 -504.646)" fill="#e3e0da"/>
      <path id="パス_9085" data-name="パス 9085" d="M281.013,626.294c.9-.11,1.808-.218,2.711-.331.073.4,1.346,5.793,1.5,4.092h0a42.549,42.549,0,0,1-1.144-4.139c.617.026.483-.543-.074-.352-.339-4.121-.992-3.693-.357.045-.995.123-1.99.249-2.984.357-.073-.491-.136-.984-.181-1.478h0c-.05-.21.1-.614-.2-.656-.467.446.042,1.522.018,2.165-.64.073-1.281.1-1.924.147h.024c-.709,0-1.415.021-2.121-.032h0l-.213-.021c-.066-.16-.286-.121-.42-.081-.47.963,4.034.341,4.706.344.236,1.478.493,2.953.845,4.407a6.116,6.116,0,0,1-.693-.026h0c-.415-.058-.963,0-1.27-.328,0-.018.026-.029.039-.042h0c.675-1.186-2.31.806,2.01.753.113,1.079.8,1.226.373,0,2.307.163,1.971-.5-.087-.359-.207-.816-.367-1.643-.525-2.467h0c-.118-.664-.234-1.331-.339-2Z" transform="translate(-242.422 -530.642)" fill="#e3e0da"/>
      <path id="パス_9086" data-name="パス 9086" d="M315.951,637.185c-.262-.373-.968.039-1.383-.026h.024a6.309,6.309,0,0,1-.669,0h0l-.15-.018c-.066-.262-.478-.1-.412.136C313.476,637.718,315.9,637.571,315.951,637.185Z" transform="translate(-270.252 -541.239)" fill="#e3e0da"/>
      <path id="パス_9087" data-name="パス 9087" d="M314.935,642.268a3.326,3.326,0,0,1-.774.013c-.105-.231-.433-.045-.344.173.391.423,1.142.115,1.656.113C315.99,642.213,315.2,642.177,314.935,642.268Z" transform="translate(-270.583 -545.052)" fill="#e3e0da"/>
      <path id="パス_9088" data-name="パス 9088" d="M309.084,659.4c8.037-.68,10.908-2,.388-.349h.024C309.231,658.986,308.628,659.125,309.084,659.4Z" transform="translate(-266.981 -556.909)" fill="#e3e0da"/>
      <path id="パス_9089" data-name="パス 9089" d="M245.75,475.9c.787-.766-2.079.081-2.4.045l-.147-1.457c4.231-.105,4.113-.806-.034-.357a47.121,47.121,0,0,1-.341-4.987c-.722-1.808-.084,4.64-.016,4.987h-.181c-.856.039-1.709.079-2.567.068-.047-.675-.1-1.349-.139-2.024a.073.073,0,0,0,0,.024c-.018-.262.1-1.465-.362-.9a28.847,28.847,0,0,0,.142,2.887c-.619,0-1.239-.021-1.858-.052a5.03,5.03,0,0,1,.016-1.142.2.2,0,0,0-.115-.362c-.475.228-.226,1.037-.262,1.48a1.952,1.952,0,0,1-.346-.042c-.451-.318-.58.491.375.4a23.864,23.864,0,0,0,.953,4.514v-.021c.029.092.06.186.092.278h0c.079.525.6.333.336-.126v.024a23.236,23.236,0,0,1-.995-4.606c.617.031,1.236.047,1.853.052.478,8.575,1.231,8.764.357,0,.919,0,1.837-.029,2.751-.081q.071.743.15,1.488a7.648,7.648,0,0,1-1.861.129.207.207,0,0,0-.352-.034c-.165.787,1.772.263,2.249.263.674,6.761,1.4,6.74.354-.055Q244.569,476.111,245.75,475.9Z" transform="translate(-213.783 -417.2)" fill="#e3e0da"/>
      <path id="パス_9090" data-name="パス 9090" d="M258.438,453.775c-1.076.016-2.16.042-3.236-.024-.614.349.394.428.664.388a50.87,50.87,0,0,0,9.735-.766c1.1-.882-5.861.622-6.507.386h.024Z" transform="translate(-227.219 -405.598)" fill="#e3e0da"/>
      <path id="パス_9091" data-name="パス 9091" d="M270.873,439.307a12.8,12.8,0,0,0,5.919-1.087c-1.144-.226-2.654.6-3.921.685h.021a3.836,3.836,0,0,1-1.963.037.192.192,0,0,0-.055.365Z" transform="translate(-238.838 -394.6)" fill="#e3e0da"/>
      <path id="パス_9092" data-name="パス 9092" d="M222.924,451.163c.853-.787-3.412.113-3.853,0h.024l-.969.052h0a10.352,10.352,0,0,1-2.262-.1h0a1.238,1.238,0,0,1-.176-.05c-.052-.236-.425-.142-.386.092.651.693,1.976.341,2.869.42h-.024l.969-.055h-.024C220.375,451.423,221.648,451.3,222.924,451.163Z" transform="translate(-197.934 -403.934)" fill="#e3e0da"/>
      <path id="パス_9093" data-name="パス 9093" d="M232.633,443.257c.383-.079,1.1.218,1.3-.173-.488-.449-1.6-.047-2.291-.218h.024l-.178-.013h-.018l-.218-.016h0l-.2-.016h0a4.958,4.958,0,0,1-.525-.076c-.551-.407-.787.462.475.433h.018l.181.013h-.024l.262.018h0l.176.013h.018A9.632,9.632,0,0,0,232.633,443.257Z" transform="translate(-208.837 -397.885)" fill="#e3e0da"/>
      <path id="パス_9094" data-name="パス 9094" d="M229.29,385.134c.176.43.9-.026,1.26,0h-.024c9.449-1.094,6.189-1.5-.591-.247h.024a4.792,4.792,0,0,1-.509.081h0A.181.181,0,0,0,229.29,385.134Z" transform="translate(-208.252 -354.723)" fill="#e3e0da"/>
      <path id="パス_9095" data-name="パス 9095" d="M218.628,390.755a6.953,6.953,0,0,1-1.633.116h0l-.126-.013a.194.194,0,0,0-.31.144c.766.627,2.22-.021,3.184-.068,1.05,13.911,1.769,13.69.354-.071,1.661-.323,3.307-.73,4.955-1.118-.213,14.373.512,14.031.36-.084,2.283-.375,2.509-1.126,0-.373.281-2.428-.423-1.961-.362.087-1.656.388-3.312.8-4.987,1.126.052-3.486-.643-3.11-.357.071l-.354.071h.024Z" transform="translate(-198.864 -357.329)" fill="#e3e0da"/>
      <path id="パス_9096" data-name="パス 9096" d="M213.258,384.31c-1.4.249-3.328-.241-4.478.407.215.357.874,0,1.244.076H210C210.392,384.664,214.153,384.974,213.258,384.31Z" transform="translate(-193.126 -354.868)" fill="#e3e0da"/>
      <path id="パス_9097" data-name="パス 9097" d="M166.89,404.87Z" transform="translate(-162.23 -370.031)" fill="#e3e0da"/>
      <path id="パス_9098" data-name="パス 9098" d="M166.35,382.958c.042.328.462.168.68.147.039,4.664.738,4.349.354-.068,1.01-.207,2.021-.423,3.034-.617-.1,2.394.572,2.113.36-.071l1.144-.218H171.9c1.05-.2,2.123-.412,3.181-.622.171,1.64.244,3.328.525,4.942-.417.021-.835.042-1.255.045a.173.173,0,0,0-.3,0c-2.134-.194-2.22.47-.037.357a17.788,17.788,0,0,0,.131,2.273,5.9,5.9,0,0,1-.677.087c.039-.945-1.444.787.717.262.139,1.354.312,2.709.383,4.068h0c.184.94-.2,2.3.262,3.039.507-2.121-.184-4.871-.3-7.173,2.454-.328,2.454-1.031-.037-.357a17.743,17.743,0,0,1-.126-2.21c.806,0,1.609-.06,2.412-.118.567-.459-.556-.339-.824-.3h-.092c-.034-1.648-.344-3.336-.436-5a.178.178,0,0,0-.024-.349,23.866,23.866,0,0,1-.042-3.3v-.01h0c.016-.168.024-.336.055-.5h0c-.724-1.071-.394,3.467-.37,3.863-1.073.215-2.15.423-3.223.63h.024l-1.084.21c-.032-2.06-.108-4.118-.262-6.171h0c-.068-.239.121-.711-.2-.787-.478.622.052,1.887-.039,2.711h0c.076,1.433.108,2.869.134,4.3-1.018.2-2.031.412-3.047.617-.081-2.446-.32-4.892-.262-7.349a.029.029,0,0,1,0,.013c-.735-2.381-.1,6.9-.1,7.4l-.318.05a.226.226,0,0,0-.32.2Zm8.157,6.1Z" transform="translate(-161.832 -347.938)" fill="#e3e0da"/>
      <path id="パス_9099" data-name="パス 9099" d="M163.81,433.823c.3.879,4.533-.412,5.585-.37.318-.121,2.441-.094,1.638-.593-2.341.241-4.664.861-7.021.885H164a.1.1,0,0,1,.026,0A.181.181,0,0,0,163.81,433.823Z" transform="translate(-159.959 -390.675)" fill="#e3e0da"/>
      <path id="パス_9100" data-name="パス 9100" d="M168.336,502.2c-.724.58.963.262,1.234.189.31-.129.032-.465-.22-.323h.024a7.623,7.623,0,0,1-1.008.139h-.029Z" transform="translate(-163.165 -441.69)" fill="#e3e0da"/>
      <path id="パス_9101" data-name="パス 9101" d="M159.561,358.316c-.879-.378-2.262.278-3.315.136-.155-.249-.643.094-.36.294C156.639,358.843,159.125,358.788,159.561,358.316Z" transform="translate(-154.05 -335.608)" fill="#e3e0da"/>
      <path id="パス_9102" data-name="パス 9102" d="M153.807,343.023c1.15-.3,2.887.081,3.785-.486C157.7,342.207,152.526,342.564,153.807,343.023Z" transform="translate(-152.43 -323.964)" fill="#e3e0da"/>
      <path id="パス_9103" data-name="パス 9103" d="M286.748,346.512c2.947.43,5.147-.291.475-.3h0C286.974,346.129,286.325,346.166,286.748,346.512Z" transform="translate(-250.527 -326.742)" fill="#e3e0da"/>
      <path id="パス_9104" data-name="パス 9104" d="M346.886,318.373c-.152,0-.388-.039-.4.178.055.328.525.142.759.147,1.724-.454,4.005-.525,5.433-1.373-1.575-.15-3.488.811-5.178.971h.021A5.727,5.727,0,0,1,346.886,318.373Z" transform="translate(-294.692 -305.453)" fill="#e3e0da"/>
      <path id="パス_9105" data-name="パス 9105" d="M175.027,532.51c-1.178,1.281,7.087-.525,7.136-.99-1.459-.157-3.273.787-4.861.913h-.024a7.351,7.351,0,0,1-2.031.165A.181.181,0,0,0,175.027,532.51Z" transform="translate(-168.147 -463.428)" fill="#e3e0da"/>
      <path id="パス_9106" data-name="パス 9106" d="M177.533,526.129c1.152-.118,2.911.134,3.8-.441-1.328-.441-3.226.525-4.68-.108C176.186,525.063,175.929,526.16,177.533,526.129Z" transform="translate(-169.169 -458.957)" fill="#e3e0da"/>
      <path id="パス_9107" data-name="パス 9107" d="M176.3,562.084c.787-.231,2.079.029,2.638-.525-.992-.357-2.491.3-3.646.262-.013-.937-.029-1.879-.068-2.816l.551-.034h-.024l.711-.045h-.024c.9.076.863-.543-.018-.357h.024l-.711.045h.024l-.543.031c-.136-.525.218-1.43-.2-1.761-.241,0-.171.294-.181.462-.593-.262-1.451.037-2.131-.039.029-1.252.076-2.5.11-3.756,5.554-.955,5.8-1.743,0-.37.018-.753.034-1.509.034-2.265.609-.037,1.213-.108,1.816-.171-.123,1.934.541,1.79.362-.037,2.908-.152,2.989-.858,0-.359a44.876,44.876,0,0,0-.3-6.415c-.336-.247-.407.4-.241.57,0,.231.037.462.055.693h0c.1,1.732.11,3.465.129,5.2-.625.066-1.252.134-1.879.173a.176.176,0,0,0-.234,0,10.26,10.26,0,0,1-1.136,0h-.081a3.256,3.256,0,0,1,.084-.6.081.081,0,0,1,0,.021l.013-.031c.21-.147-.039-.446-.231-.286-.2.221-.173.572-.215.853-.459.031-.882-.333-1.27-.331-.262.556.887.6,1.249.693-.055.866-.079,1.735-.137,2.6a3.672,3.672,0,0,1-.509,0c.181-.932-1.682.5.486.362,0,.144-.021.291-.029.436h0v.024h0q-.126,1.52-.262,3.037a4.507,4.507,0,0,1-.593-.026h0a8.058,8.058,0,0,1-1.152-.163h.021a4.006,4.006,0,0,1-.787-.231,69.721,69.721,0,0,0,1.031-6.942h0c.016-.063.029-.126.05-.186-.381-2.063-1.113,6.593-1.428,7.029a.168.168,0,0,0-.047.234c-.063.325-.129.648-.194.974a.169.169,0,0,1,0-.024c-.031.144-.06.291-.094.438a.184.184,0,0,0-.357.055c.7.9,2.3.591,3.352.719-.144.57.428.549.362,0l1.289-.029h0l1.514-.068h.034l1.255-.073h.108c.034.942.052,1.887.066,2.832-.669.073-1.339.113-2.01.152h.021c-.58,0-1.16.034-1.74-.018h.024a4.378,4.378,0,0,1-1.451-.262.181.181,0,0,0-.291-.213c-.43,1.142,2.774.787,3.467.861h0c.667-.037,1.333-.073,2-.15-.094,5.365.614,5.192.36-.034C175.632,562.171,175.97,562.126,176.3,562.084Zm-5.961-3.213c-.407,0-.814-.016-1.22-.045h0a7.038,7.038,0,0,1-1.48-.231c.1-.43.184-.869.262-1.312a8.066,8.066,0,0,0,2.535.412Zm1.963-.047-.373.018h.024l-1.252.026.11-1.157c.509.013,1.016,0,1.522,0-.01.357-.024.732-.031,1.1Zm.137-4.832c-.037,1.115-.074,2.231-.1,3.349-.5.013-1,.024-1.5,0,.113-1.173.234-2.346.307-3.522.436-.034.866-.121,1.3-.189Zm.039-1.682-.024.963c-.428.063-.853.155-1.283.192.058-.842.084-1.688.131-2.533a8.988,8.988,0,0,0,1.189.018C172.5,551.4,172.5,551.851,172.482,552.31Zm2.286,6.383h-.034l-1.239.071h-.026l-.8.037c0-.373.018-.745.026-1.115a7.831,7.831,0,0,0,2.142-.173c0,.391,0,.787.024,1.171Z" transform="translate(-162.282 -472.556)" fill="#e3e0da"/>
      <path id="パス_9108" data-name="パス 9108" d="M177.364,653.627c.36-.081,6.247-.8,4.36-1.087h.021c-3.446.546-6.963,1.423-10.459.921h0c-.079-.018-.157-.039-.234-.063h-.024C169.131,654.194,176.965,653.918,177.364,653.627Z" transform="translate(-165.064 -552.697)" fill="#e3e0da"/>
      <path id="パス_9109" data-name="パス 9109" d="M196.213,659.917c-1.05-.241-2.475.546-3.648.619h.021c-.31.052-.619.1-.934.126-.42-3-1.087-2.869-.365.031a2.447,2.447,0,0,1-.538-.026h-.024a.129.129,0,0,1-.089-.024c-.525-.367-.58.611.735.4,0,.486,2.055,4.885,2.262,3.53a9.1,9.1,0,0,1-1.9-3.559C193.158,660.7,195.116,660.686,196.213,659.917Z" transform="translate(-179.488 -557.066)" fill="#e3e0da"/>
      <path id="パス_9110" data-name="パス 9110" d="M181.524,640.329H181.5c-.073-.283-.467-.084-.352.157.262.409,3.643.614,3.842.231-.638-.467-1.9-.068-2.73-.263h0A3.539,3.539,0,0,1,181.524,640.329Z" transform="translate(-172.733 -543.588)" fill="#e3e0da"/>
      <path id="パス_9111" data-name="パス 9111" d="M243.24,650.86Z" transform="translate(-218.541 -551.458)" fill="#e3e0da"/>
      <path id="パス_9112" data-name="パス 9112" d="M234.611,648.786h.1a7.893,7.893,0,0,0,.766,3.105c.181.262.291.709.6.829.291-.029.152-.325.026-.465h0a6.105,6.105,0,0,1-.449-.824h0l-.165-.428a.081.081,0,0,0,0,.021,8.564,8.564,0,0,1-.428-2.286c4.076-.262,4.087-.966-.026-.357a.181.181,0,1,0-.354.034l-.241.021h0l-1.05.055h.024a12.336,12.336,0,0,1-3.079-.218h0l-.042-.016a.181.181,0,0,0-.339.079C231.1,649.263,233.168,648.731,234.611,648.786Z" transform="translate(-208.739 -549.452)" fill="#e3e0da"/>
      <path id="パス_9113" data-name="パス 9113" d="M220.617,601.446a64.555,64.555,0,0,0,7.543.05c.024.184.052.362.081.543l-.961.066h.024a43.849,43.849,0,0,1-4.845,0h0a4.989,4.989,0,0,1-.735-.094c-1.837.7,6.092.541,6.562.4.381,1.614.362,3.627,1.076,5.031.438-.388-.236-1.522-.213-2.123a.075.075,0,0,0,0,.024c-.186-.982-.352-1.971-.507-2.958,3.758-.131,3.58-.829-.058-.354-.029-.178-.055-.354-.079-.525,1.869.079,1.7-.577-.053-.357-.055-.378-.11-.756-.134-1.137v.024a3.164,3.164,0,0,1,0-.417h0v-.024h0v-.063a.178.178,0,0,0,0-.283c-.73-.118-.2,1.454-.22,1.9a66.538,66.538,0,0,1-7.236-.031h.016a11.922,11.922,0,0,1-1.4-.176h0l-.081-.018c.018-.165-.157-.22-.291-.186-.042-.226-.087-.451-.129-.674v.021c-.341-2.349-1.155-4.635-1.373-6.995-1.121-1.782,1.031,6.583,1.018,7.06v-.024c.066.357.134.711.2,1.068v-.024c.05.263.1.525.152.787v-.021c.037.192.073.383.108.575v-.024h0c.026.144.055.291.081.436a.076.076,0,0,1,0-.024c.016.1.037.2.055.3v-.024c0,.525.546.415.349-.071v.021c-.016-.1-.037-.2-.055-.294v.021c-.026-.136-.05-.262-.076-.415h0v.016a.135.135,0,0,0,0-.029h0c-.037-.189-.071-.375-.108-.562v.024l-.126-.664A8.649,8.649,0,0,0,220.617,601.446Z" transform="translate(-199.393 -508.66)" fill="#e3e0da"/>
      <path id="パス_9114" data-name="パス 9114" d="M287.506,287.206a25.645,25.645,0,0,0,4.42-.787c1.365-.428,2.688-.982,4.026-1.483.654-.262,1.312-.546,1.974-.751a18.455,18.455,0,0,1,4.8-1.139,44.893,44.893,0,0,0,5.654-.57c1.22-.194,2.451-.315,3.674-.488.622-.087,1.249-.168,1.877-.215.677-.055,1.36-.068,2.039-.126s1.373-.186,2.06-.262c.814-.1,1.646-.192,2.449-.312-.05.223-.092.449-.139.669h0c-.856,4.724-.189,5.157.346.094h0v-.024h0c.045-.21.089-.42.131-.633h0c.016-.068.034-.136.052-.2l.021.024a17.775,17.775,0,0,0,2.688-.609c1.244-.3,2.478-.656,3.727-.934.887-.218,1.8-.3,2.7-.475a30.3,30.3,0,0,0,3.449-.971c1.173-.336,2.286-.84,3.412-1.286.835-.318,1.69-.58,2.522-.9.69-.262,1.365-.559,2.06-.806,1.268-.48,2.58-.848,3.829-1.378.357-.147.667-.388,1.013-.556a5.721,5.721,0,0,1,.648-.262c.108-.042.226-.073.331-.123.063-.037.181-.06.171-.157-.084-.11-.247-.126-.373-.171a6.063,6.063,0,0,0-.842-.139,18.145,18.145,0,0,0-2.328-.1,11.121,11.121,0,0,0-4.031.984c-1.029.391-1.961.982-2.953,1.446a27.458,27.458,0,0,1-2.74.982,14.886,14.886,0,0,1-2.228.588c-1.3.2-2.625.247-3.921.417-1.05.136-2.1.394-3.15.549a31.989,31.989,0,0,0-3.331.677c-1.677.465-3.325,1.05-5.037,1.367-1.646.289-3.3.462-4.958.619-.677.055-1.352.163-2.026.239s-1.375.131-2.06.178c-1.129.055-2.255.165-3.386.186-1.226.05-2.459,0-3.674.129-.7.087-1.4.226-2.1.357a19.942,19.942,0,0,0-2.076.465,13.238,13.238,0,0,0-2.58,1.181c-.953.525-1.9,1.063-2.856,1.575-.682.215-2.8,2.656-3.31,3.084v.024Z" transform="translate(-251.17 -272.134)" fill="#e3e0da"/>
      <path id="パス_9115" data-name="パス 9115" d="M300.031,657.634a.609.609,0,0,0-.294-.525,3.11,3.11,0,0,0-.892-.36,12.345,12.345,0,0,0-1.228-.262,18.478,18.478,0,0,0-2.116-.262c-.74-.037-1.486,0-2.228,0-1.908.066-3.816.068-5.727.079-1.108.016-2.218.076-3.325.1s-2.26.029-3.388.055c-1.822.047-3.64.263-5.454.431a66.6,66.6,0,0,0-7.071,1.2c-1.241.236-2.5.388-3.748.583-1.189.184-2.381.388-3.58.525-1.1.121-2.207.158-3.315.2a19.932,19.932,0,0,0-3.029.389c-.94.21-1.858.525-2.779.787a23.089,23.089,0,0,1-2.58.656,8.2,8.2,0,0,0-2.323.756c-.207.139-.633.486-.2.64a2.676,2.676,0,0,0,.871.168c.913.06,3.546-.263,4.507-.354l15.619-1.6a12.343,12.343,0,0,1,1.719-.921c.36-.1.727-.2,1.087-.3a32.258,32.258,0,0,1,4.8-.84c.635-.066,1.276-.094,1.908-.184,1.152-.139,2.281-.472,3.444-.525a35.131,35.131,0,0,1,6.6.48c1.937.365,3.913.454,5.861.74a37.238,37.238,0,0,0,5.157.333c.614,0,1.336-.155,1.535-.824A3.29,3.29,0,0,0,300.031,657.634Z" transform="translate(-220.994 -555.402)" fill="#e3e0da"/>
      <path id="パス_9116" data-name="パス 9116" d="M506.784,285.2c-.074-.05-.024.079-.021.113.016.084.047.247.066.333.06.312.121.651.173.966a14.393,14.393,0,0,1,.247,2.625,12.6,12.6,0,0,1-.318,2.1,5.987,5.987,0,0,1-.929,2.21,11.257,11.257,0,0,1-1.441,1.619,5,5,0,0,0-1.15,1.215,8.105,8.105,0,0,0-.646,2.559,35.631,35.631,0,0,0-.307,3.955c-.071,1.937-.181,3.871-.262,5.808-.021.541-.029,1.081-.034,1.622.018.307-.084.651.089.926l.013.021c.281.318.764.236,1.142.2.706-.089,1.034-.829,1.131-1.459a20.413,20.413,0,0,0,.126-2.5c.018-1.2,0-2.394-.024-3.591a41.969,41.969,0,0,1,.11-4.669,9.5,9.5,0,0,1,.919-3.533,20.69,20.69,0,0,0,1.753-4.081,12.48,12.48,0,0,0,.341-2.554C507.968,288.694,506.863,285.608,506.784,285.2Z" transform="translate(-409.495 -281.761)" fill="#e3e0da"/>
    </g>
    <g id="レイヤー_3" data-name="レイヤー 3" transform="translate(136.137 270.03)">
      <path id="パス_9117" data-name="パス 9117" d="M331.638,385.368a8.665,8.665,0,0,0-.194-1.664,5.836,5.836,0,0,0-.588-1.5,12.291,12.291,0,0,0-1.919-2.465c-.737-.761-1.556-1.436-2.362-2.123s-1.591-1.291-2.362-1.976c-.286-.262-.564-.525-.85-.787s-.525-.478-.806-.722a6.35,6.35,0,0,1-.457-.465,9.211,9.211,0,0,1-.559-.787c-.115-.186-.223-.375-.323-.572a3.856,3.856,0,0,1-.21-.546c-.076-.247-.142-.5-.194-.748a12.751,12.751,0,0,1-.163-1.339.656.656,0,0,1,0,.073v-.073h0c-.029-.543-.058-1.084-.113-1.625-.063-.612-.123-1.226-.2-1.837s-.157-1.234-.215-1.853c-.052-.57-.092-1.142-.129-1.711-.05-.884-.087-1.769-.1-2.654-.013-.525-.018-1.076-.042-1.612s-.066-1.034-.116-1.551c-.055-.556-.126-1.11-.231-1.661a13.15,13.15,0,0,0-.459-1.7c-.354-1.05-.787-2.087-1.213-3.118-.2-.488-.391-.984-.58-1.48s-.357-.945-.525-1.423a28.491,28.491,0,0,1-.745-3.092,40.156,40.156,0,0,1-.625-4.575c-.063-1.165-.1-2.333-.113-3.5s-.029-2.362.045-3.556c.026-.328.058-.656.094-.982.118-1.1.3-2.192.459-3.286.081-.525.16-1.05.226-1.593s.1-1.029.139-1.543c.171-2.255.2-4.512.226-6.769,0-1.1.024-2.2.031-3.294,0-1.029,0-2.055-.055-3.081-.087-2.131-.4-4.244-.525-6.373a29.574,29.574,0,0,1,0-3.163,18.934,18.934,0,0,1,.331-2.234c.163-.743.36-1.478.546-2.215s.4-1.446.638-2.16c.339-1.008.7-2.013.995-3.031a15.137,15.137,0,0,0,.525-3.15,3.868,3.868,0,0,0-.407-2.362,3.473,3.473,0,0,0-1.029-.984l-.026-.018a.89.89,0,0,0-.3-.15,1.282,1.282,0,0,0-.231-.5,1.488,1.488,0,0,0-.4-.386,1.855,1.855,0,0,0-.478-.2,10.8,10.8,0,0,0-2.247-.328,15.6,15.6,0,0,0-1.575-.042,14.745,14.745,0,0,0-1.7.157,8.626,8.626,0,0,0-1.541.375,9.849,9.849,0,0,0-1.512.669,16.689,16.689,0,0,0-2.748,1.772c-.724.6-1.423,1.228-2.136,1.837a19.957,19.957,0,0,1-1.887,1.388,41.617,41.617,0,0,1-4.089,2.231,18.91,18.91,0,0,1-1.892.753,25.118,25.118,0,0,1-2.654.625c-1.079.2-2.165.325-3.255.459s-2.223.241-3.339.336-2.16.22-3.234.383c-.5.076-1.008.157-1.514.218-.564.066-1.129.118-1.693.176-1.144.115-2.294.2-3.438.3q-1.606.147-3.215.247h.042c-1.068.06-2.136.147-3.2.21a41.057,41.057,0,0,0-4.724.354,9.146,9.146,0,0,0-2.152.588,10.365,10.365,0,0,0-.934.5c-.286.165-.58.318-.877.462-.142.066-.283.129-.43.181a5.326,5.326,0,0,1-.525.121,20.611,20.611,0,0,1-2.336.307,16.122,16.122,0,0,1-1.884,0c-.706-.058-1.409-.163-2.115-.262-.493-.066-.987-.144-1.48-.194-.549-.055-1.1-.1-1.646-.115-1.05-.042-2.076-.047-3.118-.053s-2.126-.073-3.189-.1-2.194-.029-3.289-.031h-5.073c.042-.192.084-.381.113-.575.073-.467.113-.934.144-1.407.055-.787.052-1.575.071-2.362s.037-1.627.042-2.441,0-1.633,0-2.449.039-1.575.089-2.362a10.05,10.05,0,0,1,.142-1.121c.045-.2.1-.4.163-.6a6.241,6.241,0,0,1,.283-.635c.438-.835.921-1.643,1.357-2.48a10.6,10.6,0,0,0,1.05-3.013,9.833,9.833,0,0,0,.142-2.588,7.008,7.008,0,0,0-.651-2.362,11.765,11.765,0,0,0-1.312-2.1,7.757,7.757,0,0,0-1.753-1.575,3.846,3.846,0,0,0-.987-.475,5.166,5.166,0,0,0-1.268-.178,11.141,11.141,0,0,0-2.31.073,7.512,7.512,0,0,0-1.354.357c-.323.115-.648.228-.958.373-.738.341-1.457.722-2.189,1.071-.459.215-.921.423-1.394.606-.428.165-.864.312-1.294.467s-.84.3-1.262.446-.787.281-1.181.412a30.353,30.353,0,0,1-3.239.787c-.787.144-1.575.276-2.362.425h.045c-.218.042-.436.081-.656.118-.827.139-1.651.289-2.483.367-.375.037-.753.055-1.129.092-.417.039-.829.1-1.244.16-.843.126-1.68.3-2.507.5-.732.173-1.459.375-2.2.525-.619.115-1.242.223-1.864.341-.525.094-1.05.157-1.588.239-.575.087-1.144.194-1.719.3a33.751,33.751,0,0,1-3.743.433c-1.354.068-2.711.031-4.068.05a17.869,17.869,0,0,0-4.987.759,39.559,39.559,0,0,0-4.606,1.764q-1.092.493-2.194.969c-.73.318-1.467.627-2.168,1-.207.11-.412.228-.614.349a.787.787,0,0,0-.772-.129H177c-.423.018-.848,0-1.27,0-.677,0-1.362.026-2.039-.013a9.4,9.4,0,0,1-.937-.144c-.262-.058-.525-.123-.787-.173a10.2,10.2,0,0,0-1.094-.129,18.032,18.032,0,0,1-2.252-.289h0c-.751-.163-1.475-.428-2.215-.627-.7-.189-1.391-.352-2.1-.5l.11.024c-.772-.163-1.525-.4-2.3-.525a16.51,16.51,0,0,0-2.362-.262c-.874-.034-1.748-.034-2.625-.045s-1.814-.042-2.717-.1c-1.451-.118-2.906-.242-4.346-.454-1.367-.2-2.719-.5-4.092-.651-.958-.1-1.916-.2-2.887-.234a7.278,7.278,0,0,0-1.352.053,6.455,6.455,0,0,0-1.386.365,6.1,6.1,0,0,0-1.391.769,6.528,6.528,0,0,0-1.018.861,5.944,5.944,0,0,0-1.265,2.4,11.212,11.212,0,0,0-.039,6.743,12.813,12.813,0,0,0,.436,1.276c.333.816.675,1.63.95,2.47.074.239.134.483.186.73a20.9,20.9,0,0,1,.262,2.252c.071,1.467.1,2.94.168,4.409s.194,2.887.281,4.325c.034.672.052,1.344.06,2.016q.018,1.36.157,2.711c.089.9.213,1.8.32,2.7s.2,1.869.325,2.8.262,1.884.4,2.829.247,1.856.333,2.79.171,1.892.262,2.84.218,1.9.291,2.858.136,1.971.194,2.958c.047.861.074,1.722.092,2.585s.063,1.672.11,2.507q.126,2.425.157,4.853c0,.974.016,1.947,0,2.921s-.029,1.961-.081,2.937-.11,1.911-.155,2.866c-.039.908-.079,1.819-.139,2.727a30.667,30.667,0,0,1-.467,3.722v-.016c-.163.766-.349,1.528-.525,2.289-.2.845-.4,1.688-.525,2.546a38.624,38.624,0,0,0-.312,5.194V366.5c0,.478.045.958.092,1.436s.11.971.2,1.451.194.919.312,1.373.247.905.378,1.357c.066.226.136.451.21.675a4.949,4.949,0,0,0,.194.543,7.088,7.088,0,0,0,.619,1.05c.136.2.286.394.441.58.123.147.262.286.378.425a.814.814,0,0,0-.1.386,1.17,1.17,0,0,0,.247.661,4.156,4.156,0,0,0,.475.575,9.389,9.389,0,0,0,1.457,1.134c.5.362.958.787,1.449,1.157a6.38,6.38,0,0,0,1.646.945,7.67,7.67,0,0,0,.982.3c.315.068.638.108.958.144.622.071,1.255.108,1.882.118h.32c1.575,0,3.129-.186,4.688-.339a27.064,27.064,0,0,0,4.947-.937c.391-.113.787-.228,1.168-.352a11.689,11.689,0,0,0,1.255-.483l.525-.239a1.024,1.024,0,0,0,.688.307.858.858,0,0,0,.719-.4c.743,0,1.486.032,2.226.066.937.039,1.871.115,2.808.152.727.026,1.451.042,2.178.031a23.653,23.653,0,0,0,2.478-.087c.425-.037.848-.081,1.276-.121s.787-.066,1.176-.113c.84-.1,1.669-.262,2.5-.417l.126-.024c.806-.15,1.619-.239,2.428-.37s1.625-.336,2.436-.525a12.244,12.244,0,0,0,1.286-.349c.407-.139.808-.291,1.213-.446.787-.3,1.575-.593,2.362-.856.438-.136.879-.262,1.331-.357a14.4,14.4,0,0,1,1.575-.163c1.575-.089,3.129-.192,4.693-.281h-.079c.871-.047,1.745-.073,2.625-.087s1.719-.05,2.58-.089a43.489,43.489,0,0,1,4.963,0l.911.073c.866.066,1.735.118,2.6.171s1.693.1,2.543.129,1.648.026,2.472.037c.388,0,.787,0,1.168.016h.3c.042.37.089.74.152,1.108.092.538.189,1.076.307,1.612.055.262.113.509.181.761a2.571,2.571,0,0,0,.328.874.789.789,0,0,0,.118.129,18.8,18.8,0,0,1-.745,1.737c-.105.194-.218.386-.331.575-.189.315-.388.627-.562.95a7.615,7.615,0,0,0-.551,1.262,9.813,9.813,0,0,0-.433,2.462,5.538,5.538,0,0,0,.045,1.234,4.388,4.388,0,0,0,.451,1.312,14.865,14.865,0,0,0,1.409,2.018,8.691,8.691,0,0,0,.787.945,7.9,7.9,0,0,0,1.068.866,9.832,9.832,0,0,0,1.081.627c.354.184.711.373,1.076.541a11.5,11.5,0,0,0,2.446.738c.864.189,1.74.3,2.606.478a13.246,13.246,0,0,1,1.444.373,37.158,37.158,0,0,0,5.467,1.885c.37.073.745.123,1.121.16l.262.021c.171.026.352.026.525.037l.619.031c.69.026,1.381.045,2.071.045.982,0,1.966-.037,2.942-.126.866-.079,1.724-.226,2.588-.312s1.727-.173,2.591-.262,1.774-.184,2.664-.241c.816-.05,1.633-.134,2.449-.181.4-.021.808-.037,1.213-.042.861,0,1.722.031,2.583.068s1.745.079,2.625.11c.824.034,1.651.045,2.475.052s1.717.05,2.572,0a11.659,11.659,0,0,0,2.5-.31c.814-.221,1.612-.5,2.433-.7s1.7-.4,2.535-.64,1.612-.472,2.436-.64c.48-.084.963-.142,1.446-.215s.919-.129,1.383-.157c.756-.037,1.517-.018,2.27-.108.843-.1,1.664-.328,2.493-.493.244-.045.488-.081.73-.115h.029c.262.15.541.312.816.457.433.223.877.425,1.312.646a10.238,10.238,0,0,0,1.423.567,11.724,11.724,0,0,0,1.575.4,10.846,10.846,0,0,0,1.575.181,17.861,17.861,0,0,0,3.15-.354c1.05-.163,2.024-.312,3.047-.378a12.479,12.479,0,0,1,1.328-.016c.223.021.444.047.667.087.325.076.646.173.971.262.407.11.816.2,1.228.289.787.158,1.562.263,2.346.378.407.058.811.126,1.215.2h.034c.089.024.181.039.262.058.593.134,1.178.291,1.769.423s1.178.247,1.772.367c.475.1.95.192,1.433.249.562.068,1.129.108,1.693.139,1.11.068,2.22.1,3.333.108h.756a16.231,16.231,0,0,0,2.525-.157,9.466,9.466,0,0,0,1.472-.354,11.5,11.5,0,0,0,1.428-.63c.525-.241,1.05-.465,1.575-.7a16.4,16.4,0,0,1,1.535-.612l-.047.013c.5-.163,1.005-.325,1.52-.451s1.05-.244,1.575-.346,1.031-.21,1.546-.318a9.386,9.386,0,0,0,1.388-.362,5.248,5.248,0,0,0,1.362-.719,4.724,4.724,0,0,0,1.05-1.184,6.117,6.117,0,0,0,.643-1.486,16.633,16.633,0,0,0,.415-1.619,12.089,12.089,0,0,0,.318-3.005Zm-115.125-12.3c-.832,0-1.667-.018-2.5-.034-1.68-.039-3.357-.163-5.031-.281-.724-.058-1.449-.129-2.173-.152-.787-.024-1.575,0-2.362,0-.879.018-1.759.063-2.638.1s-1.74.042-2.609.063c-1.73.037-3.454.178-5.178.283h-.06c-.7.039-1.415.058-2.115.134a10.7,10.7,0,0,0-2.026.428c-.667.207-1.312.441-1.976.685s-1.312.507-1.979.738c-.5.155-1.005.262-1.514.386s-.963.228-1.451.325-1.016.163-1.525.234c-.262.039-.549.076-.822.121l-.412.071H180l-.155.031-.142.026-.7.136h.016c-.766.139-1.538.239-2.312.31s-1.48.15-2.223.2c-.942.039-1.89.047-2.832.031-1.231-.021-2.457-.108-3.675-.171q1.394-.563,2.822-1.05c.525-.163,1.05-.318,1.575-.451s1.031-.241,1.549-.354c.961-.2,1.919-.423,2.887-.612a5.867,5.867,0,0,1,.6-.087h.3a.811.811,0,0,0,.441,0,.824.824,0,0,0,.509-.378.837.837,0,0,0-.283-1.15,1.049,1.049,0,0,0-.412-.142l-.215-.016a2.736,2.736,0,0,0-.328,0,4.929,4.929,0,0,0-.787.094c-.546.1-1.087.22-1.63.339-1.095.234-2.2.441-3.283.735a39.85,39.85,0,0,0-5.073,1.79c-.819.346-1.635.7-2.444,1.073a22.4,22.4,0,0,1-2.31.992,32.993,32.993,0,0,1-3.412.887c-.971.176-1.945.294-2.926.386s-1.911.2-2.869.262h0a21.958,21.958,0,0,1-2.459-.021c-.488-.037-.971-.087-1.454-.168-.194-.045-.381-.1-.57-.157a3.939,3.939,0,0,1-.525-.22,8.172,8.172,0,0,1-.74-.449c-.362-.262-.7-.572-1.05-.856s-.732-.538-1.108-.787a7.466,7.466,0,0,1-.622-.5c-.089-.087-.176-.173-.262-.262a1.13,1.13,0,0,1-.16-.223.973.973,0,0,0-.055-.1.866.866,0,0,0-.121-.99c-.131-.152-.262-.294-.4-.446a7.869,7.869,0,0,1-.525-.743c-.092-.144-.181-.289-.262-.441a3.246,3.246,0,0,1-.189-.525,29.249,29.249,0,0,1-.853-3.2c-.105-.643-.173-1.291-.223-1.942-.039-.853-.024-1.706,0-2.559.018-.921.045-1.837.11-2.753.071-.772.152-1.541.294-2.3.2-.961.441-1.913.661-2.869.207-.9.4-1.8.525-2.716s.2-1.819.262-2.732.095-1.837.137-2.743c.045-.953.108-1.906.155-2.858.047-1,.058-2.011.073-3.013.016-.937,0-1.877,0-2.814-.029-1.926-.1-3.853-.218-5.774v.079c-.042-.819-.05-1.64-.074-2.459-.029-1.024-.094-2.045-.16-3.066s-.131-2.021-.236-3.029c-.1-.927-.207-1.853-.3-2.782s-.16-1.905-.276-2.856c-.226-1.877-.543-3.743-.748-5.622-.1-.937-.215-1.871-.328-2.808-.1-.837-.2-1.674-.262-2.517-.063-1.189-.052-2.378-.121-3.564-.073-1.228-.178-2.454-.262-3.675,0-.194-.018-.386-.026-.58-.084-1.945-.068-3.9-.291-5.84a12.864,12.864,0,0,0-.22-1.341,10.65,10.65,0,0,0-.423-1.354c-.165-.449-.333-.9-.525-1.344-.16-.388-.323-.772-.457-1.168-.16-.493-.3-.992-.412-1.5-.045-.276-.076-.549-.1-.827-.026-.63,0-1.262.034-1.892a11.766,11.766,0,0,1,.184-1.352,10.192,10.192,0,0,1,.3-1.11c.092-.236.2-.465.307-.69.068-.126.139-.262.213-.375.06-.079.121-.155.186-.231a4.7,4.7,0,0,1,.394-.37c.223-.178.454-.346.69-.507.171-.105.344-.2.525-.289a3.474,3.474,0,0,1,.433-.171c.223-.068.444-.126.669-.176.16-.021.32-.039.483-.05a15.833,15.833,0,0,1,1.693.039c.861.068,1.724.152,2.58.281s1.7.294,2.551.433c.906.147,1.814.262,2.727.354.989.1,1.979.192,2.971.262,1.837.118,3.7.031,5.546.152a14.967,14.967,0,0,1,1.745.262c.341.076.677.168,1.018.262s.727.171,1.094.247h.071c.738.155,1.467.346,2.189.559.423.126.84.262,1.268.378a4.094,4.094,0,0,0,.543.126l.262.052c.213.037.425.073.638.1.454.063.913.108,1.373.142a10.752,10.752,0,0,1,1.228.147,14.122,14.122,0,0,0,1.441.284,17.336,17.336,0,0,0,1.884.05c-.22.116-.438.234-.659.341-.134.06-.262.113-.407.163a3.617,3.617,0,0,1-.457.11l-.189.029a.84.84,0,0,0,0,1.677,4.068,4.068,0,0,0,.971-.165,4.81,4.81,0,0,0,.682-.247c.5-.231.974-.5,1.454-.761.554-.3,1.089-.638,1.625-.971a16.954,16.954,0,0,1,1.554-.863c1.27-.591,2.564-1.131,3.843-1.7a41.473,41.473,0,0,1,3.919-1.528,19.428,19.428,0,0,1,1.882-.488,21.027,21.027,0,0,1,2.291-.289c.709-.037,1.42-.034,2.131-.031h1.123a34.893,34.893,0,0,0,4.905-.4c.774-.118,1.543-.262,2.315-.391.344-.055.685-.1,1.029-.15.43-.06.856-.15,1.283-.231l-.108.021c.486-.092.974-.168,1.459-.262.415-.079.824-.178,1.236-.283.858-.215,1.722-.415,2.593-.585q.811-.147,1.638-.242c.525-.058,1.05-.079,1.562-.134s1.1-.152,1.646-.241,1.15-.2,1.724-.3l-.108.018c.787-.144,1.556-.262,2.333-.415.717-.139,1.428-.312,2.134-.5.315-.081.63-.163.94-.262.357-.11.706-.241,1.05-.365.68-.234,1.357-.467,2.029-.717.362-.134.727-.262,1.084-.4s.717-.3,1.068-.467c.759-.354,1.5-.74,2.255-1.1a11.832,11.832,0,0,1,1.252-.48c.21-.063.417-.121.63-.165a8.485,8.485,0,0,1,.853-.094,13.516,13.516,0,0,1,1.493.026c.178.016.354.037.525.068l.21.058c.06.024.121.05.178.079a3.3,3.3,0,0,1,.412.262,7.655,7.655,0,0,1,.625.5c.2.192.391.391.572.6a8.321,8.321,0,0,1,.525.719,12.149,12.149,0,0,1,.6,1.063,7.753,7.753,0,0,1,.31.727,6.44,6.44,0,0,1,.157.627c.031.2.053.4.066.609v1.029a10.959,10.959,0,0,1-.155,1.131,10.113,10.113,0,0,1-.32,1.134,11.854,11.854,0,0,1-.48,1.129c-.433.822-.908,1.625-1.341,2.446a6.862,6.862,0,0,0-.633,1.627,9.632,9.632,0,0,0-.223,1.667c-.042.816-.084,1.633-.084,2.454v2.425c0,.808-.029,1.606-.045,2.412,0,.766-.018,1.53-.068,2.3a13.445,13.445,0,0,1-.2,1.591c-.029.136-.063.262-.094.409-.953.016-1.905.073-2.858.094-1.05.021-2.1.018-3.134-.055a39.528,39.528,0,0,1-4.6-.7c-1.026-.22-2.047-.48-3.084-.656s-2.071-.3-3.1-.415-2.05-.176-3.076-.281a17.027,17.027,0,0,0-3.079-.147,6.71,6.71,0,0,0-1.4.262,3.039,3.039,0,0,0-.819.386,2.64,2.64,0,0,0-.787.887,5.568,5.568,0,0,0-.525,1.425,5.855,5.855,0,0,0-.184,1.554,6.3,6.3,0,0,0,.184,1.5c.129.478.291.947.462,1.412.362,1.008.753,2,1.181,2.982a29.146,29.146,0,0,0,1.412,2.745c.236.409.48.811.724,1.215s.478.811.73,1.207c.493.772,1.021,1.512,1.556,2.255s1.1,1.575,1.625,2.362a15.266,15.266,0,0,1,.84,1.517c.249.538.478,1.079.677,1.635.2.627.36,1.26.509,1.9.136.6.262,1.192.388,1.793a44.418,44.418,0,0,1,.525,4.79,22,22,0,0,0,1.094,6.378c.375,1.008.822,1.99,1.26,2.974a16.7,16.7,0,0,0,.787,1.562c.234.409.472.816.68,1.244.1.21.186.423.262.64.05.171.092.339.129.512.063.394.1.787.126,1.184a19.348,19.348,0,0,1,0,1.99,23.434,23.434,0,0,1-.4,2.667c-.16.751-.331,1.5-.525,2.241-.176.688-.4,1.36-.591,2.042-.436,1.517-.84,3.042-1.155,4.591-.213,1.05-.386,2.118-.572,3.178s-.4,2.1-.57,3.15q-.262,1.514-.407,3.045c-.055.549-.113,1.094-.158,1.643,0,.094-.018.189-.024.286s-.016.186-.021.278h0v.063c0,.113-.016.226-.021.341-.018.276-.031.551-.045.827-.05,1.068-.089,2.139-.105,3.21v.564h0C217.25,373.084,216.88,373.079,216.513,373.071Zm113.44,13.386a13.689,13.689,0,0,1-.215,1.5,17.529,17.529,0,0,1-.525,1.934c-.066.165-.134.328-.21.491-.063.113-.129.226-.2.336a3.518,3.518,0,0,1-.281.354q-.105.11-.22.213c-.079.058-.155.113-.236.165-.147.089-.3.173-.451.262a2.534,2.534,0,0,1-.449.178c-.814.241-1.656.388-2.488.554a25.751,25.751,0,0,0-2.507.593c-.433.131-.866.262-1.291.42s-.769.312-1.15.483-.787.341-1.176.525-.759.352-1.136.525c-.186.087-.375.168-.57.239a9.551,9.551,0,0,1-.932.247,13.835,13.835,0,0,1-1.433.163c-.992.045-1.982.024-2.971,0s-1.934-.066-2.9-.136a15.011,15.011,0,0,1-1.643-.2c-.583-.11-1.165-.234-1.748-.354l.11.024c-.787-.168-1.575-.381-2.362-.551-.1-.029-.2-.045-.3-.066H302.6l-.262-.05c-.4-.076-.787-.134-1.189-.189-.769-.11-1.535-.228-2.3-.381-.436-.1-.866-.21-1.3-.328a7.385,7.385,0,0,0-1.213-.262,12.818,12.818,0,0,0-2.5.021c-.858.079-1.709.21-2.559.344s-1.622.262-2.441.336a6.043,6.043,0,0,1-.69,0,10.213,10.213,0,0,1-2.911-.643c-.231-.087-.451-.189-.669-.294l.669-.047h.273c.381-.021.764-.037,1.144-.053s.84-.016,1.257-.039a.837.837,0,0,0,.425-1.486.882.882,0,0,0-.627-.178h0c-.787.021-1.593.047-2.391.092h-.2c-.525.029-1.026.066-1.538.126-.572.068-1.144.147-1.714.22h-.045a.9.9,0,0,0-.4-.1.842.842,0,0,0-.606.262c-.213.037-.425.074-.635.118-.5.108-1.008.226-1.514.325-.328.055-.656.092-.99.116-.507.024-1.016.018-1.522.047a15.1,15.1,0,0,0-1.5.155c-.417.063-.832.118-1.247.178a11.621,11.621,0,0,0-1.249.262c-.84.21-1.669.472-2.5.7s-1.646.383-2.459.609c-.772.21-1.522.48-2.307.638-.441.063-.885.092-1.328.118-.816.034-1.63,0-2.446,0s-1.693-.016-2.538-.045-1.732-.073-2.6-.11-1.706-.087-2.562-.079-1.774.05-2.659.123c-.832.066-1.664.115-2.5.189-.882.079-1.761.178-2.64.262-.837.089-1.68.155-2.514.262s-1.727.22-2.6.263c-1.218.058-2.444.047-3.675,0-.315,0-.63-.026-.945-.045h-.142l-.173-.016a13.257,13.257,0,0,1-1.328-.184,17.167,17.167,0,0,1-1.837-.525c-.619-.228-1.226-.478-1.837-.719s-1.16-.465-1.753-.654a16.286,16.286,0,0,0-1.837-.423c-.674-.126-1.352-.22-2.024-.357-.564-.123-1.129-.262-1.677-.433a13.491,13.491,0,0,1-1.412-.656h.016a10.676,10.676,0,0,1-1.11-.651,7.3,7.3,0,0,1-.612-.486c-.115-.116-.226-.234-.333-.354-.262-.32-.5-.648-.753-.976s-.5-.661-.722-1.008a5.978,5.978,0,0,1-.291-.525c-.039-.095-.079-.192-.11-.289a1.844,1.844,0,0,1-.052-.207q-.031-.189-.047-.378v-.753a11.339,11.339,0,0,1,.16-1.189c.063-.281.136-.556.226-.832a7.136,7.136,0,0,1,.3-.7c.3-.549.648-1.066.942-1.614a17.029,17.029,0,0,0,.866-1.982c.262-.711.509-1.433.709-2.168.171-.638.3-1.283.43-1.929a.787.787,0,0,0,.047-.262.837.837,0,0,0-1.643-.262c-.084.367-.152.74-.226,1.11a.343.343,0,0,0-.013.05.181.181,0,0,0-.021-.1,22.691,22.691,0,0,1-.312-2.26c-.034-.787-.021-1.559,0-2.339s.047-1.528.084-2.291c.021-.407.039-.808.068-1.215v-.042c0-.068.013-.137.018-.2.152-1.9.37-3.785.709-5.659.176-.979.367-1.955.525-2.934s.339-1.945.525-2.913c.239-1.113.525-2.213.832-3.307s.643-2.1.895-3.186.525-2.207.706-3.331a16.556,16.556,0,0,0,.194-1.685,16.286,16.286,0,0,0,0-1.64,12.425,12.425,0,0,0-.131-1.591,6.315,6.315,0,0,0-.391-1.4c-.394-.942-.969-1.787-1.415-2.7-.294-.63-.572-1.265-.845-1.9s-.509-1.2-.719-1.837a15.868,15.868,0,0,1-.412-1.6c-.147-.808-.262-1.622-.339-2.438s-.113-1.693-.178-2.541-.163-1.661-.262-2.491a24.382,24.382,0,0,0-.43-2.462,23.481,23.481,0,0,0-.885-3.283c-.2-.525-.436-1.05-.682-1.575a13.571,13.571,0,0,0-.727-1.328c-.525-.837-1.1-1.667-1.677-2.472-.525-.727-1.05-1.449-1.541-2.2s-.892-1.459-1.328-2.2c-.459-.787-.892-1.575-1.286-2.391a40.835,40.835,0,0,1-1.654-4.2c-.068-.223-.134-.446-.184-.674a3.906,3.906,0,0,1-.071-.593c-.016-.2,0-.451,0-.675a2.8,2.8,0,0,1,.084-.58,6.362,6.362,0,0,1,.171-.619c.071-.186.147-.367.234-.546l.052-.092c.034-.045.068-.092.1-.136l.06-.058.113-.081.113-.063.142-.055c.192-.055.383-.1.58-.142a5.912,5.912,0,0,1,.709-.089,12.219,12.219,0,0,1,1.312.031c.682.055,1.362.137,2.045.192s1.409.121,2.115.192a41.035,41.035,0,0,1,4.079.6c.772.165,1.541.349,2.315.507s1.509.289,2.268.409a29.314,29.314,0,0,0,3.15.328c1.094.055,2.194.024,3.289-.013.525-.018,1.034-.05,1.551-.063s1.084-.016,1.627-.016h4.549c1.706,0,3.412,0,5.115.058.525.021,1.073.052,1.612.066s1.115,0,1.675.016c.995,0,1.992.021,2.989.084.31.024.619.052.932.087.969.113,1.929.276,2.887.383a16.108,16.108,0,0,0,3.26,0c.454-.042.908-.1,1.36-.178a9.68,9.68,0,0,0,1.339-.276,7.607,7.607,0,0,0,1.273-.577c.378-.2.74-.436,1.123-.625.144-.063.289-.118.438-.171a10.878,10.878,0,0,1,1.084-.263,21.778,21.778,0,0,1,2.58-.278c.808-.039,1.617-.068,2.425-.115s1.622-.121,2.433-.168H271.8c.916-.05,1.837-.1,2.745-.181s1.869-.165,2.806-.239,1.819-.16,2.727-.249,1.753-.223,2.625-.352c1.076-.155,2.155-.262,3.239-.362,1.131-.1,2.257-.22,3.383-.354.549-.066,1.1-.123,1.643-.2s1.121-.184,1.68-.289a20.712,20.712,0,0,0,3.126-.811,23.292,23.292,0,0,0,2.625-1.171c.9-.451,1.777-.953,2.648-1.465a19.185,19.185,0,0,0,2.562-1.8c.709-.593,1.4-1.215,2.1-1.811a12.391,12.391,0,0,1,1.176-.85,20.638,20.638,0,0,1,1.892-1.066,8.288,8.288,0,0,1,.9-.36c.223-.068.449-.129.68-.181a15.047,15.047,0,0,1,1.609-.2,19.053,19.053,0,0,1,1.934.039,11.836,11.836,0,0,1,1.394.181c.1.021.192.045.289.071a.848.848,0,0,0,.551.472.787.787,0,0,0,.283.457c.084.063.171.121.262.178a2.2,2.2,0,0,1,.241.189.811.811,0,0,1,.129.136.466.466,0,0,1,.042.058l.045.081c.018.045.037.089.052.134s.039.15.058.223a2.208,2.208,0,0,1,.037.3,6.868,6.868,0,0,1-.021.7,19.984,19.984,0,0,1-.283,2.052,16.406,16.406,0,0,1-.475,1.648q-.276.832-.554,1.659c-.192.57-.388,1.136-.549,1.714s-.312,1.192-.465,1.787a22.85,22.85,0,0,0-.643,3.226,24.79,24.79,0,0,0-.081,3.391c.039,1.079.15,2.15.263,3.223s.2,2.15.278,3.226v.15c.045,1.029.076,2.06.068,3.092,0,1.079-.024,2.157-.031,3.236-.016,2.236-.034,4.48-.2,6.714-.05.625-.095,1.255-.173,1.877s-.181,1.291-.278,1.934c-.165,1.11-.339,2.223-.444,3.341a31.2,31.2,0,0,0-.108,3.286c0,1.092.034,2.184.071,3.278a30.428,30.428,0,0,0,.262,3.315c.15,1.05.318,2.1.525,3.131a26.245,26.245,0,0,0,.787,3.1c.171.5.362,1,.551,1.5s.365.958.567,1.43c.433,1.016.84,2.039,1.192,3.089a12.9,12.9,0,0,1,.367,1.444,24.276,24.276,0,0,1,.262,2.467c.045.885.047,1.769.073,2.656q.042,1.438.152,2.887c.037.472.076.947.123,1.423s.113.9.165,1.354c.1.89.21,1.78.262,2.672h0v.013a19.411,19.411,0,0,0,.181,1.992,7.272,7.272,0,0,0,.614,2,7.355,7.355,0,0,0,.486.835,7.874,7.874,0,0,0,.638.864,15.489,15.489,0,0,0,1.312,1.241c.375.349.738.709,1.123,1.05.428.375.871.735,1.312,1.1.822.675,1.64,1.365,2.43,2.079a19.431,19.431,0,0,1,1.554,1.633c.181.226.352.454.525.693a7.468,7.468,0,0,1,.433.774c.068.155.129.312.184.472a2.94,2.94,0,0,1,.1.42c.055.333.089.669.113,1.008a10.753,10.753,0,0,1-.008,1.2Z" transform="translate(-136.137 -270.03)"/>
    </g>
  </g>
</svg>
