<svg xmlns="http://www.w3.org/2000/svg" xmlns:xlink="http://www.w3.org/1999/xlink" width="44" height="44" viewBox="0 0 44 44">
  <defs>
    <clipPath id="clip-path">
      <rect id="長方形_23902" data-name="長方形 23902" width="44" height="44" transform="translate(-7827 670)" fill="#fff" stroke="#707070" stroke-width="1"/>
    </clipPath>
  </defs>
  <g id="マスクグループ_1" data-name="マスクグループ 1" transform="translate(7827 -670)" clip-path="url(#clip-path)">
    <path id="パス_12160" data-name="パス 12160" d="M32.282,54.437c-1.685-4.96-2.257-6.64-2.465-7.238v-.007l-.045-.141c-.877-2.729-3.165-6.12-9.085-6.769L19.033,40.1l-.049,1.664a2.609,2.609,0,0,1-5.217,0L13.716,40.1l-1.654.184c-5.919.655-8.2,4.048-9.077,6.779l-.044.137,0,.01c-.207.6-.777,2.282-2.456,7.241L0,55.883l1.419.51L6.726,58.3l.3.108v9.323H8.565l15.65-.009h1.537V66.187L25.743,58.4l.3-.109,5.305-1.916,1.418-.512Zm-6.76,2.411L24.2,53.434l.013,12.754L8.564,66.2V53.443L7.247,56.858l-5.308-1.91,2.509-7.408v0c.887-2.771,3.05-5.2,7.782-5.72a4.145,4.145,0,0,0,8.289,0c4.733.519,6.9,2.942,7.789,5.712v0l2.517,7.406Z" transform="translate(-7821 638.082)" fill="#1a1a1a"/>
  </g>
</svg>
