<svg xmlns="http://www.w3.org/2000/svg" xmlns:xlink="http://www.w3.org/1999/xlink" width="44" height="44" viewBox="0 0 44 44">
  <defs>
    <clipPath id="clip-path">
      <rect id="長方形_23903" data-name="長方形 23903" width="44" height="44" transform="translate(-7914 762)" fill="#fff" stroke="#707070" stroke-width="1"/>
    </clipPath>
  </defs>
  <g id="マスクグループ_1" data-name="マスクグループ 1" transform="translate(7914 -762)" clip-path="url(#clip-path)">
    <g id="スーツアイコン1" transform="translate(-7907.799 740.098)">
      <path id="パス_12157" data-name="パス 12157" d="M31.58,66.324l-4-17.542a3.966,3.966,0,0,0-2.175-2.7l-4.471-2.121L15.8,56.941,10.661,43.965,6.191,46.086a3.966,3.966,0,0,0-2.175,2.7l-4,17.542a.66.66,0,0,0,.505.788l3.279.729a.67.67,0,0,0,.8-.487L7.539,55.488,8.424,61.3,6.842,68.576a.812.812,0,0,0,.131.643.835.835,0,0,0,.566.344L14.766,70.6,15.8,67.774,16.83,70.6l7.227-1.036a.836.836,0,0,0,.566-.344.812.812,0,0,0,.131-.643L23.172,61.3l.885-5.812L27,67.355a.67.67,0,0,0,.8.487l3.279-.729A.66.66,0,0,0,31.58,66.324ZM15.8,65.271a.616.616,0,1,1,.625-.616A.621.621,0,0,1,15.8,65.271Zm0-4.165a.616.616,0,1,1,.625-.616A.62.62,0,0,1,15.8,61.106Z" transform="translate(0 -12.747)" fill="#1a1a1a"/>
      <path id="パス_12158" data-name="パス 12158" d="M240.459,33.166l.287-1.126-.511-2.089H238l-.512,2.089.288,1.126Z" transform="translate(-223.35)" fill="#1a1a1a"/>
      <path id="パス_12159" data-name="パス 12159" d="M239.728,91.713l-.354-8.3h-2.88l-.354,8.3,1.794,4.676Z" transform="translate(-222.136 -48.627)" fill="#1a1a1a"/>
    </g>
  </g>
</svg>
