<svg xmlns="http://www.w3.org/2000/svg" width="15.525" height="20.248" viewBox="0 0 15.525 20.248">
  <g id="電話の受話器のアイコン素材" transform="translate(-59.712 0)">
    <path id="パス_12143" data-name="パス 12143" d="M61.1.857c-1.391.9-1.665,3.723-1.139,6.021a20.763,20.763,0,0,0,2.745,6.453,21.563,21.563,0,0,0,4.772,5.138c1.885,1.417,4.571,2.318,5.963,1.415a7.046,7.046,0,0,0,1.8-1.926l-.747-1.152-2.055-3.169c-.153-.235-1.111-.02-1.6.255a4.633,4.633,0,0,0-1.261,1.37c-.45.26-.827,0-1.615-.362a9.591,9.591,0,0,1-2.922-3.083,9.59,9.59,0,0,1-1.623-3.926c-.01-.867-.093-1.317.328-1.622a4.633,4.633,0,0,0,1.765-.593c.45-.332,1.037-1.119.884-1.354L64.339,1.155,63.592,0A7.046,7.046,0,0,0,61.1.857Z" fill="#4b4b4b"/>
  </g>
</svg>
